<?xml version="1.0" encoding="UTF-8"?>
<svg id="Capa_2" xmlns="http://www.w3.org/2000/svg" viewBox="0 0 155.91 240.94">
  <defs>
    <style>
      .cls-1 {
        fill: #c2d98a;
      }

      .cls-2 {
        fill: #fff;
      }

      .cls-3 {
        fill: #bea7d0;
      }

      .cls-4 {
        fill: #173f35;
      }

      .cls-5 {
        fill: #799f90;
      }
    </style>
  </defs>
  <g id="Capa_1-2" data-name="Capa_1">
    <rect class="cls-2" width="155.91" height="240.94"/>
    <g>
      <rect class="cls-4" x="18.63" y="158.96" width="118.65" height=".49"/>
      <g>
        <path class="cls-4" d="M18.63,151.16h1.44c1.77,0,2.72,1.03,2.72,2.86s-.95,2.91-2.69,2.91h-1.48v-5.77ZM20.02,156.32c1.35,0,2.02-.85,2.02-2.3s-.67-2.26-2.02-2.26h-.65v4.57h.65Z"/>
        <path class="cls-4" d="M23.84,151.53l1.24-1.46.51.48-1.38,1.34-.37-.36ZM23.97,152.65h.72v4.27h-.72v-4.27Z"/>
        <path class="cls-4" d="M25.87,155.82c0-.93.8-1.4,2.62-1.59,0-.55-.18-1.08-.88-1.08-.49,0-.94.23-1.27.46l-.28-.5c.39-.26.99-.56,1.68-.56,1.04,0,1.48.69,1.48,1.76v2.62h-.6l-.06-.51h-.02c-.41.34-.88.62-1.41.62-.71,0-1.25-.44-1.25-1.21ZM28.49,155.88v-1.19c-1.43.17-1.92.52-1.92,1.07,0,.49.33.68.75.68s.75-.2,1.17-.57Z"/>
        <path class="cls-4" d="M30.42,153.31c0-.33.24-.56.52-.56s.52.23.52.56-.24.55-.52.55-.52-.23-.52-.55ZM30.42,156.48c0-.33.24-.56.52-.56s.52.23.52.56-.24.55-.52.55-.52-.23-.52-.55Z"/>
      </g>
      <g>
        <path class="cls-4" d="M87.27,151.17h.73v2.42h2.68v-2.42h.73v5.77h-.73v-2.71h-2.68v2.71h-.73v-5.77Z"/>
        <path class="cls-4" d="M92.62,154.81c0-1.43.93-2.25,1.98-2.25s1.98.82,1.98,2.25-.93,2.24-1.98,2.24-1.98-.82-1.98-2.24ZM95.83,154.81c0-.98-.5-1.65-1.23-1.65s-1.23.67-1.23,1.65.5,1.63,1.23,1.63,1.23-.66,1.23-1.63Z"/>
        <path class="cls-4" d="M97.7,152.67h.6l.06.78h.02c.3-.54.73-.88,1.21-.88.19,0,.32.02.46.09l-.14.63c-.15-.05-.24-.07-.41-.07-.36,0-.79.26-1.08.98v2.74h-.72v-4.27Z"/>
        <path class="cls-4" d="M100.28,155.83c0-.93.8-1.4,2.62-1.59,0-.55-.18-1.08-.88-1.08-.49,0-.94.23-1.27.46l-.28-.5c.39-.26.99-.56,1.68-.56,1.04,0,1.48.69,1.48,1.76v2.62h-.6l-.06-.51h-.02c-.41.34-.88.62-1.41.62-.71,0-1.25-.44-1.25-1.21ZM102.9,155.9v-1.19c-1.43.17-1.92.52-1.92,1.07,0,.49.33.68.75.68s.75-.2,1.17-.57Z"/>
        <path class="cls-4" d="M104.83,153.33c0-.33.24-.56.52-.56s.52.23.52.56-.24.55-.52.55-.52-.23-.52-.55ZM104.83,156.5c0-.33.24-.56.52-.56s.52.23.52.56-.24.55-.52.55-.52-.23-.52-.55Z"/>
      </g>
    </g>
    <g>
      <rect class="cls-4" x="18.6" y="179.39" width="118.65" height=".49"/>
      <g>
        <path class="cls-4" d="M18.6,171.59h1.44c1.77,0,2.72,1.03,2.72,2.86s-.95,2.91-2.69,2.91h-1.48v-5.77ZM19.99,176.76c1.35,0,2.02-.85,2.02-2.3s-.67-2.26-2.02-2.26h-.65v4.57h.65Z"/>
        <path class="cls-4" d="M23.81,171.96l1.24-1.46.51.48-1.38,1.34-.37-.36ZM23.95,173.09h.72v4.27h-.72v-4.27Z"/>
        <path class="cls-4" d="M25.84,176.25c0-.93.8-1.4,2.62-1.59,0-.55-.18-1.08-.88-1.08-.49,0-.94.23-1.27.46l-.28-.5c.39-.26.99-.56,1.68-.56,1.04,0,1.48.69,1.48,1.76v2.62h-.6l-.06-.51h-.02c-.41.34-.88.62-1.41.62-.71,0-1.25-.44-1.25-1.21ZM28.47,176.32v-1.19c-1.43.17-1.92.52-1.92,1.07,0,.49.33.68.75.68s.75-.2,1.17-.57Z"/>
        <path class="cls-4" d="M30.39,173.75c0-.33.24-.56.52-.56s.52.23.52.56-.24.55-.52.55-.52-.23-.52-.55ZM30.39,176.92c0-.33.24-.56.52-.56s.52.23.52.56-.24.55-.52.55-.52-.23-.52-.55Z"/>
      </g>
      <g>
        <path class="cls-4" d="M87.24,171.6h.73v2.42h2.68v-2.42h.73v5.77h-.73v-2.71h-2.68v2.71h-.73v-5.77Z"/>
        <path class="cls-4" d="M92.59,175.24c0-1.43.93-2.25,1.98-2.25s1.98.82,1.98,2.25-.93,2.24-1.98,2.24-1.98-.82-1.98-2.24ZM95.81,175.24c0-.98-.5-1.65-1.23-1.65s-1.23.67-1.23,1.65.5,1.63,1.23,1.63,1.23-.66,1.23-1.63Z"/>
        <path class="cls-4" d="M97.68,173.1h.6l.06.78h.02c.3-.54.73-.88,1.21-.88.19,0,.32.02.46.09l-.14.63c-.15-.05-.24-.07-.41-.07-.36,0-.79.26-1.08.98v2.74h-.72v-4.27Z"/>
        <path class="cls-4" d="M100.25,176.26c0-.93.8-1.4,2.62-1.59,0-.55-.18-1.08-.88-1.08-.49,0-.94.23-1.27.46l-.28-.5c.39-.26.99-.56,1.68-.56,1.04,0,1.48.69,1.48,1.76v2.62h-.6l-.06-.51h-.02c-.41.34-.88.62-1.41.62-.71,0-1.25-.44-1.25-1.21ZM102.88,176.33v-1.19c-1.43.17-1.92.52-1.92,1.07,0,.49.33.68.75.68s.75-.2,1.17-.57Z"/>
        <path class="cls-4" d="M104.8,173.76c0-.33.24-.56.52-.56s.52.23.52.56-.24.55-.52.55-.52-.23-.52-.55ZM104.8,176.93c0-.33.24-.56.52-.56s.52.23.52.56-.24.55-.52.55-.52-.23-.52-.55Z"/>
      </g>
    </g>
    <g>
      <rect class="cls-4" x="18.63" y="199.83" width="118.65" height=".49"/>
      <g>
        <path class="cls-4" d="M18.63,192.03h1.44c1.77,0,2.72,1.03,2.72,2.86s-.95,2.91-2.69,2.91h-1.48v-5.77ZM20.02,197.19c1.35,0,2.02-.85,2.02-2.3s-.67-2.26-2.02-2.26h-.65v4.57h.65Z"/>
        <path class="cls-4" d="M23.84,192.4l1.24-1.46.51.48-1.38,1.34-.37-.36ZM23.97,193.52h.72v4.27h-.72v-4.27Z"/>
        <path class="cls-4" d="M25.87,196.69c0-.93.8-1.4,2.62-1.59,0-.55-.18-1.08-.88-1.08-.49,0-.94.23-1.27.46l-.28-.5c.39-.26.99-.56,1.68-.56,1.04,0,1.48.69,1.48,1.76v2.62h-.6l-.06-.51h-.02c-.41.34-.88.62-1.41.62-.71,0-1.25-.44-1.25-1.21ZM28.49,196.75v-1.19c-1.43.17-1.92.52-1.92,1.07,0,.49.33.68.75.68s.75-.2,1.17-.57Z"/>
        <path class="cls-4" d="M30.42,194.19c0-.33.24-.56.52-.56s.52.23.52.56-.24.55-.52.55-.52-.23-.52-.55ZM30.42,197.35c0-.33.24-.56.52-.56s.52.23.52.56-.24.55-.52.55-.52-.23-.52-.55Z"/>
      </g>
      <g>
        <path class="cls-4" d="M87.27,192.04h.73v2.42h2.68v-2.42h.73v5.77h-.73v-2.71h-2.68v2.71h-.73v-5.77Z"/>
        <path class="cls-4" d="M92.62,195.68c0-1.43.93-2.25,1.98-2.25s1.98.82,1.98,2.25-.93,2.24-1.98,2.24-1.98-.82-1.98-2.24ZM95.83,195.68c0-.98-.5-1.65-1.23-1.65s-1.23.67-1.23,1.65.5,1.63,1.23,1.63,1.23-.66,1.23-1.63Z"/>
        <path class="cls-4" d="M97.7,193.54h.6l.06.78h.02c.3-.54.73-.88,1.21-.88.19,0,.32.02.46.09l-.14.63c-.15-.05-.24-.07-.41-.07-.36,0-.79.26-1.08.98v2.74h-.72v-4.27Z"/>
        <path class="cls-4" d="M100.28,196.7c0-.93.8-1.4,2.62-1.59,0-.55-.18-1.08-.88-1.08-.49,0-.94.23-1.27.46l-.28-.5c.39-.26.99-.56,1.68-.56,1.04,0,1.48.69,1.48,1.76v2.62h-.6l-.06-.51h-.02c-.41.34-.88.62-1.41.62-.71,0-1.25-.44-1.25-1.21ZM102.9,196.77v-1.19c-1.43.17-1.92.52-1.92,1.07,0,.49.33.68.75.68s.75-.2,1.17-.57Z"/>
        <path class="cls-4" d="M104.83,194.2c0-.33.24-.56.52-.56s.52.23.52.56-.24.55-.52.55-.52-.23-.52-.55ZM104.83,197.37c0-.33.24-.56.52-.56s.52.23.52.56-.24.55-.52.55-.52-.23-.52-.55Z"/>
      </g>
    </g>
    <g>
      <rect class="cls-4" x="18.63" y="220.26" width="118.65" height=".49"/>
      <g>
        <path class="cls-4" d="M18.63,212.46h1.44c1.77,0,2.72,1.03,2.72,2.86s-.95,2.91-2.69,2.91h-1.48v-5.77ZM20.01,217.63c1.35,0,2.02-.85,2.02-2.3s-.67-2.26-2.02-2.26h-.65v4.57h.65Z"/>
        <path class="cls-4" d="M23.83,212.83l1.24-1.46.51.48-1.38,1.34-.37-.36ZM23.97,213.96h.72v4.27h-.72v-4.27Z"/>
        <path class="cls-4" d="M25.87,217.12c0-.93.8-1.4,2.62-1.59,0-.55-.18-1.08-.88-1.08-.49,0-.94.23-1.27.46l-.28-.5c.39-.26.99-.56,1.68-.56,1.04,0,1.48.69,1.48,1.76v2.62h-.6l-.06-.51h-.02c-.41.34-.88.62-1.41.62-.71,0-1.25-.44-1.25-1.21ZM28.49,217.19v-1.19c-1.43.17-1.92.52-1.92,1.07,0,.49.33.68.75.68s.75-.2,1.17-.57Z"/>
        <path class="cls-4" d="M30.41,214.62c0-.33.24-.56.52-.56s.52.23.52.56-.24.55-.52.55-.52-.23-.52-.55ZM30.41,217.79c0-.33.24-.56.52-.56s.52.23.52.56-.24.55-.52.55-.52-.23-.52-.55Z"/>
      </g>
      <g>
        <path class="cls-4" d="M87.26,212.48h.73v2.42h2.68v-2.42h.73v5.77h-.73v-2.71h-2.68v2.71h-.73v-5.77Z"/>
        <path class="cls-4" d="M92.61,216.11c0-1.43.93-2.25,1.98-2.25s1.98.82,1.98,2.25-.93,2.24-1.98,2.24-1.98-.82-1.98-2.24ZM95.83,216.11c0-.98-.5-1.65-1.23-1.65s-1.23.67-1.23,1.65.5,1.63,1.23,1.63,1.23-.66,1.23-1.63Z"/>
        <path class="cls-4" d="M97.7,213.97h.6l.06.78h.02c.3-.54.73-.88,1.21-.88.19,0,.32.02.46.09l-.14.63c-.15-.05-.24-.07-.41-.07-.36,0-.79.26-1.08.98v2.74h-.72v-4.27Z"/>
        <path class="cls-4" d="M100.27,217.14c0-.93.8-1.4,2.62-1.59,0-.55-.18-1.08-.88-1.08-.49,0-.94.23-1.27.46l-.28-.5c.39-.26.99-.56,1.68-.56,1.04,0,1.48.69,1.48,1.76v2.62h-.6l-.06-.51h-.02c-.41.34-.88.62-1.41.62-.71,0-1.25-.44-1.25-1.21ZM102.9,217.2v-1.19c-1.43.17-1.92.52-1.92,1.07,0,.49.33.68.75.68s.75-.2,1.17-.57Z"/>
        <path class="cls-4" d="M104.82,214.63c0-.33.24-.56.52-.56s.52.23.52.56-.24.55-.52.55-.52-.23-.52-.55ZM104.82,217.8c0-.33.24-.56.52-.56s.52.23.52.56-.24.55-.52.55-.52-.23-.52-.55Z"/>
      </g>
    </g>
    <g>
      <path class="cls-1" d="M27.08,44.55c.17-1.86.51-3.71.49-5.59-.03-.94.03-1.77-.45-2.56-1.57-2.48-5.41-3.4-7.68-1.49-.88.72-1.08,1.91-.43,2.87.52.69,1.41.91,2.18.98.72.08,1.41-.16,2.11.12.78.34,1.29,1.02,1.6,1.85.95,2.39-.48,4.82-1.81,6.65-1.01,1.53-2.1,3.08-2.63,4.87-.8,2.65,1.42,4.88,3.86,3.69,1.62-.7,2.34-2.52,2.51-4.31.08-.71.06-1.32.05-1.97,0-1.56.06-3.47.18-5.07v-.04Z"/>
      <path class="cls-5" d="M44.21,46.96c-.1-3.91.35-7.31-.21-11.07-.2-2.05-.46-4.45-.63-6.55-.08-1.46-.35-2.91.41-4.24,2.22-4.22,7.55-5.9,11.84-3.65,2.52,1.32,3.78,4.36,3.14,7.16-.31,2.21-1.7,3.97-2.8,5.87-1.76,3.52-.87,7.58-.28,11.39.47,2.74.6,6.02-1.13,8.37-1.43,1.97-4.63,2.67-6.7,1.37-2.82-1.74-3.54-5.48-3.63-8.58v-.07Z"/>
      <g>
        <path class="cls-3" d="M64.12,55.55c2.98,1.18,5.9,1.03,8.35-1.23,2.35-1.9,4.71-4.58,4.32-7.69-.12-1.1-.44-1.92-.83-3.04-.56-1.5-1.23-3.31-2.02-4.78-.77-1.51-2.89-3.98-3.25-1.7-.17,2.1.13,4.89-.29,6.96-.46,3.52-3.34,3.63-6.22,4.3-4.15,1.01-3.87,5.82-.12,7.16l.06.03Z"/>
        <path class="cls-3" d="M70.41,34.33c1.36-1.78,1.78-9.05,1-11.07-1.27-3.14-5.4-4-7.32-.79-1.12,2.12-1.07,5.16.04,7.3.39.75.9,1.38,1.46,2.03,1.05,1.04,3.17,3.93,4.78,2.57l.03-.04Z"/>
      </g>
      <path class="cls-4" d="M20.85,28.94c-1.85-1.17-2.48-3.54-2.14-5.63.36-2.02,2.26-3.81,4.2-2.28,1.26.98.94,2.71,1.07,4.12-.02,1.01.81,1.68,1.26,2.49.82,2.08-3.22,2.04-4.35,1.32l-.03-.02Z"/>
      <path class="cls-4" d="M32.86,26.32c-.31-.99.14-2.03.69-2.78.84-1.2,2.32-2.02,3.65-1.35,1.35.56,1.87,2.18,1.31,3.62-.37.92-1.13,1.46-1.95,1.79-1.32.53-3.13.55-3.68-1.23v-.05Z"/>
      <path class="cls-1" d="M30.32,44.55c-.17-1.86-.51-3.71-.49-5.59.03-.94-.03-1.77.45-2.56,1.57-2.48,5.41-3.4,7.68-1.49.88.72,1.08,1.91.43,2.87-.52.69-1.41.91-2.18.98-.72.08-1.41-.16-2.11.12-.78.34-1.29,1.02-1.6,1.85-.95,2.39.48,4.82,1.81,6.65,1.01,1.53,2.1,3.08,2.63,4.87.8,2.65-1.42,4.88-3.86,3.69-1.62-.7-2.34-2.52-2.51-4.31-.08-.71-.06-1.32-.05-1.97,0-1.56-.06-3.47-.18-5.07v-.04Z"/>
      <path class="cls-1" d="M87.52,44.55c.17-1.86.51-3.71.49-5.59-.03-.94.03-1.77-.45-2.56-1.57-2.48-5.41-3.4-7.68-1.49-.88.72-1.08,1.91-.43,2.87.52.69,1.41.91,2.18.98.72.08,1.41-.16,2.11.12.78.34,1.29,1.02,1.6,1.85.95,2.39-.48,4.82-1.81,6.65-1.01,1.53-2.1,3.08-2.63,4.87-.8,2.65,1.42,4.88,3.86,3.69,1.62-.7,2.34-2.52,2.51-4.31.08-.71.06-1.32.05-1.97,0-1.56.06-3.47.18-5.07v-.04Z"/>
      <path class="cls-5" d="M104.65,46.96c-.1-3.91.35-7.31-.21-11.07-.2-2.05-.46-4.45-.63-6.55-.08-1.46-.35-2.91.41-4.24,2.22-4.22,7.55-5.9,11.84-3.65,2.52,1.32,3.78,4.36,3.14,7.16-.31,2.21-1.7,3.97-2.8,5.87-1.76,3.52-.87,7.58-.28,11.39.47,2.74.6,6.02-1.13,8.37-1.43,1.97-4.63,2.67-6.7,1.37-2.82-1.74-3.54-5.48-3.63-8.58v-.07Z"/>
      <g>
        <path class="cls-3" d="M124.57,55.55c2.98,1.18,5.9,1.03,8.35-1.23,2.35-1.9,4.71-4.58,4.32-7.69-.12-1.1-.44-1.92-.83-3.04-.56-1.5-1.23-3.31-2.02-4.78-.77-1.51-2.89-3.98-3.25-1.7-.17,2.1.13,4.89-.29,6.96-.46,3.52-3.34,3.63-6.22,4.3-4.15,1.01-3.87,5.82-.12,7.16l.06.03Z"/>
        <path class="cls-3" d="M130.85,34.33c1.36-1.78,1.78-9.05,1-11.07-1.27-3.14-5.4-4-7.32-.79-1.12,2.12-1.07,5.16.04,7.3.39.75.9,1.38,1.46,2.03,1.05,1.04,3.17,3.93,4.78,2.57l.03-.04Z"/>
      </g>
      <path class="cls-4" d="M81.3,28.94c-1.85-1.17-2.48-3.54-2.14-5.63.36-2.02,2.26-3.81,4.2-2.28,1.26.98.94,2.71,1.07,4.12-.02,1.01.81,1.68,1.26,2.49.82,2.08-3.22,2.04-4.35,1.32l-.03-.02Z"/>
      <path class="cls-4" d="M93.3,26.32c-.31-.99.14-2.03.69-2.78.84-1.2,2.32-2.02,3.65-1.35,1.35.56,1.87,2.18,1.31,3.62-.37.92-1.13,1.46-1.95,1.79-1.32.53-3.13.55-3.68-1.23v-.05Z"/>
      <path class="cls-1" d="M90.76,44.55c-.17-1.86-.51-3.71-.49-5.59.03-.94-.03-1.77.45-2.56,1.57-2.48,5.41-3.4,7.68-1.49.88.72,1.08,1.91.43,2.87-.52.69-1.41.91-2.18.98-.72.08-1.41-.16-2.11.12-.78.34-1.29,1.02-1.6,1.85-.95,2.39.48,4.82,1.81,6.65,1.01,1.53,2.1,3.08,2.63,4.87.8,2.65-1.42,4.88-3.86,3.69-1.62-.7-2.34-2.52-2.51-4.31-.08-.71-.06-1.32-.05-1.97,0-1.56-.06-3.47-.18-5.07v-.04Z"/>
      <path class="cls-1" d="M128.82,73.84c-.17,1.86-.51,3.71-.49,5.59.03.94-.03,1.77.45,2.56,1.57,2.48,5.41,3.4,7.68,1.49.88-.72,1.08-1.91.43-2.87-.52-.69-1.41-.91-2.18-.98-.72-.08-1.41.16-2.11-.12-.78-.34-1.29-1.02-1.6-1.85-.95-2.39.48-4.82,1.81-6.65,1.01-1.53,2.1-3.08,2.63-4.87.8-2.65-1.42-4.88-3.86-3.69-1.62.7-2.34,2.52-2.51,4.31-.08.71-.06,1.32-.05,1.97,0,1.56-.06,3.47-.18,5.07v.04Z"/>
      <path class="cls-5" d="M111.69,71.43c.1,3.91-.35,7.31.21,11.07.2,2.05.46,4.45.63,6.55.08,1.46.35,2.91-.41,4.24-2.22,4.22-7.55,5.9-11.84,3.65-2.52-1.32-3.78-4.36-3.14-7.16.31-2.21,1.7-3.97,2.8-5.87,1.76-3.52.87-7.58.28-11.39-.47-2.74-.6-6.02,1.13-8.37,1.43-1.97,4.63-2.67,6.7-1.37,2.82,1.74,3.54,5.48,3.63,8.58v.07Z"/>
      <g>
        <path class="cls-3" d="M91.78,62.84c-2.98-1.18-5.9-1.03-8.35,1.23-2.35,1.9-4.71,4.58-4.32,7.69.12,1.1.44,1.92.83,3.04.56,1.5,1.23,3.31,2.02,4.78.77,1.51,2.89,3.98,3.25,1.7.17-2.1-.13-4.89.29-6.96.46-3.52,3.34-3.63,6.22-4.3,4.15-1.01,3.87-5.82.12-7.16l-.06-.03Z"/>
        <path class="cls-3" d="M85.5,84.05c-1.36,1.78-1.78,9.05-1,11.07,1.27,3.14,5.4,4,7.32.79,1.12-2.12,1.07-5.16-.04-7.3-.39-.75-.9-1.38-1.46-2.03-1.05-1.04-3.17-3.93-4.78-2.57l-.03.04Z"/>
      </g>
      <path class="cls-4" d="M135.05,89.45c1.85,1.17,2.48,3.54,2.14,5.63-.36,2.02-2.26,3.81-4.2,2.28-1.26-.98-.94-2.71-1.07-4.12.02-1.01-.81-1.68-1.26-2.49-.82-2.08,3.22-2.04,4.35-1.32l.03.02Z"/>
      <path class="cls-4" d="M123.04,92.07c.31.99-.14,2.03-.69,2.78-.84,1.2-2.32,2.02-3.65,1.35-1.35-.56-1.87-2.18-1.31-3.62.37-.92,1.13-1.46,1.95-1.79,1.32-.53,3.13-.55,3.68,1.23v.05Z"/>
      <path class="cls-1" d="M125.59,73.84c.17,1.86.51,3.71.49,5.59-.03.94.03,1.77-.45,2.56-1.57,2.48-5.41,3.4-7.68,1.49-.88-.72-1.08-1.91-.43-2.87.52-.69,1.41-.91,2.18-.98.72-.08,1.41.16,2.11-.12.78-.34,1.29-1.02,1.6-1.85.95-2.39-.48-4.82-1.81-6.65-1.01-1.53-2.1-3.08-2.63-4.87-.8-2.65,1.42-4.88,3.86-3.69,1.62.7,2.34,2.52,2.51,4.31.08.71.06,1.32.05,1.97,0,1.56.06,3.47.18,5.07v.04Z"/>
      <path class="cls-1" d="M68.38,73.84c-.17,1.86-.51,3.71-.49,5.59.03.94-.03,1.77.45,2.56,1.57,2.48,5.41,3.4,7.68,1.49.88-.72,1.08-1.91.43-2.87-.52-.69-1.41-.91-2.18-.98-.72-.08-1.41.16-2.11-.12-.78-.34-1.29-1.02-1.6-1.85-.95-2.39.48-4.82,1.81-6.65,1.01-1.53,2.1-3.08,2.63-4.87.8-2.65-1.42-4.88-3.86-3.69-1.62.7-2.34,2.52-2.51,4.31-.08.71-.06,1.32-.05,1.97,0,1.56-.06,3.47-.18,5.07v.04Z"/>
      <path class="cls-5" d="M51.25,71.43c.1,3.91-.35,7.31.21,11.07.2,2.05.46,4.45.63,6.55.08,1.46.35,2.91-.41,4.24-2.22,4.22-7.55,5.9-11.84,3.65-2.52-1.32-3.78-4.36-3.14-7.16.31-2.21,1.7-3.97,2.8-5.87,1.76-3.52.87-7.58.28-11.39-.47-2.74-.6-6.02,1.13-8.37,1.43-1.97,4.63-2.67,6.7-1.37,2.82,1.74,3.54,5.48,3.63,8.58v.07Z"/>
      <g>
        <path class="cls-3" d="M31.33,62.84c-2.98-1.18-5.9-1.03-8.35,1.23-2.35,1.9-4.71,4.58-4.32,7.69.12,1.1.44,1.92.83,3.04.56,1.5,1.23,3.31,2.02,4.78.77,1.51,2.89,3.98,3.25,1.7.17-2.1-.13-4.89.29-6.96.46-3.52,3.34-3.63,6.22-4.3,4.15-1.01,3.87-5.82.12-7.16l-.06-.03Z"/>
        <path class="cls-3" d="M25.05,84.05c-1.36,1.78-1.78,9.05-1,11.07,1.27,3.14,5.4,4,7.32.79,1.12-2.12,1.07-5.16-.04-7.3-.39-.75-.9-1.38-1.46-2.03-1.05-1.04-3.17-3.93-4.78-2.57l-.03.04Z"/>
      </g>
      <path class="cls-4" d="M74.6,89.45c1.85,1.17,2.48,3.54,2.14,5.63-.36,2.02-2.26,3.81-4.2,2.28-1.26-.98-.94-2.71-1.07-4.12.02-1.01-.81-1.68-1.26-2.49-.82-2.08,3.22-2.04,4.35-1.32l.03.02Z"/>
      <path class="cls-4" d="M62.6,92.07c.31.99-.14,2.03-.69,2.78-.84,1.2-2.32,2.02-3.65,1.35-1.35-.56-1.87-2.18-1.31-3.62.37-.92,1.13-1.46,1.95-1.79,1.32-.53,3.13-.55,3.68,1.23v.05Z"/>
      <path class="cls-1" d="M65.14,73.84c.17,1.86.51,3.71.49,5.59-.03.94.03,1.77-.45,2.56-1.57,2.48-5.41,3.4-7.68,1.49-.88-.72-1.08-1.91-.43-2.87.52-.69,1.41-.91,2.18-.98.72-.08,1.41.16,2.11-.12.78-.34,1.29-1.02,1.6-1.85.95-2.39-.48-4.82-1.81-6.65-1.01-1.53-2.1-3.08-2.63-4.87-.8-2.65,1.42-4.88,3.86-3.69,1.62.7,2.34,2.52,2.51,4.31.08.71.06,1.32.05,1.97,0,1.56.06,3.47.18,5.07v.04Z"/>
    </g>
    <g>
      <path class="cls-4" d="M20.62,125.26h-1.99v-.83h4.88v.83h-2v5.24h-.89v-5.24Z"/>
      <path class="cls-4" d="M24.57,127.95v-3.52h.89v3.5c0,1.09.71,1.87,1.72,1.87s1.71-.78,1.71-1.87v-3.5h.9v3.52c0,1.56-1.09,2.66-2.61,2.66s-2.61-1.1-2.61-2.66Z"/>
      <path class="cls-4" d="M33.68,124.43h2.56c1.28,0,2.25.82,2.25,1.98s-.97,1.98-2.25,1.98h-1.66v2.11h-.89v-6.08ZM36.11,127.56c.87,0,1.47-.43,1.47-1.15s-.59-1.15-1.47-1.15h-1.54v2.3h1.54Z"/>
      <path class="cls-4" d="M42.67,128.3l1.55,2.2h-1.03l-1.49-2.11h-1.4v2.11h-.89v-6.08h2.56c1.28,0,2.25.82,2.25,1.98,0,.94-.64,1.65-1.56,1.89ZM40.31,127.56h1.54c.87,0,1.47-.43,1.47-1.15s-.59-1.15-1.47-1.15h-1.54v2.3Z"/>
      <path class="cls-4" d="M45,127.46c0-1.71,1.45-3.14,3.16-3.14s3.14,1.43,3.14,3.14-1.43,3.15-3.14,3.15-3.16-1.44-3.16-3.15ZM50.39,127.46c0-1.26-1.02-2.32-2.23-2.32s-2.24,1.06-2.24,2.32,1.03,2.33,2.24,2.33,2.23-1.06,2.23-2.33ZM48.88,122.6l.86.18-1.27,1.13h-.64l1.05-1.31Z"/>
      <path class="cls-4" d="M55.37,127.46l2.29,3.04h-1.09l-1.75-2.33-1.75,2.33h-1.07l2.29-3.03-2.29-3.04h1.08l1.75,2.33,1.76-2.33h1.07l-2.29,3.03Z"/>
      <path class="cls-4" d="M58.61,124.43h.89v6.08h-.89v-6.08Z"/>
      <path class="cls-4" d="M60.94,124.43h.89l2.13,3.97,2.13-3.97h.89v6.08h-.89v-4.32l-2.13,3.97-2.13-3.97v4.32h-.89v-6.08Z"/>
      <path class="cls-4" d="M72.68,129.27h-3.17l-.53,1.24h-.99l2.61-6.08h.99l2.61,6.08h-.99l-.53-1.24ZM72.33,128.46l-1.24-2.88-1.24,2.88h2.48Z"/>
      <path class="cls-4" d="M77.38,127.46c0-1.71,1.45-3.14,3.16-3.14.87,0,1.66.36,2.24.96l-.63.6c-.41-.44-.98-.73-1.61-.73-1.21,0-2.24,1.06-2.24,2.32s1.03,2.33,2.24,2.33c.63,0,1.2-.29,1.61-.73l.63.6c-.57.58-1.37.96-2.24.96-1.71,0-3.16-1.44-3.16-3.15Z"/>
      <path class="cls-4" d="M83.68,124.43h.89v6.08h-.89v-6.08Z"/>
      <path class="cls-4" d="M87.6,125.26h-1.99v-.83h4.88v.83h-2v5.24h-.89v-5.24Z"/>
      <path class="cls-4" d="M95.2,129.27h-3.17l-.53,1.24h-.99l2.61-6.08h.99l2.61,6.08h-.99l-.53-1.24ZM94.85,128.46l-1.24-2.88-1.24,2.88h2.48Z"/>
      <path class="cls-4" d="M97.54,126.5c0-.3.26-.58.59-.58.32,0,.57.27.57.58,0,.33-.26.6-.57.6-.34,0-.59-.27-.59-.6ZM97.54,130.01c0-.3.26-.58.59-.58.32,0,.57.27.57.58,0,.33-.26.6-.57.6-.34,0-.59-.27-.59-.6Z"/>
    </g>
  </g>
</svg>