<?xml version="1.0" encoding="UTF-8"?>
<svg id="Capa_2" xmlns="http://www.w3.org/2000/svg" viewBox="0 0 155.91 240.94">
  <defs>
    <style>
      .cls-1 {
        fill: #c2d98a;
      }

      .cls-2 {
        fill: #fff;
      }

      .cls-3 {
        fill: #bea7d0;
      }

      .cls-4 {
        fill: #173f35;
      }

      .cls-5 {
        fill: #799f90;
      }
    </style>
  </defs>
  <g id="Capa_1-2" data-name="Capa_1">
    <rect class="cls-4" width="155.91" height="240.94"/>
    <g>
      <g>
        <path class="cls-1" d="M20.75,86.1c1.16,0,1.96.58,1.96,1.71s-.79,1.7-1.96,1.7h-.94v1.33h-1.17v-4.74h2.11ZM19.81,87.2v1.21h.83c.5,0,.82-.18.82-.6s-.32-.61-.82-.61h-.83Z"/>
        <path class="cls-1" d="M23.16,90.84l1.89-4.74h1.58l1.89,4.74h-1.3l-.39-1.05h-1.98l-.4,1.05h-1.28ZM25.23,88.76h1.19l-.59-1.56-.6,1.56Z"/>
        <path class="cls-1" d="M33.38,88.87c0,1.22-.62,2.03-2.09,2.03s-2.09-.81-2.09-2.03v-2.78h1.24v2.8c0,.58.28.84.85.84s.85-.26.85-.84v-2.8h1.24v2.78Z"/>
        <path class="cls-1" d="M35.68,86.1v3.64h2.31v1.1h-3.48v-4.74h1.17Z"/>
        <path class="cls-1" d="M38.45,90.84l1.89-4.74h1.58l1.89,4.74h-1.3l-.39-1.05h-1.98l-.4,1.05h-1.28ZM40.52,88.76h1.19l-.59-1.56-.6,1.56Z"/>
        <path class="cls-1" d="M48.36,86.1c1.16,0,1.96.58,1.96,1.71s-.79,1.7-1.96,1.7h-.94v1.33h-1.17v-4.74h2.11ZM47.42,87.2v1.21h.83c.5,0,.82-.18.82-.6s-.32-.61-.82-.61h-.83Z"/>
        <path class="cls-1" d="M54.97,86.1v1.1h-2.59v.7h2.24v1.1h-2.24v.73h2.59v1.1h-3.76v-4.74h3.76Z"/>
        <path class="cls-1" d="M58.21,86.1c1.15,0,1.91.51,1.91,1.62,0,.81-.55,1.32-1.29,1.43l1.38,1.69h-1.47l-1.21-1.67h-.4v1.67h-1.17v-4.74h2.24ZM57.13,87.2v1.08h1.03c.45,0,.73-.17.73-.55,0-.36-.28-.53-.73-.53h-1.03Z"/>
        <path class="cls-1" d="M64.82,86.1v1.1h-2.59v.7h2.24v1.1h-2.24v.73h2.59v1.1h-3.76v-4.74h3.76Z"/>
        <path class="cls-1" d="M66.99,86.1v3.64h2.31v1.1h-3.48v-4.74h1.17Z"/>
        <path class="cls-1" d="M71.36,86.1v3.64h2.31v1.1h-3.48v-4.74h1.17Z"/>
        <path class="cls-1" d="M74.35,88.47c0-1.44,1.04-2.44,2.45-2.44s2.44,1.01,2.44,2.44-1.04,2.43-2.44,2.43-2.45-1.01-2.45-2.43ZM78.01,88.47c0-.78-.52-1.27-1.21-1.27s-1.21.49-1.21,1.27.52,1.26,1.21,1.26,1.21-.48,1.21-1.26ZM77.23,85.69h-1.01l.67-.87h1.29l-.96.87Z"/>
      </g>
      <g>
        <path class="cls-1" d="M21.23,95.58h-2.54s-.05,0-.05,0v6.6s-.01.05-.01.05h.73s0-2.4,0-2.4h1.86s0,0,0,0c1.48,0,2.41-.81,2.41-2.1,0-.7-.23-1.25-.68-1.62-.41-.34-1.01-.52-1.73-.53ZM22.88,97.73c0,.89-.62,1.4-1.69,1.4h-1.83s0-2.86,0-2.86h1.83c.52,0,.93.12,1.22.35.31.25.47.62.47,1.11Z"/>
        <path class="cls-1" d="M28.28,95.5h0c-.93,0-1.79.34-2.4.95-.62.62-.97,1.5-.97,2.47,0,1.98,1.41,3.41,3.37,3.42h0c1.94,0,3.35-1.43,3.35-3.41,0-1.99-1.41-3.43-3.35-3.43ZM30.87,98.93c0,1.55-1.1,2.68-2.6,2.68h0c-1.51,0-2.61-1.13-2.61-2.69,0-.77.27-1.46.75-1.95.48-.48,1.14-.75,1.86-.75h0c.72,0,1.38.27,1.85.75.48.49.74,1.19.74,1.95Z"/>
        <path class="cls-1" d="M35.63,95.61h-2.15s-.05,0-.05,0v6.6s-.01.05-.01.05h2.2s0,0,0,0c2.14,0,3.58-1.33,3.58-3.31,0-1.99-1.43-3.34-3.58-3.34ZM38.47,98.94c0,1.57-1.14,2.62-2.84,2.62h-1.48s0-5.27,0-5.27h1.47c1.73,0,2.84,1.05,2.84,2.65Z"/>
        <path class="cls-1" d="M44.01,95.53h0c-.93,0-1.79.34-2.4.95s-.97,1.5-.97,2.47c0,.96.34,1.83.96,2.46.62.62,1.47.96,2.41.96h0c1.94,0,3.35-1.43,3.35-3.41,0-1.99-1.41-3.43-3.35-3.44ZM46.6,98.96c0,.76-.27,1.45-.75,1.93-.47.48-1.13.74-1.85.74h0c-1.51,0-2.61-1.13-2.61-2.69,0-.77.27-1.46.75-1.95.48-.48,1.14-.75,1.86-.75h0c1.5,0,2.59,1.14,2.59,2.71Z"/>
        <polygon class="cls-1" points="49.88 95.68 49.88 95.63 49.16 95.63 49.14 102.23 49.14 102.28 53.62 102.29 53.67 102.29 53.67 101.6 49.87 101.59 49.88 95.68"/>
        <path class="cls-1" d="M58.14,95.55h0c-.93,0-1.79.34-2.4.95s-.97,1.5-.97,2.47c0,1.98,1.41,3.41,3.37,3.42h0c1.94,0,3.35-1.43,3.35-3.41,0-1.99-1.4-3.43-3.35-3.44ZM60.73,98.99c0,.76-.27,1.45-.75,1.93-.47.48-1.13.74-1.85.74h0c-1.51,0-2.61-1.13-2.61-2.69,0-.77.27-1.46.75-1.95.48-.48,1.14-.75,1.86-.75h0c1.5,0,2.59,1.14,2.59,2.71Z"/>
        <path class="cls-1" d="M66.42,95.57h0c-.98,0-1.87.34-2.5.95-.64.62-.99,1.5-.99,2.47,0,.97.35,1.85.99,2.47.64.62,1.53.96,2.52.96h.01c.86,0,1.58-.2,2.28-.64h.02s0-3.02,0-3.02v-.05s-3.02,0-3.02,0h-.05s0,.64,0,.64h2.34s0,2.04,0,2.04c-.48.23-1.01.34-1.58.34h-.01c-.8,0-1.49-.26-1.99-.76-.5-.5-.77-1.18-.77-1.97,0-1.61,1.14-2.73,2.76-2.73h0c.8,0,1.55.24,2.24.72l.08.05v-.8s-.02-.02-.02-.02c-.68-.43-1.46-.65-2.31-.65Z"/>
        <polygon class="cls-1" points="70.56 95.2 71.27 95.2 72.49 93.9 71.58 93.9 70.56 95.2"/>
        <polygon class="cls-1" points="70.64 102.27 70.64 102.32 71.37 102.32 71.38 95.72 71.38 95.67 70.65 95.67 70.64 102.27"/>
        <path class="cls-1" d="M76.41,95.71v-.03s-.84,0-.84,0h-.03s-2.84,6.57-2.84,6.57l-.03.07h.76s.03,0,.03,0l.92-2.16h3.15s.91,2.17.91,2.17h.8s-2.84-6.62-2.84-6.62ZM77.26,99.51h-2.59s1.3-3.05,1.3-3.05l1.29,3.05Z"/>
      </g>
      <g>
        <path class="cls-5" d="M33.76,73.1c-.25-.33-.6-.79-.92-1.31-3.22-5.2-3.82-10.85-1.74-16.31.28-.73.42-1.38.42-1.94,0-.71-.04-1.44-.14-2.23-.17-1.36-.58-2.82-1.23-4.44-.58-1.44-.9-2.79-1-4.24-.36-3.93,2.23-7.56,6.76-9.48l.17-.06c.83-.31,1.26-.44,1.63-.56.18-.06.36-.12.59-.2l.11-.04c.4-.14.8-.28,1.21-.41.53-.17.95-.3,1.89-1.45,1.44-1.76,3.23-6.06,4.8-9.84.03-.06.05-.13.08-.19h-27.77v56.23h17.14c-.24-.41-.45-.82-.64-1.21-.39-.78-.8-1.58-1.37-2.33"/>
        <path class="cls-5" d="M72.36,24.58c-2.06,2.63-4.48,5.4-7.03,8.33-7.34,8.41-16.03,18.37-18.31,27.95h9.78c13.82,0,23.21-7.11,23.21-20.19,0-7.35-2.83-12.72-7.66-16.09"/>
        <path class="cls-1" d="M47.33,50.3c.13-.23.26-.46.4-.68.02-.04.05-.08.07-.13.64-1.09,1.33-2.18,2.05-3.26,0-.01.01-.02.02-.03.17-.26.35-.51.52-.77.02-.03.04-.06.07-.09.16-.23.32-.47.49-.7.03-.05.07-.1.1-.15.15-.22.31-.43.47-.65.04-.05.08-.1.11-.16.15-.21.31-.42.46-.63.04-.06.08-.11.13-.17.15-.21.31-.41.46-.62.05-.06.09-.12.13-.18.15-.2.31-.41.46-.61.05-.06.09-.12.14-.18.16-.2.31-.41.47-.61.05-.06.09-.12.14-.18.16-.2.32-.41.48-.61.04-.05.09-.11.13-.16.16-.21.33-.41.49-.62.04-.05.08-.1.12-.16.17-.21.34-.42.51-.62.04-.04.07-.09.11-.13.18-.21.35-.43.53-.64.03-.04.06-.07.09-.11.19-.23.37-.45.56-.67.02-.02.04-.05.06-.07.2-.24.4-.48.6-.71,0,0,.01-.02.02-.03,2.76-3.27,5.56-6.4,8.08-9.35,1.15-1.34,2.24-2.64,3.24-3.9-3.46-1.54-7.6-2.32-12.25-2.32,0,0-6.33,0-6.34,0-.47,1.13-.94,2.27-1.41,3.39-.11.26-.22.53-.33.79-.02.06-.05.11-.07.17-.1.23-.19.45-.29.67-.04.08-.07.17-.11.25-.09.2-.17.4-.26.6-.04.1-.08.19-.13.29-.08.18-.17.37-.25.55-.05.1-.09.2-.14.3-.08.17-.16.34-.24.51-.05.11-.1.21-.15.32-.07.16-.15.31-.23.47-.05.11-.1.22-.16.32-.07.15-.15.29-.22.44-.05.1-.11.21-.16.31-.07.14-.15.28-.22.42-.05.1-.11.2-.16.29-.07.13-.15.26-.23.39-.05.09-.1.18-.16.27-.08.13-.16.25-.24.38-.05.08-.1.16-.14.23-.09.13-.17.25-.26.38-.04.06-.08.12-.12.18-.13.18-.25.34-.38.5-.19.23-.36.43-.54.62-.17.19-.34.36-.5.51-.24.23-.48.42-.7.59-.68.5-1.29.74-1.92.94-.41.13-.81.27-1.22.41-.18.06-.33.11-.47.16-.14.05-.28.09-.43.14-.3.1-.66.22-1.27.44-.4.17-.77.35-1.12.55-.52.29-.98.61-1.38.94-.27.22-.51.46-.72.7-.96,1.08-1.38,2.31-1.26,3.54.01.23.04.46.07.7.07.48.17.99.35,1.56.09.28.19.58.32.89.17.43.34.87.49,1.31.3.88.56,1.77.75,2.68.09.45.17.91.23,1.37.03.23.04.46.07.68.07.68.11,1.36.11,2.04,0,1.11-.27,2.21-.67,3.25-2.23,5.85-.12,10.52,1.42,13.01.22.35.47.68.72,1.02.47.62.84,1.23,1.16,1.81.16.29.31.57.44.84.42.81.77,1.54,1.2,2.08.14.18.3.35.47.49.17.14.35.26.55.35.4.18.76.26,1.2.26h3.16c.12,0,.24-.01.35-.03.14-.02.28-.06.41-.11.13-.05.25-.11.36-.19.02-.01.04-.02.05-.04.04-.03.08-.07.12-.11.03-.03.06-.06.09-.1.03-.03.06-.07.09-.11.05-.07.1-.15.13-.24.01-.03.02-.06.03-.09.03-.07.05-.15.07-.24,0-.03.01-.07.02-.11.02-.12.03-.25.03-.39,0-.12-.01-.22-.03-.32,0-.03-.01-.06-.02-.09-.02-.07-.04-.14-.07-.2,0-.02-.02-.05-.03-.07-.04-.07-.08-.13-.13-.19-.03-.03-.06-.06-.09-.09-.03-.03-.06-.06-.1-.08-.15-.12-.32-.22-.53-.31-.29-.13-.62-.25-1.01-.41-.35-.16-.65-.58-.88-1.19-.07-.21-.15-.42-.21-.63-.09-.28-.17-.55-.24-.83-.02-.09-.04-.18-.07-.27-.05-.18-.09-.37-.13-.55-.02-.11-.04-.22-.07-.33-.03-.17-.07-.33-.1-.5-.02-.12-.04-.24-.06-.36-.02-.16-.05-.31-.07-.47-.02-.12-.03-.24-.04-.37-.02-.15-.04-.31-.05-.46-.01-.12-.02-.25-.03-.37,0-.15-.02-.31-.03-.46,0-.12,0-.25-.01-.38,0-.15,0-.3,0-.45,0-.13,0-.25,0-.38,0-.15,0-.3,0-.45,0-.13.01-.26.02-.38,0-.15.02-.3.03-.45,0-.13.02-.25.03-.38.01-.15.03-.3.04-.45.01-.13.03-.25.05-.38.02-.15.04-.3.06-.45.02-.13.04-.25.06-.38.02-.15.05-.3.08-.45.02-.13.05-.25.07-.38.03-.15.06-.3.09-.45.03-.12.06-.25.08-.37.04-.15.07-.3.11-.46.03-.12.06-.25.1-.37.04-.15.08-.31.12-.46.04-.12.07-.25.11-.37.05-.15.09-.31.14-.46.04-.12.08-.25.12-.37.05-.15.1-.31.16-.46.04-.12.08-.24.13-.36.06-.16.11-.31.17-.47.04-.12.09-.24.13-.35.06-.16.12-.32.19-.48.05-.12.09-.23.14-.35.07-.16.13-.32.2-.48.05-.11.1-.23.15-.34.07-.16.15-.33.22-.49.05-.11.1-.22.15-.33.08-.17.16-.34.24-.51.05-.1.1-.21.15-.31.09-.18.18-.35.27-.53.05-.1.1-.19.15-.29.1-.18.19-.37.29-.55.05-.09.09-.17.14-.26.11-.2.22-.4.34-.61.04-.07.08-.14.11-.2"/>
      </g>
    </g>
    <g>
      <path class="cls-5" d="M110.94,45.82c3.88-.1,7.26.35,11-.21,2.04-.2,4.42-.45,6.51-.63,1.45-.08,2.89-.35,4.21.41,4.19,2.21,5.86,7.5,3.63,11.76-1.32,2.51-4.33,3.76-7.12,3.12-2.19-.31-3.94-1.69-5.83-2.78-3.5-1.75-7.53-.86-11.32-.28-2.73.47-5.98.6-8.32-1.13-1.96-1.42-2.65-4.6-1.36-6.66,1.73-2.8,5.44-3.52,8.52-3.61h.07Z"/>
      <path class="cls-5" d="M110.94,105.87c3.88-.1,7.26.35,11-.21,2.04-.2,4.42-.45,6.51-.63,1.45-.08,2.89-.35,4.21.41,4.19,2.21,5.86,7.5,3.63,11.76-1.32,2.51-4.33,3.76-7.12,3.12-2.19-.31-3.94-1.69-5.83-2.78-3.5-1.75-7.53-.86-11.32-.28-2.73.47-5.98.6-8.32-1.13-1.96-1.42-2.65-4.6-1.36-6.66,1.73-2.8,5.44-3.52,8.52-3.61h.07Z"/>
      <path class="cls-5" d="M110.94,165.93c3.88-.1,7.26.35,11-.21,2.04-.2,4.42-.45,6.51-.63,1.45-.08,2.89-.35,4.21.41,4.19,2.21,5.86,7.5,3.63,11.76-1.32,2.51-4.33,3.76-7.12,3.12-2.19-.31-3.94-1.69-5.83-2.78-3.5-1.75-7.53-.86-11.32-.28-2.73.47-5.98.6-8.32-1.13-1.96-1.42-2.65-4.6-1.36-6.66,1.73-2.8,5.44-3.52,8.52-3.61h.07Z"/>
      <g>
        <path class="cls-3" d="M102.41,65.6c-1.17,2.96-1.02,5.86,1.23,8.29,1.89,2.33,4.55,4.68,7.64,4.29,1.09-.12,1.91-.43,3.02-.83,1.49-.56,3.28-1.22,4.75-2.01,1.5-.76,3.96-2.87,1.69-3.23-2.08-.17-4.86.13-6.91-.28-3.5-.45-3.6-3.32-4.28-6.18-1-4.12-5.78-3.84-7.12-.12l-.03.06Z"/>
        <path class="cls-3" d="M123.49,71.84c1.77,1.35,9,1.77,10.99,1,3.12-1.26,3.97-5.37.79-7.27-2.11-1.12-5.13-1.07-7.25.04-.74.39-1.37.89-2.02,1.45-1.04,1.04-3.91,3.15-2.55,4.75l.04.03Z"/>
      </g>
      <g>
        <path class="cls-3" d="M102.41,125.66c-1.17,2.96-1.02,5.86,1.23,8.29,1.89,2.33,4.55,4.68,7.64,4.29,1.09-.12,1.91-.43,3.02-.83,1.49-.56,3.28-1.22,4.75-2.01,1.5-.76,3.96-2.87,1.69-3.23-2.08-.17-4.86.13-6.91-.28-3.5-.45-3.6-3.32-4.28-6.18-1-4.12-5.78-3.84-7.12-.12l-.03.06Z"/>
        <path class="cls-3" d="M123.49,131.9c1.77,1.35,9,1.77,10.99,1,3.12-1.26,3.97-5.37.79-7.27-2.11-1.12-5.13-1.07-7.25.04-.74.39-1.37.89-2.02,1.45-1.04,1.04-3.91,3.15-2.55,4.75l.04.03Z"/>
      </g>
      <g>
        <path class="cls-3" d="M102.41,185.71c-1.17,2.96-1.02,5.86,1.23,8.29,1.89,2.33,4.55,4.68,7.64,4.29,1.09-.12,1.91-.43,3.02-.83,1.49-.56,3.28-1.22,4.75-2.01,1.5-.76,3.96-2.87,1.69-3.23-2.08-.17-4.86.13-6.91-.28-3.5-.45-3.6-3.32-4.28-6.18-1-4.12-5.78-3.84-7.12-.12l-.03.06Z"/>
        <path class="cls-3" d="M123.49,191.96c1.77,1.35,9,1.77,10.99,1,3.12-1.26,3.97-5.37.79-7.27-2.11-1.12-5.13-1.07-7.25.04-.74.39-1.37.89-2.02,1.45-1.04,1.04-3.91,3.15-2.55,4.75l.04.03Z"/>
      </g>
      <path class="cls-2" d="M128.85,22.61c1.16-1.84,3.52-2.46,5.6-2.12,2,.36,3.78,2.25,2.26,4.17-.98,1.25-2.7.93-4.09,1.06-1.01-.02-1.66.8-2.48,1.25-2.07.81-2.02-3.2-1.31-4.32l.02-.03Z"/>
      <path class="cls-2" d="M131.45,34.54c.98-.3,2.02.13,2.77.68,1.19.84,2.01,2.31,1.34,3.63-.56,1.34-2.16,1.86-3.6,1.3-.92-.37-1.45-1.12-1.78-1.94-.53-1.31-.54-3.11,1.23-3.66h.05Z"/>
      <path class="cls-2" d="M128.85,82.67c1.16-1.84,3.52-2.46,5.6-2.12,2,.36,3.78,2.25,2.26,4.17-.98,1.25-2.7.93-4.09,1.06-1.01-.02-1.66.8-2.48,1.25-2.07.81-2.02-3.2-1.31-4.32l.02-.03Z"/>
      <path class="cls-2" d="M131.45,94.59c.98-.3,2.02.13,2.77.68,1.19.84,2.01,2.31,1.34,3.63-.56,1.34-2.16,1.86-3.6,1.3-.92-.37-1.45-1.12-1.78-1.94-.53-1.31-.54-3.11,1.23-3.66h.05Z"/>
      <path class="cls-2" d="M128.85,142.72c1.16-1.84,3.52-2.46,5.6-2.12,2,.36,3.78,2.25,2.26,4.17-.98,1.25-2.7.93-4.09,1.06-1.01-.02-1.66.8-2.48,1.25-2.07.81-2.02-3.2-1.31-4.32l.02-.03Z"/>
      <path class="cls-2" d="M131.45,154.65c.98-.3,2.02.13,2.77.68,1.19.84,2.01,2.31,1.34,3.63-.56,1.34-2.16,1.86-3.6,1.3-.92-.37-1.45-1.12-1.78-1.94-.53-1.31-.54-3.11,1.23-3.66h.05Z"/>
      <path class="cls-2" d="M128.85,202.78c1.16-1.84,3.52-2.46,5.6-2.12,2,.36,3.78,2.25,2.26,4.17-.98,1.25-2.7.93-4.09,1.06-1.01-.02-1.66.8-2.48,1.25-2.07.81-2.02-3.2-1.31-4.32l.02-.03Z"/>
      <path class="cls-2" d="M131.45,214.71c.98-.3,2.02.13,2.77.68,1.19.84,2.01,2.31,1.34,3.63-.56,1.34-2.16,1.86-3.6,1.3-.92-.37-1.45-1.12-1.78-1.94-.53-1.31-.54-3.11,1.23-3.66h.05Z"/>
      <path class="cls-1" d="M113.34,28.8c1.85.17,3.68.5,5.56.49.94-.03,1.75.03,2.54-.45,2.47-1.56,3.37-5.37,1.48-7.63-.71-.87-1.9-1.08-2.85-.43-.69.51-.9,1.4-.97,2.17-.08.71.16,1.4-.12,2.09-.34.78-1.02,1.28-1.84,1.59-2.37.95-4.78-.48-6.61-1.79-1.52-1-3.06-2.09-4.84-2.61-2.63-.79-4.85,1.41-3.67,3.83.7,1.61,2.5,2.33,4.28,2.5.71.08,1.31.06,1.96.05,1.55,0,3.45.06,5.03.18h.04Z"/>
      <path class="cls-1" d="M113.34,32.01c1.85-.17,3.68-.5,5.56-.49.94.03,1.75-.03,2.54.45,2.47,1.56,3.37,5.37,1.48,7.63-.71.87-1.9,1.08-2.85.43-.69-.51-.9-1.4-.97-2.17-.08-.71.16-1.4-.12-2.09-.34-.78-1.02-1.28-1.84-1.59-2.37-.95-4.78.48-6.61,1.79-1.52,1-3.06,2.09-4.84,2.61-2.63.79-4.85-1.41-3.67-3.83.7-1.61,2.5-2.33,4.28-2.5.71-.08,1.31-.06,1.96-.05,1.55,0,3.45-.06,5.03-.18h.04Z"/>
      <path class="cls-1" d="M113.34,88.85c1.85.17,3.68.5,5.56.49.94-.03,1.75.03,2.54-.45,2.47-1.56,3.37-5.37,1.48-7.63-.71-.87-1.9-1.08-2.85-.43-.69.51-.9,1.4-.97,2.17-.08.71.16,1.4-.12,2.09-.34.78-1.02,1.28-1.84,1.59-2.37.95-4.78-.48-6.61-1.79-1.52-1-3.06-2.09-4.84-2.61-2.63-.79-4.85,1.41-3.67,3.83.7,1.61,2.5,2.33,4.28,2.5.71.08,1.31.06,1.96.05,1.55,0,3.45.06,5.03.18h.04Z"/>
      <path class="cls-1" d="M113.34,92.07c1.85-.17,3.68-.5,5.56-.49.94.03,1.75-.03,2.54.45,2.47,1.56,3.37,5.37,1.48,7.63-.71.87-1.9,1.08-2.85.43-.69-.51-.9-1.4-.97-2.17-.08-.71.16-1.4-.12-2.09-.34-.78-1.02-1.28-1.84-1.59-2.37-.95-4.78.48-6.61,1.79-1.52,1-3.06,2.09-4.84,2.61-2.63.79-4.85-1.41-3.67-3.83.7-1.61,2.5-2.33,4.28-2.5.71-.08,1.31-.06,1.96-.05,1.55,0,3.45-.06,5.03-.18h.04Z"/>
      <path class="cls-1" d="M113.34,148.91c1.85.17,3.68.5,5.56.49.94-.03,1.75.03,2.54-.45,2.47-1.56,3.37-5.37,1.48-7.63-.71-.87-1.9-1.08-2.85-.43-.69.51-.9,1.4-.97,2.17-.08.71.16,1.4-.12,2.09-.34.78-1.02,1.28-1.84,1.59-2.37.95-4.78-.48-6.61-1.79-1.52-1-3.06-2.09-4.84-2.61-2.63-.79-4.85,1.41-3.67,3.83.7,1.61,2.5,2.33,4.28,2.5.71.08,1.31.06,1.96.05,1.55,0,3.45.06,5.03.18h.04Z"/>
      <path class="cls-1" d="M113.34,152.13c1.85-.17,3.68-.5,5.56-.49.94.03,1.75-.03,2.54.45,2.47,1.56,3.37,5.37,1.48,7.63-.71.87-1.9,1.08-2.85.43-.69-.51-.9-1.4-.97-2.17-.08-.71.16-1.4-.12-2.09-.34-.78-1.02-1.28-1.84-1.59-2.37-.95-4.78.48-6.61,1.79-1.52,1-3.06,2.09-4.84,2.61-2.63.79-4.85-1.41-3.67-3.83.7-1.61,2.5-2.33,4.28-2.5.71-.08,1.31-.06,1.96-.05,1.55,0,3.45-.06,5.03-.18h.04Z"/>
      <path class="cls-1" d="M113.34,208.96c1.85.17,3.68.5,5.56.49.94-.03,1.75.03,2.54-.45,2.47-1.56,3.37-5.37,1.48-7.63-.71-.87-1.9-1.08-2.85-.43-.69.51-.9,1.4-.97,2.17-.08.71.16,1.4-.12,2.09-.34.78-1.02,1.28-1.84,1.59-2.37.95-4.78-.48-6.61-1.79-1.52-1-3.06-2.09-4.84-2.61-2.63-.79-4.85,1.41-3.67,3.83.7,1.61,2.5,2.33,4.28,2.5.71.08,1.31.06,1.96.05,1.55,0,3.45.06,5.03.18h.04Z"/>
      <path class="cls-1" d="M113.34,212.18c1.85-.17,3.68-.5,5.56-.49.94.03,1.75-.03,2.54.45,2.47,1.56,3.37,5.37,1.48,7.63-.71.87-1.9,1.08-2.85.43-.69-.51-.9-1.4-.97-2.17-.08-.71.16-1.4-.12-2.09-.34-.78-1.02-1.28-1.84-1.59-2.37-.95-4.78.48-6.61,1.79-1.52,1-3.06,2.09-4.84,2.61-2.63.79-4.85-1.41-3.67-3.83.7-1.61,2.5-2.33,4.28-2.5.71-.08,1.31-.06,1.96-.05,1.55,0,3.45-.06,5.03-.18h.04Z"/>
    </g>
    <g>
      <path class="cls-2" d="M23.77,188.42c0,1.3-1.03,2.24-2.45,2.24-1.86,0-2.69-1.4-2.69-3.29,0-2.03,1.19-3.51,2.9-3.51.81,0,1.43.29,1.96.74l-.58.91c-.4-.35-.8-.59-1.39-.59-.93,0-1.59.89-1.66,2.18.4-.47,1.03-.75,1.7-.75,1.2,0,2.21.76,2.21,2.07ZM22.55,188.47c0-.72-.59-1.15-1.31-1.15-.63,0-1.14.35-1.33.91.14.87.55,1.41,1.35,1.41s1.29-.57,1.29-1.17Z"/>
      <path class="cls-2" d="M29.87,187.15c0,2.03-1.19,3.51-2.9,3.51-.81,0-1.43-.29-1.96-.74l.58-.91c.4.35.8.59,1.39.59.93,0,1.59-.89,1.66-2.18-.4.47-1.03.75-1.7.75-1.2,0-2.21-.76-2.21-2.07s1.03-2.24,2.45-2.24c1.86,0,2.69,1.4,2.69,3.29ZM28.58,186.29c-.14-.87-.55-1.41-1.35-1.41s-1.29.57-1.29,1.18c0,.72.59,1.15,1.31,1.15.63,0,1.14-.35,1.33-.91Z"/>
      <path class="cls-2" d="M35.93,188.42c0,1.3-1.03,2.24-2.45,2.24-1.86,0-2.69-1.4-2.69-3.29,0-2.03,1.19-3.51,2.9-3.51.81,0,1.43.29,1.96.74l-.58.91c-.4-.35-.8-.59-1.39-.59-.93,0-1.59.89-1.66,2.18.4-.47,1.03-.75,1.7-.75,1.2,0,2.21.76,2.21,2.07ZM34.71,188.47c0-.72-.59-1.15-1.31-1.15-.63,0-1.14.35-1.33.91.14.87.55,1.41,1.35,1.41s1.29-.57,1.29-1.17Z"/>
      <path class="cls-2" d="M42.75,189.12h-3.24l-.11-.93,3.12-4.21h1.42v4.12h.91v1.02h-.91v1.42h-1.19v-1.42ZM42.75,188.1v-2.82l-2.08,2.82h2.08Z"/>
      <path class="cls-2" d="M45.64,189.65l.71-.85c.51.5,1.11.83,1.77.83.8,0,1.31-.52,1.31-1.16s-.53-1.12-1.31-1.12c-.52,0-.96.17-1.34.46l-.81-.34.1-3.49h4.2v1.09h-3.09l-.06,1.69c.33-.23.76-.4,1.33-.4,1.17,0,2.17.75,2.17,2.06s-1.02,2.24-2.52,2.24c-1.07,0-1.87-.4-2.46-1.01Z"/>
      <path class="cls-2" d="M54.24,187.26c0-1.99,1.19-3.39,2.89-3.39s2.87,1.41,2.87,3.39-1.18,3.4-2.87,3.4-2.89-1.41-2.89-3.4ZM58.78,187.26c0-1.36-.69-2.3-1.65-2.3s-1.66.95-1.66,2.3.69,2.31,1.66,2.31,1.65-.96,1.65-2.31Z"/>
      <path class="cls-2" d="M60.87,188.8c0-.79.57-1.37,1.34-1.64-.68-.29-1.17-.77-1.17-1.52,0-1.13,1.15-1.77,2.38-1.77s2.39.66,2.39,1.77c0,.76-.51,1.25-1.17,1.52.77.3,1.34.87,1.34,1.64,0,1.18-1.15,1.86-2.56,1.86s-2.55-.7-2.55-1.86ZM64.78,188.68c0-.61-.75-.97-1.36-1-.6.03-1.36.39-1.36,1,0,.57.58.96,1.36.96s1.36-.38,1.36-.96ZM64.64,185.79c0-.52-.53-.91-1.21-.91s-1.2.39-1.2.91c0,.58.66.91,1.2.94.56-.03,1.21-.36,1.21-.94Z"/>
      <path class="cls-2" d="M69.51,189.57l2.42-1.93c.83-.67,1.13-1.17,1.13-1.7,0-.62-.53-1-1.12-1-.69,0-1.18.35-1.66.93l-.77-.72c.62-.81,1.41-1.28,2.47-1.28,1.3,0,2.29.83,2.29,2.05,0,.87-.4,1.57-1.53,2.44l-1.38,1.11h2.97v1.09h-4.83v-.97Z"/>
      <path class="cls-2" d="M78.69,185.07h-3.35v-1.09h4.74v.9l-2.71,5.67h-1.35l2.68-5.48Z"/>
    </g>
    <g>
      <path class="cls-2" d="M18.63,207.11c0-1.5,1.26-2.76,2.73-2.76.74,0,1.42.31,1.92.82l-.41.42c-.39-.41-.92-.68-1.51-.68-1.15,0-2.12,1.01-2.12,2.2s.97,2.21,2.12,2.21c.58,0,1.12-.26,1.51-.68l.41.42c-.5.5-1.18.82-1.92.82-1.47,0-2.73-1.27-2.73-2.76Z"/>
      <path class="cls-2" d="M26.11,204.01h.66l-2.72,6.34h-.66l2.73-6.34Z"/>
      <path class="cls-2" d="M29.71,204.44h1.8c1.69,0,2.89,1.1,2.89,2.66s-1.2,2.67-2.89,2.67h-1.8v-5.33ZM31.51,209.23c1.34,0,2.27-.88,2.27-2.12s-.94-2.11-2.27-2.11h-1.2v4.23h1.2Z"/>
      <path class="cls-2" d="M37.68,205.67v.52c-.91,0-1.55.56-1.55,1.34v2.24h-.58v-4.01h.58v.78c.24-.54.82-.88,1.55-.88Z"/>
      <path class="cls-2" d="M38.47,209.44c0-.22.19-.41.43-.41.23,0,.41.19.41.41,0,.23-.19.43-.41.43-.24,0-.43-.19-.43-.43Z"/>
      <path class="cls-2" d="M43.35,205.02v1.75h2.9v.57h-2.9v2.43h-.61v-5.33h3.83v.57h-3.21Z"/>
      <path class="cls-2" d="M47.44,204.35h.58v5.43h-.58v-5.43Z"/>
      <path class="cls-2" d="M52.28,208.87l.36.38c-.35.38-1.06.62-1.61.62-1.07,0-2.03-.88-2.03-2.11s.9-2.09,1.98-2.09c1.21,0,1.9.92,1.9,2.32h-3.28c.09.78.64,1.36,1.43,1.36.47,0,1.02-.21,1.27-.48ZM49.59,207.47h2.7c-.08-.72-.5-1.28-1.3-1.28-.71,0-1.29.5-1.4,1.28Z"/>
      <path class="cls-2" d="M59.59,207.22v2.55h-.58v-2.48c0-.65-.38-1.11-.92-1.11-.64,0-1.09.43-1.09,1.03v2.55h-.58v-2.48c0-.65-.38-1.11-.92-1.11-.64,0-1.09.43-1.09,1.03v2.55h-.58v-4.01h.58v.59c.2-.42.64-.68,1.16-.68.61,0,1.08.33,1.3.85.16-.52.69-.85,1.3-.85.84,0,1.43.64,1.43,1.55Z"/>
      <path class="cls-2" d="M60.68,204.64c0-.2.17-.38.39-.38s.38.18.38.38-.17.39-.38.39-.39-.18-.39-.39ZM60.77,205.76h.58v4.01h-.58v-4.01Z"/>
      <path class="cls-2" d="M65.94,207.22v2.55h-.58v-2.48c0-.65-.41-1.11-1-1.11-.68,0-1.24.47-1.24,1.03v2.55h-.58v-4.01h.58v.64c.23-.43.75-.74,1.32-.74.88,0,1.51.64,1.51,1.55Z"/>
      <path class="cls-2" d="M70.83,205.76v3.59c0,1.03-.82,1.76-1.97,1.76-.65,0-1.26-.23-1.62-.54l.26-.46c.31.3.79.47,1.29.47.92,0,1.47-.46,1.47-1.24v-.65c-.31.49-.82.78-1.46.78-1.08,0-1.85-.79-1.85-1.91s.77-1.9,1.85-1.9c.64,0,1.15.3,1.46.78v-.69h.58ZM70.24,207.57c0-.81-.56-1.38-1.35-1.38s-1.34.57-1.34,1.38.56,1.39,1.34,1.39,1.35-.57,1.35-1.39Z"/>
      <path class="cls-2" d="M72.09,210.59c.21-.24.34-.48.4-.72-.23,0-.42-.19-.42-.43,0-.22.18-.41.43-.41.3,0,.47.26.47.62,0,.31-.13.57-.6,1.16l-.29-.22Z"/>
      <path class="cls-2" d="M76.18,208.38c0-.67.53-1.15,1.18-1.36-.61-.23-1.04-.64-1.04-1.26,0-.89.88-1.41,1.81-1.41s1.82.54,1.82,1.42c0,.65-.49,1.05-1.04,1.25.64.22,1.17.69,1.17,1.36,0,.91-.85,1.49-1.95,1.49s-1.95-.59-1.95-1.49ZM79.47,208.34c0-.64-.78-1.02-1.33-1.03-.55.02-1.34.39-1.34,1.03,0,.58.6.98,1.34.98s1.33-.4,1.33-.98ZM79.33,205.83c0-.54-.54-.92-1.2-.92s-1.2.39-1.2.92c0,.62.69.92,1.2.96.52-.03,1.2-.35,1.2-.96Z"/>
    </g>
    <g>
      <path class="cls-2" d="M21.37,219.08h-2.66l-.08-.5,2.65-3.53h.7v3.49h.8v.55h-.8v1.3h-.61v-1.3ZM21.37,218.53v-2.76l-2.05,2.76h2.05Z"/>
      <path class="cls-2" d="M27.53,218.71c0,.99-.77,1.76-1.88,1.76-1.44,0-2.03-1.17-2.03-2.68,0-1.59.95-2.84,2.16-2.84.65,0,1.12.26,1.51.64l-.33.47c-.33-.33-.68-.56-1.2-.56-.85,0-1.53,1.01-1.53,2.29v.07c.33-.51.88-.82,1.51-.82.97,0,1.79.61,1.79,1.66ZM26.91,218.74c0-.73-.57-1.17-1.28-1.17-.68,0-1.2.4-1.33.99.16.81.59,1.39,1.34,1.39.8,0,1.27-.62,1.27-1.21Z"/>
      <path class="cls-2" d="M32.37,217.63c0,1.59-.95,2.84-2.16,2.84-.65,0-1.12-.26-1.51-.64l.33-.47c.33.33.68.56,1.2.56.85,0,1.53-1.01,1.53-2.29v-.07c-.33.51-.88.82-1.51.82-.97,0-1.79-.61-1.79-1.66,0-.99.77-1.76,1.88-1.76,1.44,0,2.03,1.17,2.03,2.68ZM31.68,216.86c-.16-.81-.59-1.39-1.33-1.39-.8,0-1.27.62-1.27,1.21,0,.73.57,1.17,1.28,1.17.68,0,1.2-.4,1.33-.99Z"/>
      <path class="cls-2" d="M37.21,218.71c0,.99-.77,1.76-1.88,1.76-1.44,0-2.03-1.17-2.03-2.68,0-1.59.95-2.84,2.16-2.84.65,0,1.12.26,1.51.64l-.33.47c-.33-.33-.68-.56-1.2-.56-.85,0-1.53,1.01-1.53,2.29v.07c.33-.51.88-.82,1.51-.82.97,0,1.79.61,1.79,1.66ZM36.59,218.74c0-.73-.57-1.17-1.28-1.17-.68,0-1.2.4-1.33.99.16.81.59,1.39,1.34,1.39.8,0,1.27-.62,1.27-1.21Z"/>
      <path class="cls-2" d="M38.13,217.7c0-1.61.92-2.76,2.22-2.76s2.21,1.14,2.21,2.76-.92,2.76-2.21,2.76-2.22-1.14-2.22-2.76ZM41.95,217.7c0-1.29-.66-2.2-1.6-2.2s-1.61.91-1.61,2.2.67,2.21,1.61,2.21,1.6-.92,1.6-2.21Z"/>
      <path class="cls-2" d="M43.64,221.19c.21-.24.34-.48.4-.72-.23,0-.42-.19-.42-.43,0-.22.18-.41.43-.41.3,0,.47.26.47.62,0,.31-.13.57-.6,1.16l-.29-.22Z"/>
      <path class="cls-2" d="M51.75,219.16h-2.97l-.54,1.21h-.66l2.35-5.33h.66l2.35,5.33h-.66l-.54-1.21ZM51.5,218.59l-1.23-2.8-1.24,2.8h2.48Z"/>
      <path class="cls-2" d="M53.79,214.95h.58v5.43h-.58v-5.43Z"/>
      <path class="cls-2" d="M59.27,214.95v5.43h-.58v-.75c-.3.53-.82.85-1.46.85-1.06,0-1.85-.87-1.85-2.1s.79-2.1,1.85-2.1c.64,0,1.16.32,1.46.85v-2.17h.58ZM58.69,218.36c0-.92-.56-1.58-1.35-1.58s-1.34.65-1.34,1.58.56,1.58,1.34,1.58,1.35-.66,1.35-1.58Z"/>
      <path class="cls-2" d="M63.77,217.93v2.45h-.58v-.63c-.29.47-.89.72-1.41.72-.85,0-1.47-.49-1.47-1.28s.71-1.34,1.58-1.34c.43,0,.89.09,1.3.23v-.15c0-.54-.22-1.16-1.09-1.16-.4,0-.81.18-1.17.37l-.23-.47c.57-.29,1.06-.39,1.44-.39,1.09,0,1.63.69,1.63,1.66ZM63.18,219.12v-.61c-.37-.1-.78-.16-1.21-.16-.6,0-1.1.34-1.1.82s.43.79,1,.79c.53,0,1.16-.27,1.31-.84Z"/>
      <path class="cls-2" d="M64.86,215.24c0-.2.17-.38.39-.38s.38.18.38.38-.17.39-.38.39-.39-.18-.39-.39ZM64.95,216.36h.58v4.01h-.58v-4.01Z"/>
      <path class="cls-2" d="M69.96,217.93v2.45h-.58v-.63c-.29.47-.89.72-1.41.72-.85,0-1.47-.49-1.47-1.28s.71-1.34,1.58-1.34c.43,0,.89.09,1.3.23v-.15c0-.54-.22-1.16-1.09-1.16-.4,0-.81.18-1.17.37l-.23-.47c.57-.29,1.06-.39,1.44-.39,1.09,0,1.63.69,1.63,1.66ZM69.38,219.12v-.61c-.37-.1-.78-.16-1.21-.16-.6,0-1.1.34-1.1.82s.43.79,1,.79c.53,0,1.16-.27,1.31-.84Z"/>
    </g>
  </g>
</svg>