<svg width="654" height="427" viewBox="0 0 654 427" fill="none" xmlns="http://www.w3.org/2000/svg">
<g clip-path="url(#clip0_161_330)">
<path d="M46.6013 132.79C47.5589 122.539 49.4027 112.363 49.3042 101.96C49.1455 96.7731 49.4628 92.2273 46.8257 87.8621C38.1485 74.178 17.0297 69.1426 4.49542 79.668C-0.335583 83.6193 -1.47914 90.205 2.13735 95.491C4.98229 99.32 9.92833 100.509 14.1629 100.888C18.1132 101.354 21.9265 99.9786 25.7728 101.546C30.0895 103.423 32.8907 107.188 34.6031 111.757C39.85 124.928 31.9552 138.298 24.6511 148.415C19.0869 156.866 13.0686 165.375 10.1526 175.247C5.75919 189.84 17.9981 202.167 31.4244 195.581C40.3753 191.7 44.3364 181.699 45.2774 171.82C45.7261 167.904 45.5892 164.57 45.5728 160.939C45.5509 152.332 45.8955 141.789 46.5849 133.012L46.6013 132.79Z" fill="#C2D98A"/>
<path d="M141.013 146.082C140.435 124.557 142.941 105.812 139.844 85.0949C138.734 73.7913 137.332 60.5681 136.36 48.997C135.936 40.9561 134.42 32.9627 138.639 25.635C150.876 2.36808 180.261 -6.8615 203.9 5.5C217.814 12.7981 224.753 29.5099 221.203 44.9795C219.484 57.139 211.823 66.832 205.779 77.3096C196.066 96.6957 200.994 119.065 204.24 140.074C206.847 155.193 207.557 173.26 197.987 186.21C190.099 197.067 172.492 200.924 161.043 193.745C145.494 184.177 141.515 163.567 141.025 146.474L141.013 146.082Z" fill="#799F90"/>
<path d="M250.786 193.401C267.197 199.894 283.285 199.061 296.797 186.6C309.743 176.134 322.735 161.383 320.606 144.215C319.938 138.165 318.206 133.633 316.004 127.452C312.913 119.2 309.245 109.238 304.852 101.084C300.612 92.7876 288.906 79.1267 286.953 91.73C286.019 103.281 287.655 118.707 285.373 130.066C282.86 149.486 266.942 150.062 251.114 153.788C228.267 159.35 229.785 185.855 250.429 193.258L250.786 193.401Z" fill="#BEA7D0"/>
<path d="M285.407 76.4937C292.919 66.6741 295.245 26.5954 290.943 15.5099C283.952 -1.7896 261.173 -6.51312 250.587 11.1481C244.389 22.8473 244.672 39.5988 250.808 51.3637C252.982 55.49 255.744 58.986 258.875 62.5424C264.671 68.2906 276.367 84.2147 285.214 76.6965L285.407 76.4937Z" fill="#BEA7D0"/>
<path d="M12.2826 46.7637C2.08099 40.317 -1.36537 27.2666 0.495488 15.7178C2.49987 4.6032 12.9529 -5.26899 23.6212 3.16795C30.5738 8.58955 28.7907 18.1301 29.5089 25.8674C29.413 31.4519 33.9544 35.1004 36.4315 39.6174C40.949 51.1058 18.6848 50.8405 12.4741 46.8723L12.2826 46.7637Z" fill="#173F35"/>
<path d="M78.4582 32.3325C76.7684 26.8961 79.2056 21.1392 82.2565 16.985C86.908 10.367 95.0621 5.85449 102.374 9.55628C109.797 12.6484 112.681 21.5603 109.574 29.4981C107.511 34.5762 103.344 37.5175 98.8324 39.3903C91.5819 42.338 81.5704 42.3946 78.5363 32.5901L78.4582 32.3325Z" fill="#173F35"/>
<path d="M64.4488 132.79C63.4913 122.539 61.6475 112.363 61.746 101.96C61.9046 96.7731 61.5874 92.2273 64.2244 87.8621C72.9017 74.178 94.0204 69.1426 106.555 79.668C111.386 83.6193 112.529 90.205 108.913 95.491C106.068 99.32 101.122 100.509 96.8872 100.888C92.937 101.354 89.1236 99.9786 85.2774 101.546C80.9606 103.423 78.1594 107.188 76.447 111.757C71.2001 124.928 79.0949 138.298 86.399 148.415C91.9632 156.866 97.9815 165.375 100.898 175.247C105.291 189.84 93.052 202.167 79.6257 195.581C70.6748 191.7 66.7137 181.699 65.7727 171.82C65.3241 167.904 65.461 164.57 65.4773 160.939C65.4992 152.332 65.1546 141.789 64.4652 133.012L64.4488 132.79Z" fill="#C2D98A"/>
<path d="M379.763 132.79C380.721 122.539 382.565 112.363 382.466 101.96C382.308 96.7731 382.625 92.2273 379.988 87.8621C371.311 74.178 350.192 69.1426 337.658 79.668C332.827 83.6193 331.683 90.205 335.299 95.491C338.144 99.32 343.09 100.509 347.325 100.888C351.275 101.354 355.089 99.9786 358.935 101.546C363.252 103.423 366.053 107.188 367.765 111.757C373.012 124.928 365.117 138.298 357.813 148.415C352.249 156.866 346.231 165.375 343.315 175.247C338.921 189.84 351.16 202.167 364.586 195.581C373.537 191.7 377.499 181.699 378.44 171.82C378.888 167.904 378.751 164.57 378.735 160.939C378.713 152.332 379.058 141.789 379.747 133.012L379.763 132.79Z" fill="#C2D98A"/>
<path d="M474.177 146.082C473.599 124.557 476.105 105.812 473.008 85.0949C471.898 73.7913 470.496 60.5681 469.524 48.997C469.1 40.9561 467.585 32.9627 471.803 25.635C484.04 2.36808 513.425 -6.8615 537.064 5.5C550.978 12.7981 557.917 29.5099 554.367 44.9795C552.648 57.139 544.987 66.832 538.943 77.3096C529.23 96.6957 534.158 119.065 537.404 140.074C540.011 155.193 540.721 173.26 531.151 186.21C523.264 197.067 505.656 200.924 494.207 193.745C478.658 184.177 474.679 163.567 474.189 146.474L474.177 146.082Z" fill="#799F90"/>
<path d="M583.95 193.401C600.361 199.894 616.449 199.061 629.961 186.6C642.907 176.134 655.899 161.383 653.77 144.215C653.102 138.165 651.37 133.633 649.168 127.452C646.077 119.2 642.409 109.238 638.016 101.084C633.776 92.7876 622.07 79.1267 620.117 91.73C619.183 103.281 620.819 118.707 618.537 130.066C616.024 149.486 600.106 150.062 584.278 153.788C561.431 159.35 562.949 185.855 583.593 193.258L583.95 193.401Z" fill="#BEA7D0"/>
<path d="M618.571 76.4937C626.083 66.6741 628.409 26.5954 624.107 15.5099C617.116 -1.7896 594.337 -6.51312 583.752 11.1481C577.553 22.8473 577.836 39.5988 583.972 51.3637C586.146 55.49 588.908 58.986 592.039 62.5424C597.836 68.2906 609.531 84.2147 618.379 76.6965L618.571 76.4937Z" fill="#BEA7D0"/>
<path d="M345.445 46.7637C335.243 40.317 331.797 27.2666 333.658 15.7178C335.662 4.6032 346.115 -5.26899 356.783 3.16795C363.736 8.58955 361.953 18.1301 362.671 25.8674C362.575 31.4519 367.117 35.1004 369.594 39.6174C374.111 51.1058 351.847 50.8405 345.636 46.8723L345.445 46.7637Z" fill="#173F35"/>
<path d="M411.62 32.3325C409.93 26.8961 412.368 21.1392 415.419 16.985C420.07 10.367 428.224 5.85449 435.536 9.55628C442.96 12.6484 445.843 21.5603 442.736 29.4981C440.673 34.5762 436.507 37.5175 431.994 39.3903C424.744 42.338 414.733 42.3946 411.698 32.5901L411.62 32.3325Z" fill="#173F35"/>
<path d="M397.611 132.79C396.653 122.539 394.81 112.363 394.908 101.96C395.067 96.7731 394.749 92.2273 397.387 87.8621C406.064 74.178 427.183 69.1426 439.717 79.668C444.548 83.6193 445.691 90.205 442.075 95.491C439.23 99.32 434.284 100.509 430.049 100.888C426.099 101.354 422.286 99.9786 418.439 101.546C414.123 103.423 411.322 107.188 409.609 111.757C404.362 124.928 412.257 138.298 419.561 148.415C425.125 156.866 431.144 165.375 434.06 175.247C438.453 189.84 426.214 202.167 412.788 195.581C403.837 191.7 399.876 181.699 398.935 171.82C398.486 167.904 398.623 164.57 398.639 160.939C398.661 152.332 398.317 141.789 397.627 133.012L397.611 132.79Z" fill="#C2D98A"/>
<path d="M607.398 294.209C606.441 304.461 604.597 314.636 604.695 325.039C604.854 330.226 604.537 334.772 607.174 339.137C615.851 352.822 636.97 357.857 649.504 347.332C654.335 343.38 655.479 336.795 651.862 331.509C649.017 327.68 644.071 326.491 639.836 326.112C635.886 325.646 632.073 327.021 628.227 325.453C623.91 323.577 621.109 319.812 619.396 315.243C614.149 302.071 622.044 288.702 629.348 278.584C634.912 270.134 640.931 261.625 643.847 251.752C648.24 237.159 636.001 224.833 622.575 231.418C613.624 235.3 609.663 245.301 608.722 255.179C608.273 259.096 608.41 262.429 608.427 266.06C608.448 274.668 608.104 285.211 607.414 293.988L607.398 294.209Z" fill="#C2D98A"/>
<path d="M512.985 280.917C513.564 302.443 511.058 321.187 514.155 341.905C515.264 353.208 516.666 366.431 517.639 378.002C518.063 386.043 519.578 394.037 515.36 401.364C503.123 424.631 473.738 433.861 450.099 421.499C436.185 414.201 429.246 397.49 432.796 382.02C434.514 369.861 442.175 360.167 448.219 349.69C457.933 330.304 453.004 307.934 449.759 286.926C447.151 271.807 446.441 253.74 456.011 240.79C463.899 229.932 481.506 226.075 492.956 233.254C508.504 242.822 512.484 263.433 512.973 280.525L512.985 280.917Z" fill="#799F90"/>
<path d="M403.213 233.599C386.802 227.106 370.714 227.939 357.202 240.399C344.255 250.866 331.264 265.617 333.392 282.785C334.06 288.835 335.793 293.366 337.995 299.548C341.085 307.8 344.754 317.762 349.146 325.916C353.386 334.212 365.093 347.873 367.046 335.27C367.98 323.719 366.344 308.293 368.625 296.934C371.139 277.514 387.057 276.938 402.884 273.212C425.731 267.65 424.214 241.145 403.569 233.742L403.213 233.599Z" fill="#BEA7D0"/>
<path d="M368.593 350.506C361.081 360.325 358.754 400.404 363.056 411.489C370.048 428.789 392.827 433.512 403.412 415.851C409.611 404.152 409.328 387.4 403.191 375.636C401.018 371.509 398.255 368.013 395.125 364.457C389.328 358.709 377.633 342.785 368.785 350.303L368.593 350.506Z" fill="#BEA7D0"/>
<path d="M641.718 380.236C651.919 386.683 655.366 399.733 653.505 411.282C651.501 422.396 641.048 432.269 630.379 423.832C623.427 418.41 625.21 408.87 624.492 401.132C624.587 395.548 620.046 391.899 617.569 387.382C613.051 375.894 635.316 376.159 641.526 380.127L641.718 380.236Z" fill="#173F35"/>
<path d="M575.542 394.667C577.232 400.104 574.795 405.86 571.744 410.015C567.093 416.633 558.939 421.145 551.627 417.443C544.203 414.351 541.32 405.439 544.426 397.502C546.49 392.424 550.656 389.482 555.168 387.609C562.419 384.662 572.43 384.605 575.464 394.41L575.542 394.667Z" fill="#173F35"/>
<path d="M589.551 294.209C590.508 304.461 592.352 314.636 592.253 325.039C592.095 330.226 592.412 334.772 589.775 339.137C581.098 352.822 559.979 357.857 547.445 347.332C542.614 343.38 541.47 336.795 545.087 331.509C547.932 327.68 552.878 326.491 557.112 326.112C561.062 325.646 564.876 327.021 568.722 325.453C573.039 323.577 575.84 319.812 577.552 315.243C582.799 302.071 574.904 288.702 567.6 278.584C562.036 270.134 556.018 261.625 553.102 251.752C548.708 237.159 560.947 224.833 574.374 231.418C583.324 235.3 587.286 245.301 588.227 255.179C588.675 259.096 588.538 262.429 588.522 266.06C588.5 274.668 588.845 285.211 589.534 293.988L589.551 294.209Z" fill="#C2D98A"/>
<path d="M274.236 294.209C273.278 304.461 271.435 314.636 271.533 325.039C271.692 330.226 271.374 334.772 274.012 339.137C282.689 352.822 303.808 357.857 316.342 347.332C321.173 343.38 322.316 336.795 318.7 331.509C315.855 327.68 310.909 326.491 306.674 326.112C302.724 325.646 298.911 327.021 295.064 325.453C290.748 323.577 287.947 319.812 286.234 315.243C280.987 302.071 288.882 288.702 296.186 278.584C301.75 270.134 307.769 261.625 310.685 251.752C315.078 237.159 302.839 224.833 289.413 231.418C280.462 235.3 276.501 245.301 275.56 255.179C275.111 259.096 275.248 262.429 275.264 266.06C275.286 274.668 274.942 285.211 274.252 293.988L274.236 294.209Z" fill="#C2D98A"/>
<path d="M179.823 280.918C180.402 302.444 177.896 321.188 180.993 341.906C182.102 353.209 183.504 366.432 184.477 378.003C184.901 386.044 186.416 394.038 182.198 401.365C169.96 424.632 140.576 433.862 116.937 421.5C103.023 414.202 96.0837 397.491 99.6338 382.021C101.352 369.861 109.013 360.168 115.057 349.691C124.77 330.305 119.842 307.935 116.596 286.927C113.989 271.808 113.279 253.741 122.849 240.791C130.737 229.933 148.344 226.076 159.794 233.255C175.342 242.823 179.322 263.434 179.811 280.526L179.823 280.918Z" fill="#799F90"/>
<path d="M70.0505 233.6C53.6398 227.107 37.5518 227.94 24.0395 240.4C11.0933 250.867 -1.89818 265.618 0.230318 282.786C0.898272 288.836 2.63047 293.367 4.83248 299.549C7.9233 307.801 11.5915 317.763 15.9842 325.917C20.2242 334.213 31.9307 347.874 33.8837 335.271C34.8177 323.72 33.1818 308.294 35.4631 296.935C37.9764 277.515 53.8946 276.939 69.7221 273.213C92.5691 267.651 91.0519 241.146 70.407 233.742L70.0505 233.6Z" fill="#BEA7D0"/>
<path d="M35.4306 350.506C27.9187 360.326 25.5922 400.405 29.8943 411.49C36.8854 428.79 59.6644 433.513 70.2501 415.852C76.4486 404.153 76.1657 387.401 70.0294 375.636C67.8556 371.51 65.0931 368.014 61.9627 364.458C56.1661 358.71 44.4708 342.785 35.6231 350.304L35.4306 350.506Z" fill="#BEA7D0"/>
<path d="M308.554 380.236C318.755 386.683 322.202 399.733 320.341 411.282C318.337 422.396 307.884 432.269 297.215 423.832C290.263 418.41 292.046 408.87 291.328 401.132C291.423 395.548 286.882 391.899 284.405 387.382C279.887 375.894 302.152 376.159 308.362 380.127L308.554 380.236Z" fill="#173F35"/>
<path d="M242.378 394.667C244.068 400.104 241.631 405.861 238.58 410.015C233.929 416.633 225.774 421.145 218.463 417.443C211.039 414.351 208.156 405.439 211.262 397.502C213.326 392.424 217.492 389.482 222.004 387.609C229.255 384.662 239.266 384.605 242.3 394.41L242.378 394.667Z" fill="#173F35"/>
<path d="M256.388 294.209C257.346 304.461 259.19 314.636 259.091 325.039C258.933 330.226 259.25 334.772 256.613 339.137C247.936 352.822 226.817 357.857 214.283 347.332C209.452 343.38 208.308 336.795 211.924 331.509C214.769 327.68 219.715 326.491 223.95 326.112C227.9 325.646 231.714 327.021 235.56 325.453C239.877 323.577 242.678 319.812 244.39 315.243C249.637 302.071 241.742 288.702 234.438 278.584C228.874 270.134 222.856 261.625 219.94 251.752C215.546 237.159 227.785 224.833 241.211 231.418C250.162 235.3 254.123 245.301 255.064 255.179C255.513 259.096 255.376 262.429 255.36 266.06C255.338 274.668 255.683 285.211 256.372 293.988L256.388 294.209Z" fill="#C2D98A"/>
</g>
<defs>
<clipPath id="clip0_161_330">
<rect width="654" height="427" fill="white"/>
</clipPath>
</defs>
</svg>
