<?xml version="1.0" encoding="UTF-8"?>
<svg id="Capa_1" xmlns="http://www.w3.org/2000/svg" viewBox="0 0 112.089996337890625 284.339996337890625">
  <defs>
    <style>
      .cls-1 {
        fill: #701027;
      }

      .cls-2 {
        opacity: .150000005960464;
      }

      .cls-3 {
        fill: #666;
      }

      .cls-4 {
        fill: #999;
      }

      .cls-5 {
        fill: #9d1630;
      }

      .cls-6 {
        fill: #bcb3a7;
      }

      .cls-7 {
        fill: #f2f2f2;
        isolation: isolate;
        opacity: .5;
      }
    </style>
  </defs>
  <g class="cls-2">
    <g>
      <path d="M82.300003051757812,66.639999389648438l-23.639999389648438,65.509994506835938-19.989997863769531-68.230003356933594-1.439998626708984.419998168945312-1.5-.050003051757812c-.590000152587891,17.19000244140625-.5,36.099998474121094-.409999847412109,54.389999389648438.139999389648438,28.900001525878906.279998779296875,58.780006408691406-2.169998168945312,84.280006408691406l1.490001678466797.139999389648438,1.409999847412109.509994506835938,22.30999755859375-61.80999755859375,23.909996032714844,81.6300048828125,1.44000244140625-.419998168945312h1.5V67.150001525878906h-1.5l-1.410003662109375-.510002136230469ZM37.020000457763672,192.07000732421875c1.529998779296875-22.959991455078125,1.409999847412109-48.540008544921875,1.290000915527344-73.400001525878906-.069999694824219-14.94000244140625-.139999389648438-30.269996643066406.159999847412109-44.739997863769531l18.450000762939453,63s-19.899997711181641,55.139999389648438-19.900001525878906,55.139999389648438ZM82.209999084472656,75.720001220703125v136.839996337890625l-22.129997253417969-75.540008544921875,22.129997253417969-61.300003051757812v.000015258789062Z"/>
      <path d="M111.120002746582031,10.649999618530273c-13.220001220703125,1.800000190734863-20.430000305175781,7.05000114440918-21.459999084472656,15.60999870300293l2.980003356933594.360000610351562c.849998474121094-7.130001068115234,7.029998779296875-11.380000114440918,18.879997253417969-12.989999771118164l-.400001525878906-2.970000267028809v-.00999927520752Z"/>
    </g>
    <path d="M58.639999389648438,1.450000047683716C29.129999160766602,1.450000047683716,5.199999809265137,25.379999160766602,5.199999809265137,54.889999389648438c0,29.510002136230469,23.930001258850098,53.449996948242188,53.45000171661377,53.449996948242188,29.519996643066406,0,53.450004577636719-23.930000305175781,53.450004577636719-53.450000762939453S88.160003662109375,1.450000047683716,58.639999389648438,1.450000047683716ZM58.639999389648438,64.339996337890625c-5.220001220703125,0-9.450000762939453-4.229999542236328-9.450000762939453-9.450000762939453s4.229999542236328-9.450000762939453,9.450000762939453-9.450000762939453,9.449996948242188,4.229999542236328,9.449996948242188,9.450000762939453-4.229999542236328,9.450000762939453-9.449996948242188,9.450000762939453Z"/>
    <path d="M58.639999389648438,36.770000457763672c-10.010002136230469,0-18.129997253417969,8.119998931884766-18.129997253417969,18.130001068115234s8.119998931884766,18.129997253417969,18.129997253417969,18.129997253417969c10.009994506835938,0,18.129997253417969-8.120002746582031,18.129997253417969-18.129997253417969s-8.120002746582031-18.129997253417969-18.129997253417969-18.130001068115234ZM58.639999389648438,64.339996337890625c-5.220001220703125,0-9.450000762939453-4.229999542236328-9.450000762939453-9.450000762939453s4.229999542236328-9.450000762939453,9.450000762939453-9.450000762939453,9.449996948242188,4.229999542236328,9.449996948242188,9.450000762939453-4.229999542236328,9.450000762939453-9.449996948242188,9.450000762939453Z"/>
    <path d="M58.639999389648438,177.449996948242188c-29.520000457763672,0-53.450000762939453,23.930007934570312-53.450000762939453,53.449996948242188s23.930000305175781,53.45001220703125,53.450000762939453,53.45001220703125c29.520004272460938,0,53.449996948242188-23.92999267578125,53.449996948242188-53.449996948242188s-23.930000305175781-53.449996948242188-53.450000762939453-53.449996948242188l.000003814697266-.000015258789062ZM58.639999389648438,240.339996337890625c-5.220001220703125,0-9.450000762939453-4.229995727539062-9.450000762939453-9.449996948242188s4.229999542236328-9.449996948242188,9.450000762939453-9.449996948242188,9.449996948242188,4.229995727539062,9.449996948242188,9.449996948242188-4.229999542236328,9.449996948242188-9.449996948242188,9.449996948242188Z"/>
    <path d="M58.639999389648438,212.770004272460938c-10.010002136230469,0-18.129997253417969,8.1199951171875-18.129997253417969,18.1300048828125s8.119998931884766,18.1300048828125,18.129997253417969,18.1300048828125c10.009994506835938,0,18.129997253417969-8.1199951171875,18.129997253417969-18.1300048828125s-8.120002746582031-18.1300048828125-18.129997253417969-18.1300048828125ZM58.639999389648438,240.339996337890625c-5.220001220703125,0-9.450000762939453-4.229995727539062-9.450000762939453-9.449996948242188s4.229999542236328-9.449996948242188,9.450000762939453-9.449996948242188,9.449996948242188,4.229995727539062,9.449996948242188,9.449996948242188-4.229999542236328,9.449996948242188-9.449996948242188,9.449996948242188Z"/>
  </g>
  <g>
    <path class="cls-6" d="M77.099998474121094,65.19000244140625l-23.639999389648438,65.510009765625-19.989997863769531-68.230003356933594-1.439998626708984.419998168945312-1.5-.049999237060547c-.590000152587891,17.189998626708984-.5,36.099994659423828-.409999847412109,54.390003204345703.139999389648438,28.899993896484375.280000686645508,58.779998779296875-2.170000076293945,84.279998779296875l1.489999771118164.139999389648438,1.409999847412109.509994506835938,22.310001373291016-61.80999755859375,23.910003662109375,81.6300048828125,1.44000244140625-.419998168945312h1.5V65.699996948242188h-1.5s-1.410003662109375-.510002136230469-1.410011291503906-.509994506835938ZM31.829999923706055,190.6199951171875c1.530000686645508-22.959991455078125,1.410001754760742-48.540008544921875,1.289999008178711-73.400001525878906-.069999694824219-14.94000244140625-.139999389648438-30.269996643066406.159999847412109-44.739997863769531l18.450000762939453,63-19.899999618530273,55.139999389648438ZM77.010002136230469,74.279998779296875v136.839996337890625l-22.129997253417969-75.540008544921875,22.129997253417969-61.300003051757812v.000015258789062Z"/>
    <path class="cls-6" d="M109.300003051757812,6.380000114440918c-13.220001220703125,1.800000190734863-20.430000305175781,7.050000190734863-21.459999084472656,15.609999656677246l2.980003356933594.360000610351562c.849998474121094-7.130000114440918,7.029998779296875-11.380000114440918,18.879997253417969-12.989999771118164l-.400001525878906-2.970000267028809v-.010000228881836Z"/>
  </g>
  <path class="cls-5" d="M53.450000762939453,0C23.930000305175781,0,0,23.930000305175781,0,53.450000762939453s23.930000305175781,53.450000762939453,53.450000762939453,53.450000762939453,53.450000762939453-23.930000305175781,53.450000762939453-53.450000762939453S82.959999084472656,0,53.450000762939453,0ZM53.450000762939453,62.889999389648438c-5.220001220703125,0-9.450000762939453-4.229999542236328-9.450000762939453-9.450000762939453s4.229999542236328-9.450000762939453,9.450000762939453-9.450000762939453,9.450000762939453,4.229999542236328,9.450000762939453,9.450000762939453-4.229999542236328,9.450000762939453-9.450000762939453,9.450000762939453Z"/>
  <path class="cls-5" d="M53.450000762939453,176c-29.520000457763672,0-53.450000762939453,23.92999267578125-53.450000762939453,53.449996948242188s23.930000305175781,53.449996948242188,53.450000762939453,53.449996948242188,53.450000762939453-23.92999267578125,53.450000762939453-53.449996948242188-23.930000305175781-53.449996948242188-53.450000762939453-53.449996948242188ZM53.450000762939453,238.889999389648438c-5.220001220703125,0-9.450000762939453-4.229995727539062-9.450000762939453-9.449996948242188s4.229999542236328-9.449996948242188,9.450000762939453-9.449996948242188,9.450000762939453,4.229995727539062,9.450000762939453,9.449996948242188-4.229999542236328,9.449996948242188-9.450000762939453,9.449996948242188Z"/>
  <path class="cls-1" d="M63.849998474121094,38.610000610351562c4.669998168945312,3.279998779296875,7.730003356933594,8.700000762939453,7.730003356933594,14.830001831054688,0,10.010002136230469-8.119998931884766,18.129997253417969-18.129997253417969,18.129997253417969-3.259998321533203,0-6.319999694824219-.870002746582031-8.959999084472656-2.379997253417969,2.950000762939453,2.069999694824219,6.529998779296875,3.290000915527344,10.400001525878906,3.290000915527344,10.010002136230469,0,18.129997253417969-8.120002746582031,18.129997253417969-18.129997253417969,0-6.75-3.69000244140625-12.619998931884766-9.159999847412109-15.739997863769531l-.010005950927734-.000007629394531Z"/>
  <path class="cls-4" d="M53.450000762939453,34.950000762939453c-10.220001220703125,0-18.5,8.279998779296875-18.5,18.5s8.279998779296875,18.499996185302734,18.5,18.499996185302734,18.499996185302734-8.279998779296875,18.499996185302734-18.5-8.279998779296875-18.5-18.499996185302734-18.499996185302734ZM53.450000762939453,62.889999389648438c-5.220001220703125,0-9.450000762939453-4.229999542236328-9.450000762939453-9.450000762939453s4.229999542236328-9.450000762939453,9.450000762939453-9.450000762939453,9.450000762939453,4.229999542236328,9.450000762939453,9.450000762939453-4.229999542236328,9.450000762939453-9.450000762939453,9.450000762939453Z"/>
  <path class="cls-7" d="M68.400001525878906,48.799999237060547c2.379997253417969,5.159999847412109.830001831054688,13.709999084472656-5.159999847412109,16.069995880126953-.599998474121094.239997863769531-1.110000610351562-.550003051757812-.639999389648438-.990001678466797,3.710002899169922-3.549999237060547,5.229999542236328-9.329998016357422,4.659999847412109-14.759998321533203-.069999694824219-.669998168945312.860000610351562-.930000305175781,1.139999389648438-.319995880126953Z"/>
  <path class="cls-7" d="M38.680000305175781,57.520000457763672c-2.680000305175781-5.009998321533203-1.630001068115234-13.630001068115234,4.209999084472656-16.350002288818359.580001831054688-.270000457763672,1.139999389648438.479999542236328.700000762939453.950000762939453-3.5,3.759998321533203-4.670001983642578,9.619998931884766-3.779998779296875,15.009998321533203.110000610351562.659999847412109-.810001373291016.979999542236328-1.119998931884766.389999389648438l-.010002136230469.000003814697266Z"/>
  <path class="cls-3" d="M62.889999389648438,53.450000762939453c0,2.069999694824219-.680000305175781,3.979999542236328-1.810001373291016,5.540000915527344,1.770000457763672-1.720001220703125,2.869998931884766-4.119998931884766,2.869998931884766-6.770000457763672,0-5.220001220703125-4.229999542236328-9.450000762939453-9.450000762939453-9.450000762939453-3.139999389648438,0-5.920001983642578,1.540000915527344-7.639999389648438,3.909999847412109,1.700000762939453-1.650001525878906,4.020000457763672-2.669998168945312,6.579998016357422-2.669998168945312,5.220001220703125,0,9.450000762939453,4.229999542236328,9.450000762939453,9.450000762939453l.000003814697266-.010002136230469Z"/>
  <path class="cls-3" d="M36.009998321533203,52.619998931884766c0-5.650001525878906,2.540000915527344-10.689998626708984,6.520000457763672-14.079998016357422-4.590000152587891,3.369998931884766-7.590000152587891,8.779998779296875-7.590000152587891,14.909999847412109,0,10.220001220703125,8.279998779296875,18.499996185302734,18.5,18.499996185302734,4.569999694824219,0,8.75-1.669998168945312,11.979999542236328-4.419998168945312-3.060001373291016,2.239997863769531-6.830001831054688,3.589996337890625-10.909999847412109,3.589996337890625-10.220001220703125,0-18.5-8.279998779296875-18.5-18.499996185302734Z"/>
  <path class="cls-1" d="M64.107452149086384,214.555973621123485c4.670001983642578,3.279998779296875,7.729999542236328,8.699996948242188,7.729999542236328,14.830001831054688,0,10.009994506835938-8.119998931884766,18.1300048828125-18.129997253417969,18.1300048828125-3.259998321533203,0-6.319999694824219-.8699951171875-8.959999084472656-2.3800048828125,2.950000762939453,2.07000732421875,6.529998779296875,3.289993286132812,10.400001525878906,3.289993286132812,10.010002136230469,0,18.129997253417969-8.1199951171875,18.129997253417969-18.1300048828125,0-6.75-3.69000244140625-12.6199951171875-9.159999847412109-15.740005493164062l-.010002136230469.000015258789062Z"/>
  <g>
    <path class="cls-4" d="M53.44999885559082,210.949989318847656c-10.220001220703125,0-18.5,8.279998779296875-18.5,18.5s8.279998779296875,18.5,18.5,18.5,18.500003814697266-8.279998779296875,18.500003814697266-18.5-8.279998779296875-18.5-18.500003814697266-18.5ZM53.44999885559082,238.889991760253906c-5.220001220703125,0-9.450000762939453-4.229995727539062-9.450000762939453-9.449996948242188s4.229999542236328-9.449996948242188,9.450000762939453-9.449996948242188,9.450000762939453,4.229995727539062,9.450000762939453,9.449996948242188-4.229999542236328,9.449996948242188-9.450000762939453,9.449996948242188Z"/>
    <path class="cls-7" d="M68.410001754760742,224.799995422363281c2.379997253417969,5.160003662109375.830001831054688,13.710006713867188-5.159999847412109,16.07000732421875-.599998474121094.240005493164062-1.110000610351562-.550003051757812-.639999389648438-.990005493164062,3.710002899169922-3.550003051757812,5.229999542236328-9.330001831054688,4.659999847412109-14.759994506835938-.069999694824219-.669998168945312.860000610351562-.92999267578125,1.139999389648438-.32000732421875Z"/>
    <path class="cls-7" d="M38.690000534057617,233.519996643066406c-2.680000305175781-5.009994506835938-1.630001068115234-13.6300048828125,4.209999084472656-16.350006103515625.580001831054688-.270004272460938,1.139999389648438.479995727539062.700000762939453.949996948242188-3.5,3.759994506835938-4.670001983642578,9.6199951171875-3.779998779296875,15.009994506835938.110000610351562.660003662109375-.810001373291016.979995727539062-1.119998931884766.389999389648438l-.010002136230469.000015258789062Z"/>
    <path class="cls-3" d="M62.899999618530273,229.449989318847656c0,2.07000732421875-.680000305175781,3.979995727539062-1.810001373291016,5.539993286132812,1.770000457763672-1.720001220703125,2.869998931884766-4.1199951171875,2.869998931884766-6.770004272460938,0-5.220001220703125-4.229999542236328-9.449996948242188-9.450000762939453-9.449996948242188-3.139999389648438,0-5.920001983642578,1.539993286132812-7.639999389648438,3.910003662109375,1.700000762939453-1.649993896484375,4.020000457763672-2.669998168945312,6.579998016357422-2.669998168945312,5.220001220703125,0,9.450000762939453,4.229995727539062,9.450000762939453,9.449996948242188l.000003814697266-.009994506835938Z"/>
    <path class="cls-3" d="M36.019998550415039,228.620002746582031c0-5.649993896484375,2.540000915527344-10.69000244140625,6.520000457763672-14.080001831054688-4.590000152587891,3.3699951171875-7.590000152587891,8.779998779296875-7.590000152587891,14.910003662109375,0,10.220001220703125,8.279998779296875,18.5,18.5,18.5,4.569999694824219,0,8.75-1.669998168945312,11.979999542236328-4.419998168945312-3.060001373291016,2.240005493164062-6.830001831054688,3.589996337890625-10.909999847412109,3.589996337890625-10.220001220703125,0-18.5-8.279998779296875-18.5-18.5Z"/>
  </g>
</svg>