<?xml version="1.0" encoding="UTF-8"?>
<svg id="Capa_2" xmlns="http://www.w3.org/2000/svg" viewBox="0 0 112.09 284.34">
  <defs>
    <style>
      .cls-1 {
        fill: #789f90;
      }

      .cls-2 {
        fill: #436d5c;
      }

      .cls-3 {
        fill: #f2f2f2;
        opacity: .5;
      }

      .cls-4 {
        fill: #666;
      }

      .cls-5 {
        opacity: .15;
      }

      .cls-6 {
        fill: #939393;
      }

      .cls-7 {
        fill: #999;
      }
    </style>
  </defs>
  <g id="Capa_1-2" data-name="Capa_1">
    <g>
      <g class="cls-5">
        <g>
          <path d="M82.3,66.64l-23.64,65.51-19.99-68.23-1.44.42-1.5-.05c-.59,17.19-.5,36.1-.41,54.39.14,28.9.28,58.78-2.17,84.28l1.49.14,1.41.51,22.31-61.81,23.91,81.63,1.44-.42h1.5V67.15h-1.5l-1.41-.51ZM37.02,192.07c1.53-22.96,1.41-48.54,1.29-73.4-.07-14.94-.14-30.27.16-44.74l18.45,63-19.9,55.14ZM82.21,75.72v136.84l-22.13-75.54,22.13-61.3Z"/>
          <path d="M111.12,10.65c-13.22,1.8-20.43,7.05-21.46,15.61l2.98.36c.85-7.13,7.03-11.38,18.88-12.99l-.4-2.97Z"/>
        </g>
        <path d="M58.64,1.45C29.13,1.45,5.2,25.38,5.2,54.89s23.93,53.45,53.45,53.45,53.45-23.93,53.45-53.45S88.16,1.45,58.64,1.45ZM58.64,64.34c-5.22,0-9.45-4.23-9.45-9.45s4.23-9.45,9.45-9.45,9.45,4.23,9.45,9.45-4.23,9.45-9.45,9.45Z"/>
        <path d="M58.64,36.77c-10.01,0-18.13,8.12-18.13,18.13s8.12,18.13,18.13,18.13,18.13-8.12,18.13-18.13-8.12-18.13-18.13-18.13ZM58.64,64.34c-5.22,0-9.45-4.23-9.45-9.45s4.23-9.45,9.45-9.45,9.45,4.23,9.45,9.45-4.23,9.45-9.45,9.45Z"/>
        <path d="M58.64,177.45c-29.52,0-53.45,23.93-53.45,53.45s23.93,53.45,53.45,53.45,53.45-23.93,53.45-53.45-23.93-53.45-53.45-53.45ZM58.64,240.34c-5.22,0-9.45-4.23-9.45-9.45s4.23-9.45,9.45-9.45,9.45,4.23,9.45,9.45-4.23,9.45-9.45,9.45Z"/>
        <path d="M58.64,212.77c-10.01,0-18.13,8.12-18.13,18.13s8.12,18.13,18.13,18.13,18.13-8.12,18.13-18.13-8.12-18.13-18.13-18.13ZM58.64,240.34c-5.22,0-9.45-4.23-9.45-9.45s4.23-9.45,9.45-9.45,9.45,4.23,9.45,9.45-4.23,9.45-9.45,9.45Z"/>
      </g>
      <g>
        <path class="cls-6" d="M77.1,65.19l-23.64,65.51-19.99-68.23-1.44.42-1.5-.05c-.59,17.19-.5,36.1-.41,54.39.14,28.9.28,58.78-2.17,84.28l1.49.14,1.41.51,22.31-61.81,23.91,81.63,1.44-.42h1.5V65.7h-1.5l-1.41-.51ZM31.83,190.62c1.53-22.96,1.41-48.54,1.29-73.4-.07-14.94-.14-30.27.16-44.74l18.45,63-19.9,55.14ZM77.01,74.28v136.84l-22.13-75.54,22.13-61.3Z"/>
        <path class="cls-6" d="M109.3,6.38c-13.22,1.8-20.43,7.05-21.46,15.61l2.98.36c.85-7.13,7.03-11.38,18.88-12.99l-.4-2.97Z"/>
      </g>
      <path class="cls-1" d="M53.45,0C23.93,0,0,23.93,0,53.45s23.93,53.45,53.45,53.45,53.45-23.93,53.45-53.45S82.96,0,53.45,0ZM53.45,62.89c-5.22,0-9.45-4.23-9.45-9.45s4.23-9.45,9.45-9.45,9.45,4.23,9.45,9.45-4.23,9.45-9.45,9.45Z"/>
      <path class="cls-1" d="M53.45,176c-29.52,0-53.45,23.93-53.45,53.45s23.93,53.45,53.45,53.45,53.45-23.93,53.45-53.45-23.93-53.45-53.45-53.45ZM53.45,238.89c-5.22,0-9.45-4.23-9.45-9.45s4.23-9.45,9.45-9.45,9.45,4.23,9.45,9.45-4.23,9.45-9.45,9.45Z"/>
      <path class="cls-2" d="M63.85,38.61c4.67,3.28,7.73,8.7,7.73,14.83,0,10.01-8.12,18.13-18.13,18.13-3.26,0-6.32-.87-8.96-2.38,2.95,2.07,6.53,3.29,10.4,3.29,10.01,0,18.13-8.12,18.13-18.13,0-6.75-3.69-12.62-9.16-15.74Z"/>
      <path class="cls-7" d="M53.45,34.95c-10.22,0-18.5,8.28-18.5,18.5s8.28,18.5,18.5,18.5,18.5-8.28,18.5-18.5-8.28-18.5-18.5-18.5ZM53.45,62.89c-5.22,0-9.45-4.23-9.45-9.45s4.23-9.45,9.45-9.45,9.45,4.23,9.45,9.45-4.23,9.45-9.45,9.45Z"/>
      <path class="cls-3" d="M68.4,48.8c2.38,5.16.83,13.71-5.16,16.07-.6.24-1.11-.55-.64-.99,3.71-3.55,5.23-9.33,4.66-14.76-.07-.67.86-.93,1.14-.32Z"/>
      <path class="cls-3" d="M38.68,57.52c-2.68-5.01-1.63-13.63,4.21-16.35.58-.27,1.14.48.7.95-3.5,3.76-4.67,9.62-3.78,15.01.11.66-.81.98-1.12.39Z"/>
      <path class="cls-4" d="M62.89,53.45c0,2.07-.68,3.98-1.81,5.54,1.77-1.72,2.87-4.12,2.87-6.77,0-5.22-4.23-9.45-9.45-9.45-3.14,0-5.92,1.54-7.64,3.91,1.7-1.65,4.02-2.67,6.58-2.67,5.22,0,9.45,4.23,9.45,9.45Z"/>
      <path class="cls-4" d="M36.01,52.62c0-5.65,2.54-10.69,6.52-14.08-4.59,3.37-7.59,8.78-7.59,14.91,0,10.22,8.28,18.5,18.5,18.5,4.57,0,8.75-1.67,11.98-4.42-3.06,2.24-6.83,3.59-10.91,3.59-10.22,0-18.5-8.28-18.5-18.5Z"/>
      <g>
        <path class="cls-2" d="M63.31,214.34c4.67,3.28,7.73,8.7,7.73,14.83,0,10.01-8.12,18.13-18.13,18.13-3.26,0-6.32-.87-8.96-2.38,2.95,2.07,6.53,3.29,10.4,3.29,10.01,0,18.13-8.12,18.13-18.13,0-6.75-3.69-12.62-9.16-15.74Z"/>
        <path class="cls-7" d="M52.91,210.68c-10.22,0-18.5,8.28-18.5,18.5s8.28,18.5,18.5,18.5,18.5-8.28,18.5-18.5-8.28-18.5-18.5-18.5ZM52.91,238.62c-5.22,0-9.45-4.23-9.45-9.45s4.23-9.45,9.45-9.45,9.45,4.23,9.45,9.45-4.23,9.45-9.45,9.45Z"/>
        <path class="cls-3" d="M67.87,224.53c2.38,5.16.83,13.71-5.16,16.07-.6.24-1.11-.55-.64-.99,3.71-3.55,5.23-9.33,4.66-14.76-.07-.67.86-.93,1.14-.32Z"/>
        <path class="cls-3" d="M38.15,233.25c-2.68-5.01-1.63-13.63,4.21-16.35.58-.27,1.14.48.7.95-3.5,3.76-4.67,9.62-3.78,15.01.11.66-.81.98-1.12.39Z"/>
        <path class="cls-4" d="M62.36,229.18c0,2.07-.68,3.98-1.81,5.54,1.77-1.72,2.87-4.12,2.87-6.77,0-5.22-4.23-9.45-9.45-9.45-3.14,0-5.92,1.54-7.64,3.91,1.7-1.65,4.02-2.67,6.58-2.67,5.22,0,9.45,4.23,9.45,9.45Z"/>
        <path class="cls-4" d="M35.48,228.35c0-5.65,2.54-10.69,6.52-14.08-4.59,3.37-7.59,8.78-7.59,14.91,0,10.22,8.28,18.5,18.5,18.5,4.57,0,8.75-1.67,11.98-4.42-3.06,2.24-6.83,3.59-10.91,3.59-10.22,0-18.5-8.28-18.5-18.5Z"/>
      </g>
    </g>
  </g>
</svg>