<?xml version="1.0" encoding="UTF-8"?>
<svg xmlns="http://www.w3.org/2000/svg" version="1.1" viewBox="0 0 112.1 284.3">
  <defs>
    <style>
      .cls-1 {
        fill: #b25d8a;
      }

      .cls-2 {
        opacity: .2;
      }

      .cls-3 {
        fill: #666;
      }

      .cls-4 {
        fill: #999;
      }

      .cls-5 {
        fill: #bcb3a7;
      }

      .cls-6 {
        fill: #c68bad;
      }

      .cls-7 {
        fill: #f2f2f2;
        isolation: isolate;
        opacity: .5;
      }
    </style>
  </defs>
  <!-- Generator: Adobe Illustrator 28.6.0, SVG Export Plug-In . SVG Version: 1.2.0 Build 709)  -->
  <g>
    <g id="Capa_2">
      <g id="Capa_1-2">
        <g class="cls-2">
          <g>
            <path d="M82.3,66.6l-23.6,65.5-20-68.2-1.4.4h-1.5c-.6,17.1-.5,36-.4,54.3.1,28.9.3,58.8-2.2,84.3h1.5c0,.1,1.4.6,1.4.6l22.3-61.8,23.9,81.6,1.4-.4h1.5V67.2h-1.5l-1.4-.5ZM37,192.1c1.5-23,1.4-48.5,1.3-73.4,0-14.9-.1-30.3.2-44.7l18.5,63s-19.9,55.1-19.9,55.1ZM82.2,75.7v136.8l-22.1-75.5,22.1-61.3h0Z"/>
            <path d="M111.1,10.6c-13.2,1.8-20.4,7.1-21.5,15.6l3,.4c.8-7.1,7-11.4,18.9-13l-.4-3h0Z"/>
          </g>
          <path d="M58.6,1.5C29.1,1.5,5.2,25.4,5.2,54.9s23.9,53.4,53.5,53.4,53.5-23.9,53.5-53.5S88.2,1.5,58.6,1.5ZM58.6,64.3c-5.2,0-9.5-4.2-9.5-9.5s4.2-9.5,9.5-9.5,9.4,4.2,9.4,9.5-4.2,9.5-9.4,9.5Z"/>
          <path d="M58.6,36.8c-10,0-18.1,8.1-18.1,18.1s8.1,18.1,18.1,18.1,18.1-8.1,18.1-18.1-8.1-18.1-18.1-18.1ZM58.6,64.3c-5.2,0-9.5-4.2-9.5-9.5s4.2-9.5,9.5-9.5,9.4,4.2,9.4,9.5-4.2,9.5-9.4,9.5Z"/>
          <path d="M58.6,177.4c-29.5,0-53.5,23.9-53.5,53.4s23.9,53.5,53.5,53.5,53.4-23.9,53.4-53.4-23.9-53.4-53.5-53.4h0ZM58.6,240.3c-5.2,0-9.5-4.2-9.5-9.4s4.2-9.4,9.5-9.4,9.4,4.2,9.4,9.4-4.2,9.4-9.4,9.4Z"/>
          <path d="M58.6,212.8c-10,0-18.1,8.1-18.1,18.1s8.1,18.1,18.1,18.1,18.1-8.1,18.1-18.1-8.1-18.1-18.1-18.1ZM58.6,240.3c-5.2,0-9.5-4.2-9.5-9.4s4.2-9.4,9.5-9.4,9.4,4.2,9.4,9.4-4.2,9.4-9.4,9.4Z"/>
        </g>
        <g>
          <path class="cls-5" d="M77.1,65.2l-23.6,65.5-20-68.2-1.4.4h-1.5c-.6,17.1-.5,36-.4,54.3.1,28.9.3,58.8-2.2,84.3h1.5c0,.1,1.4.6,1.4.6l22.3-61.8,23.9,81.6,1.4-.4h1.5V65.7h-1.5s-1.4-.5-1.4-.5ZM31.8,190.6c1.5-23,1.4-48.5,1.3-73.4,0-14.9-.1-30.3.2-44.7l18.5,63-19.9,55.1ZM77,74.3v136.8l-22.1-75.5,22.1-61.3h0Z"/>
          <path class="cls-5" d="M109.3,6.4c-13.2,1.8-20.4,7.1-21.5,15.6l3,.4c.8-7.1,7-11.4,18.9-13l-.4-3h0Z"/>
        </g>
        <path class="cls-6" d="M53.5,0C23.9,0,0,23.9,0,53.5s23.9,53.5,53.5,53.5,53.5-23.9,53.5-53.5S83,0,53.5,0ZM53.5,62.9c-5.2,0-9.5-4.2-9.5-9.5s4.2-9.5,9.5-9.5,9.5,4.2,9.5,9.5-4.2,9.5-9.5,9.5Z"/>
        <path class="cls-6" d="M53.5,176c-29.5,0-53.5,23.9-53.5,53.4s23.9,53.4,53.5,53.4,53.5-23.9,53.5-53.4-23.9-53.4-53.5-53.4ZM53.5,238.9c-5.2,0-9.5-4.2-9.5-9.4s4.2-9.4,9.5-9.4,9.5,4.2,9.5,9.4-4.2,9.4-9.5,9.4Z"/>
        <path class="cls-1" d="M63.8,38.6c4.7,3.3,7.7,8.7,7.7,14.8,0,10-8.1,18.1-18.1,18.1s-6.3-.9-9-2.4c3,2.1,6.5,3.3,10.4,3.3,10,0,18.1-8.1,18.1-18.1s-3.7-12.6-9.2-15.7h0Z"/>
        <path class="cls-4" d="M53.5,35c-10.2,0-18.5,8.3-18.5,18.5s8.3,18.5,18.5,18.5,18.5-8.3,18.5-18.5-8.3-18.5-18.5-18.5ZM53.5,62.9c-5.2,0-9.5-4.2-9.5-9.5s4.2-9.5,9.5-9.5,9.5,4.2,9.5,9.5-4.2,9.5-9.5,9.5Z"/>
        <path class="cls-7" d="M68.4,48.8c2.4,5.2.8,13.7-5.2,16.1-.6.2-1.1-.6-.6-1,3.7-3.5,5.2-9.3,4.7-14.8,0-.7.9-.9,1.1-.3Z"/>
        <path class="cls-7" d="M38.7,57.5c-2.7-5-1.6-13.6,4.2-16.4.6-.3,1.1.5.7,1-3.5,3.8-4.7,9.6-3.8,15,.1.7-.8,1-1.1.4h0Z"/>
        <path class="cls-3" d="M62.9,53.5c0,2.1-.7,4-1.8,5.5,1.8-1.7,2.9-4.1,2.9-6.8,0-5.2-4.2-9.5-9.5-9.5s-5.9,1.5-7.6,3.9c1.7-1.7,4-2.7,6.6-2.7,5.2,0,9.5,4.2,9.5,9.5h0Z"/>
        <path class="cls-3" d="M36,52.6c0-5.7,2.5-10.7,6.5-14.1-4.6,3.4-7.6,8.8-7.6,14.9,0,10.2,8.3,18.5,18.5,18.5s8.8-1.7,12-4.4c-3.1,2.2-6.8,3.6-10.9,3.6-10.2,0-18.5-8.3-18.5-18.5Z"/>
        <path class="cls-1" d="M63.3,214.3c4.7,3.3,7.7,8.7,7.7,14.8,0,10-8.1,18.1-18.1,18.1s-6.3-.9-9-2.4c3,2.1,6.5,3.3,10.4,3.3,10,0,18.1-8.1,18.1-18.1s-3.7-12.6-9.2-15.7h0Z"/>
        <path class="cls-4" d="M52.9,210.7c-10.2,0-18.5,8.3-18.5,18.5s8.3,18.5,18.5,18.5,18.5-8.3,18.5-18.5-8.3-18.5-18.5-18.5ZM52.9,238.6c-5.2,0-9.5-4.2-9.5-9.4s4.2-9.4,9.5-9.4,9.5,4.2,9.5,9.4-4.2,9.4-9.5,9.4Z"/>
        <path class="cls-7" d="M67.9,224.5c2.4,5.2.8,13.7-5.2,16.1-.6.2-1.1-.6-.6-1,3.7-3.6,5.2-9.3,4.7-14.8,0-.7.9-.9,1.1-.3Z"/>
        <path class="cls-7" d="M38.2,233.2c-2.7-5-1.6-13.6,4.2-16.4.6-.3,1.1.5.7.9-3.5,3.8-4.7,9.6-3.8,15,.1.7-.8,1-1.1.4h0Z"/>
        <path class="cls-3" d="M62.4,229.2c0,2.1-.7,4-1.8,5.5,1.8-1.7,2.9-4.1,2.9-6.8,0-5.2-4.2-9.4-9.5-9.4s-5.9,1.5-7.6,3.9c1.7-1.6,4-2.7,6.6-2.7,5.2,0,9.5,4.2,9.5,9.4h0Z"/>
        <path class="cls-3" d="M35.5,228.4c0-5.6,2.5-10.7,6.5-14.1-4.6,3.4-7.6,8.8-7.6,14.9,0,10.2,8.3,18.5,18.5,18.5s8.8-1.7,12-4.4c-3.1,2.2-6.8,3.6-10.9,3.6-10.2,0-18.5-8.3-18.5-18.5Z"/>
      </g>
    </g>
  </g>
</svg>