<?xml version="1.0" encoding="UTF-8"?>
<svg id="Capa_2" xmlns="http://www.w3.org/2000/svg" viewBox="0 0 241.24 149.37">
  <defs>
    <style>
      .cls-1 {
        fill: #ffedb3;
      }
    </style>
  </defs>
  <g id="Capa_2-2" data-name="Capa_2">
    <g>
      <path class="cls-1" d="M130.18,30.95c-1.08,0-1.92-.85-1.92-1.92v-12.51c.15-.19,1.69-2.46,3.58-2.46,1.27,0,2.19.89,2.19,1.85v13.12c0,1.08-.85,1.92-1.92,1.92v.96h10.58v-.96c-1.08,0-1.92-.85-1.92-1.92v-14.36c0-1.12-.65-4.35-4.62-4.35-4.73,0-7.89,4.27-7.89,4.27V0l-8.66,1.39.15.92c.92-.12,1.77.58,1.77,1.5v25.21c0,1.08-.85,1.92-1.92,1.92v.96h10.58v-.96Z"/>
      <path class="cls-1" d="M154.7,32.33c3.77,0,7.27-2.54,8.7-6.62l-.35-.15c-1.31,2.39-3.43,3.16-5.58,3.23-4.08.15-6.58-3.46-6.58-8.43h13.09c.15-5.77-3.5-10.05-9.08-10.05-6.39,0-10.78,5.27-10.78,11.24s4.46,10.78,10.58,10.78ZM154.74,12.28c2.08,0,3.73,2.58,3.73,6.54h-7.47c0-3.96,1.66-6.54,3.73-6.54Z"/>
      <path class="cls-1" d="M89.75,36.27c2.82-2.88,6.77-4.36,10.79-4.36h11.27v-.96c-2.12,0-3.85-1.73-3.85-3.85V3.85h.96c4.81,0,7.47,3.5,8.66,7.85h.96c-.31-2.85-.69-7.81-.96-10.58h-26.94c-.27,2.77-.65,7.74-.96,10.58h.96c1.19-4.35,3.85-7.85,8.66-7.85h.96v21.11c0,2.23-1.02,3.02-3.27,3.02h-56.14v3.73c8.2,0,14.91,6.71,14.91,14.91,0,0-.6,53.53-.6,64.27,0,31.31-43.69,37.43-41.9,12.97.3-3.13,2.68-5.37,4.92-6.41,13.12-6.11,5.07-23.26-7.9-18.64-6.26,2.39-10.29,9.25-10.29,17.3,0,22.37,21.77,33.7,43.39,33.25,21.62-.45,42.94-12.82,42.8-37.87l-.6-64.86c-.07-4.02,1.54-7.67,4.16-10.35Z"/>
      <path class="cls-1" d="M162.15,124.99v-21.64c0-10.18-3.35-18.03-10.3-22.54-16.36-10.56-45.47-6.05-49.98,10.82-1.03,3.74.13,7.34,1.55,9.4,1.93,2.71,5.54,4.38,9.02,3.86,4.64-.77,7.73-5.15,6.96-9.79-.26-1.29-.9-2.19-1.42-3.48-5.02-13.14,21.64-16.36,21.64,5.67v9.66c-9.79,3.09-40.96,4.89-40.96,24.6,0,10.69,6.83,17.26,18.68,17.26,9.53,0,16.49-5.15,22.8-12.75,1.8,7.34,7.73,12.88,15.71,12.88,11.46,0,17.52-5.67,20.22-17.26l-.64-.26c-3.86,7.86-13.27,11.98-13.27-6.44ZM139.61,131.04c-3.22,3.48-6.44,5.8-8.63,6.05-6.31.77-9.79-3.61-9.79-9.66,0-6.44,7.34-10.82,18.42-15.84v19.45Z"/>
      <path class="cls-1" d="M235.57,76.81c-10.18-5.93-20.87,2.32-28.47,11.85v-12.75l-28.98,4.64.52,3.09c3.09-.39,5.93,1.93,5.93,5.02v48.95c0,3.61-2.83,6.44-6.44,6.44v3.22h35.42v-3.22c-3.61,0-6.44-2.83-6.44-6.44v-39.29c7.34-10.3,19.97-21.77,17.52-12.62-1.93,6.7,1.55,12.11,7.73,12.11,10.18,0,12.11-15.84,3.22-21Z"/>
      <path class="cls-1" d="M113.59,58.76l-.44-.19c-1.65,3-4.31,3.97-7.02,4.07-5.13.19-8.28-4.36-8.28-10.6,0-6.92,3.82-9.15,5.57-9.78,2.81-1.06,6.34.15,4.74,2.81-.29.48-.53.82-.63,1.31-.39,1.69.68,3.44,2.37,3.82,1.31.29,2.57-.29,3.34-1.26.58-.73,1.16-2.23.87-3.58-.73-3.77-4.6-6.19-11.23-5.9-8.03.34-13.55,6.58-13.55,14.08s5.61,13.55,13.31,13.55c4.74,0,9.15-3.15,10.94-8.32Z"/>
      <path class="cls-1" d="M130.62,39.4c-9.58,0-14.18,6.87-14.18,13.89s4.5,13.79,14.08,13.79c5.42,0,9.29-2.23,11.57-5.42,2.28,3.19,6.1,5.42,11.57,5.42,9.53,0,14.23-6.87,14.23-13.89s-4.55-13.79-14.13-13.79c-5.42,0-9.29,2.23-11.57,5.42-2.27-3.19-6.1-5.42-11.57-5.42ZM130.57,64.67c-4.45,0-5.66-6.19-5.66-11.66s1.26-11.18,5.66-11.18,5.71,5.81,5.71,11.28-1.26,11.57-5.71,11.57ZM153.71,41.82c4.45,0,5.71,5.81,5.71,11.28s-1.26,11.57-5.71,11.57-5.66-6.19-5.66-11.66,1.26-11.18,5.66-11.18Z"/>
      <path class="cls-1" d="M182.84,65.34c-1.36,0-2.42-1.06-2.42-2.42v-7.26c.53-.63,1.06-1.36,1.6-2.03l5.42,9.29c.77,1.31.24,2.37-1.06,2.42v1.21h13.36v-1.21c-1.94-.05-3.05-1.11-3.82-2.42l-9.05-15.54c1.31-1.69,2.47-3.19,3.34-4.36,1.02-1.31,3.29-2.37,5.9-2.42v-1.21h-10.26v1.21c3.63.1,3.44,1.11,2.42,2.42l-7.84,10.16v-26.76l-10.89,1.74.19,1.16c1.16-.15,2.23.73,2.23,1.89v31.7c0,1.36-1.06,2.42-2.42,2.42v1.21h13.31v-1.21Z"/>
      <path class="cls-1" d="M206.79,37.42s1.36-3.1,2.18-3.87c.77-.82,3.87-2.18,3.87-2.18,0,0-3.1-1.31-3.87-2.13-.82-.77-2.18-3.92-2.18-3.92,0,0-1.35,3.15-2.13,3.92-.77.82-3.92,2.13-3.92,2.13,0,0,3.15,1.36,3.92,2.18.77.77,2.13,3.87,2.13,3.87Z"/>
      <path class="cls-1" d="M214.05,65.34c-1.36,0-2.42-1.06-2.42-2.42v-23.18l-10.89,1.74.19,1.16c1.16-.15,2.23.73,2.23,1.89v18.39c0,1.36-1.06,2.42-2.42,2.42v1.21h13.31v-1.21Z"/>
      <path class="cls-1" d="M229.1,67.08c4.74,0,9.15-3.19,10.94-8.32l-.44-.19c-1.65,3-4.31,3.97-7.02,4.07-5.13.19-8.28-4.36-8.28-10.6h16.46c.19-7.26-4.4-12.63-11.42-12.63-8.03,0-13.55,6.63-13.55,14.13s5.61,13.55,13.31,13.55ZM229.15,41.87c2.61,0,4.69,3.24,4.69,8.23h-9.39c0-4.98,2.08-8.23,4.69-8.23Z"/>
    </g>
  </g>
</svg>