<?xml version="1.0" encoding="UTF-8"?>
<svg id="Capa_2" xmlns="http://www.w3.org/2000/svg" viewBox="0 0 1600 468.54">
  <defs>
    <style>
      .cls-1 {
        fill: #111114;
      }
    </style>
  </defs>
  <g id="principal_logo_black_red_background">
    <g id="taurino">
      <g id="taurino-2" data-name="taurino">
        <path class="cls-1" d="M1564.3,261.37c-23.72-23.79-52.3-35.69-85.74-35.69s-62.14,11.9-85.86,35.69c-23.72,23.72-35.58,52.3-35.58,85.74s11.86,62.14,35.58,85.86c23.72,23.72,52.34,35.58,85.86,35.58s62.02-11.86,85.74-35.58c23.8-23.72,35.7-52.34,35.7-85.86s-11.9-62.02-35.7-85.74ZM1521.38,390.04c-11.86,11.86-26.13,17.79-42.81,17.79s-31.07-5.93-42.93-17.79c-11.86-11.86-17.79-26.17-17.79-42.93s5.93-30.95,17.79-42.81c11.86-11.94,26.17-17.91,42.93-17.91s30.95,5.97,42.81,17.91c11.94,11.86,17.91,26.13,17.91,42.81s-5.97,31.07-17.91,42.93Z"/>
        <path class="cls-1" d="M1201.78,225.67c-33.52,0-62.14,11.9-85.86,35.69-23.72,23.72-35.58,52.3-35.58,85.74v121.43h60.72v-121.43c0-16.68,5.93-30.95,17.79-42.81,11.86-11.94,26.17-17.91,42.93-17.91s30.95,5.97,42.81,17.91c11.94,11.86,17.91,26.13,17.91,42.81v121.43h60.72v-121.43c0-33.44-11.9-62.02-35.69-85.74-23.72-23.79-52.3-35.69-85.74-35.69Z"/>
        <rect class="cls-1" x="985.71" y="225.67" width="60.72" height="242.87"/>
        <path class="cls-1" d="M830.36,225.67c-33.52,0-62.14,11.9-85.86,35.69-23.72,23.72-35.58,52.3-35.58,85.74v121.43h60.72v-121.43c0-16.68,5.93-30.95,17.79-42.81,11.86-11.94,26.17-17.91,42.93-17.91s30.95,5.97,42.81,17.91c11.94,11.86,17.91,26.13,17.91,42.81h60.72c0-33.44-11.9-62.02-35.69-85.74-23.72-23.79-52.3-35.69-85.74-35.69Z"/>
        <path class="cls-1" d="M614.29,302.43v44.68c0,16.68-5.97,30.95-17.91,42.81-11.86,11.94-26.13,17.91-42.81,17.91s-30.95-5.97-42.81-17.91c-11.94-11.86-17.91-26.13-17.91-42.81v-44.68l-60.72-78.78v123.45c0,33.44,11.9,62.02,35.7,85.74,23.72,23.79,52.3,35.69,85.74,35.69s62.02-11.9,85.74-35.69c23.8-23.72,35.7-52.3,35.7-85.74v-123.45l-60.72,78.78Z"/>
        <path class="cls-1" d="M276.79,225.67c-33.52,0-62.14,11.9-85.86,35.69-23.72,23.72-35.58,52.3-35.58,85.74s11.86,62.14,35.58,85.86c23.72,23.72,52.34,35.58,85.86,35.58,22.43,0,42.66-5.36,60.72-16.03v16.03h60.72v-121.43c0-33.44-11.9-62.02-35.69-85.74-23.72-23.79-52.3-35.69-85.74-35.69ZM319.6,390.04c-11.86,11.86-26.13,17.79-42.81,17.79s-31.07-5.93-42.93-17.79c-11.86-11.86-17.79-26.17-17.79-42.93s5.93-30.95,17.79-42.81c11.86-11.94,26.17-17.91,42.93-17.91s30.95,5.97,42.81,17.91c11.94,11.86,17.91,26.13,17.91,42.81s-5.97,31.07-17.91,42.93Z"/>
        <path class="cls-1" d="M60.72,104.24H0v242.87c0,33.52,11.86,62.14,35.58,85.86,23.72,23.72,52.34,35.58,85.86,35.58v-60.72c-16.76,0-31.07-5.93-42.93-17.79-11.86-11.86-17.79-26.17-17.79-42.93v-60.72h60.72v-60.72h-60.72v-121.43Z"/>
      </g>
      <path id="toro" class="cls-1" d="M731.38,0c-.1,0-.12.15-.02.17,21.24,3.46,37.23,22.58,35.7,45.13-1.53,22.68-21.49,39.76-44.22,39.76h-338.55c-22.73,0-42.69-17.07-44.22-39.76-1.52-22.55,14.46-41.67,35.7-45.13.1-.02.08-.18-.02-.17-45.76,3.69-81.36,43.31-78.32,90.68,2.91,45.32,42.12,79.81,87.53,79.81h47.17l99.34,127.08c5.64,7.21,13.83,10.88,22.1,11.07,8.26-.2,16.46-3.86,22.1-11.07l99.34-127.08h47.17c45.41,0,84.62-34.49,87.53-79.81C812.74,43.31,777.14,3.69,731.38,0Z"/>
    </g>
  </g>
</svg>