<svg width="201" height="108" viewBox="0 0 201 108" fill="none" xmlns="http://www.w3.org/2000/svg">
<path d="M0.641 106L47.753 0.299993H71.913L119.176 106H93.506L54.85 12.682H64.514L25.707 106H0.641ZM24.197 83.35L30.69 64.777H85.05L91.694 83.35H24.197ZM178.311 106V90.145L176.801 86.672V58.284C176.801 53.2507 175.241 49.3247 172.12 46.506C169.1 43.6873 164.419 42.278 158.077 42.278C153.749 42.278 149.47 42.9827 145.242 44.392C141.115 45.7007 137.592 47.5127 134.672 49.828L126.216 33.369C130.646 30.2483 135.981 27.8323 142.222 26.121C148.464 24.4097 154.806 23.554 161.248 23.554C173.63 23.554 183.244 26.4733 190.089 32.312C196.935 38.1507 200.357 47.261 200.357 59.643V106H178.311ZM153.547 107.208C147.205 107.208 141.769 106.151 137.239 104.037C132.709 101.822 129.236 98.8527 126.82 95.128C124.404 91.4033 123.196 87.2257 123.196 82.595C123.196 77.763 124.354 73.535 126.669 69.911C129.085 66.287 132.86 63.4683 137.994 61.455C143.128 59.341 149.823 58.284 158.077 58.284H179.67V72.025H160.644C155.108 72.025 151.282 72.931 149.168 74.743C147.155 76.555 146.148 78.82 146.148 81.538C146.148 84.558 147.306 86.974 149.621 88.786C152.037 90.4973 155.309 91.353 159.436 91.353C163.362 91.353 166.886 90.447 170.006 88.635C173.127 86.7223 175.392 83.954 176.801 80.33L180.425 91.202C178.714 96.4367 175.593 100.413 171.063 103.131C166.533 105.849 160.695 107.208 153.547 107.208Z" fill="#1F1100"/>
</svg>
