<svg width="161" height="101" viewBox="0 0 161 101" fill="none" xmlns="http://www.w3.org/2000/svg">
<path d="M0.094 99L30.898 0.547998H57.474L88.429 99H64.873L52.038 49.17C50.6287 44.2373 49.2697 39.0027 47.961 33.466C46.6523 27.9293 45.3437 22.594 44.035 17.46H43.431C42.3237 22.594 41.1157 27.9293 39.807 33.466C38.4983 39.0027 37.1393 44.2373 35.73 49.17L22.744 99H0.094ZM20.328 75.595V58.23H67.742V75.595H20.328ZM118.314 100.812C113.784 100.812 109.808 99.8053 106.385 97.792C103.063 95.7787 100.496 93.0607 98.684 89.638C96.872 86.2153 95.966 82.39 95.966 78.162C95.966 70.1087 99.288 63.9177 105.932 59.589C112.576 55.1597 123.297 52.19 138.095 50.68C137.994 48.4653 137.491 46.603 136.585 45.093C135.78 43.4823 134.521 42.2743 132.81 41.469C131.099 40.563 128.934 40.11 126.317 40.11C123.196 40.11 120.025 40.6637 116.804 41.771C113.583 42.8783 110.11 44.489 106.385 46.603L98.533 32.107C101.754 30.0937 105.076 28.3823 108.499 26.973C111.922 25.463 115.445 24.3053 119.069 23.5C122.794 22.6947 126.619 22.292 130.545 22.292C136.988 22.292 142.373 23.5503 146.702 26.067C151.131 28.483 154.504 32.2077 156.819 37.241C159.134 42.1737 160.292 48.5157 160.292 56.267V99H142.172L140.662 91.299H140.058C136.837 94.1177 133.464 96.433 129.941 98.245C126.418 99.9563 122.542 100.812 118.314 100.812ZM125.713 83.447C128.23 83.447 130.444 82.8933 132.357 81.786C134.27 80.6787 136.182 79.1687 138.095 77.256V64.572C132.86 65.2767 128.683 66.1827 125.562 67.29C122.542 68.3973 120.378 69.7563 119.069 71.367C117.861 72.877 117.257 74.5883 117.257 76.501C117.257 78.8163 118.012 80.578 119.522 81.786C121.133 82.8933 123.196 83.447 125.713 83.447Z" fill="#1F1100"/>
</svg>
