<?xml version="1.0" encoding="UTF-8"?>
<svg id="Capa_1" xmlns="http://www.w3.org/2000/svg" viewBox="0 0 534.13 496.25">
  <defs>
    <style>
      .cls-1 {
        fill: #bf3d28;
      }

      .cls-2 {
        fill: #1f1100;
      }
    </style>
  </defs>
  <g>
    <path class="cls-2" d="M268.6,487.93H55.02c-17.87,0-32.4-14.54-32.4-32.4s14.54-32.4,32.4-32.4h213.57c17.87,0,32.4,14.54,32.4,32.4s-14.54,32.4-32.4,32.4ZM55.02,425.12c-16.76,0-30.4,13.64-30.4,30.4s13.64,30.4,30.4,30.4h213.57c16.76,0,30.4-13.64,30.4-30.4s-13.64-30.4-30.4-30.4H55.02Z"/>
    <g>
      <rect class="cls-2" x="70.22" y="438.33" width="4.04" height="32.01"/>
      <rect class="cls-2" x="81.22" y="438.33" width="3.82" height="32.01"/>
      <rect class="cls-2" x="91.53" y="438.33" width="3.82" height="32.01"/>
      <path class="cls-2" d="M117.1,460.76c0,1.4-.27,2.59-.79,3.54-.53.96-1.25,1.69-2.16,2.18-.91.49-1.93.74-3.06.74-1.68,0-3-.52-3.96-1.56-.97-1.04-1.45-2.5-1.45-4.37v-14.67h-3.82v15c0,2.02.35,3.7,1.04,5.04.69,1.34,1.66,2.34,2.89,3.01,1.23.67,2.65,1,4.25,1,1.76,0,3.32-.46,4.68-1.39,1.02-.69,1.86-1.74,2.54-3.15v4.21h3.7v-23.72h-3.85v14.14Z"/>
      <path class="cls-2" d="M138.46,457.25l-3.63-.86c-1.33-.31-2.32-.74-2.96-1.27-.64-.53-.97-1.24-.97-2.13,0-1,.46-1.83,1.39-2.49.92-.66,2.1-.99,3.53-.99,1.52,0,2.67.36,3.47,1.08.79.72,1.32,1.55,1.58,2.48l3.5-.71c-.29-1.2-.79-2.26-1.51-3.18-.72-.92-1.67-1.63-2.85-2.15-1.17-.52-2.58-.77-4.21-.77s-3.19.29-4.51.88c-1.32.59-2.35,1.4-3.1,2.44-.75,1.04-1.13,2.24-1.13,3.6,0,1.68.53,3.05,1.59,4.14,1.06,1.08,2.67,1.87,4.83,2.37l3.93.95c1.15.26,2.02.66,2.61,1.2.59.54.89,1.23.89,2.06,0,.99-.49,1.84-1.47,2.55-.98.71-2.3,1.06-3.94,1.06-1.48,0-2.68-.32-3.62-.96-.94-.64-1.56-1.62-1.86-2.95l-3.65.69c.24,1.43.78,2.64,1.61,3.61.83.97,1.89,1.71,3.18,2.2s2.75.74,4.38.74c1.83,0,3.45-.3,4.84-.91s2.49-1.45,3.28-2.52c.79-1.07,1.18-2.31,1.18-3.72,0-1.65-.52-3-1.56-4.07-1.04-1.07-2.65-1.86-4.82-2.37Z"/>
      <path class="cls-2" d="M158.64,467.14c-.38.04-.7.06-.96.06-1,0-1.72-.23-2.14-.7-.42-.46-.63-1.21-.63-2.22v-14.39h4.88v-3.27h-4.88v-5.82h-3.82v5.82h-3.7v3.27h3.7v14.7c0,1.91.56,3.38,1.68,4.43,1.12,1.05,2.7,1.57,4.75,1.57.47,0,.96-.03,1.45-.09.49-.06.94-.14,1.34-.26l-.62-3.22c-.32.04-.66.09-1.04.13Z"/>
      <path class="cls-2" d="M174.42,446.28c-1.42,0-2.67.37-3.76,1.1-1.09.73-1.86,1.7-2.3,2.9h-.21v-3.65h-3.67v23.72h3.82v-14.8c0-1.13.25-2.11.74-2.94.49-.83,1.17-1.47,2.04-1.93.87-.46,1.84-.69,2.91-.69.52,0,1,.03,1.45.09.45.06.73.1.85.13v-3.85c-.2-.01-.49-.03-.86-.04-.37-.01-.71-.02-1.01-.02Z"/>
      <path class="cls-2" d="M195.06,447.87c-.91-.59-1.88-1-2.91-1.24s-2.01-.35-2.92-.35c-1.36,0-2.68.2-3.96.61-1.28.41-2.42,1.05-3.41,1.93s-1.73,2.04-2.21,3.49l3.72.97c.2-.62.55-1.2,1.06-1.75.51-.55,1.17-1,1.98-1.35.81-.35,1.78-.53,2.91-.53s2.03.18,2.77.55c.74.37,1.31.89,1.69,1.58.38.69.57,1.51.57,2.47v.15c0,.59-.21,1-.63,1.24-.42.24-1.07.41-1.96.5-.88.1-2.04.24-3.49.43-1.12.14-2.22.34-3.32.58-1.1.24-2.09.61-2.99,1.11-.9.49-1.61,1.16-2.15,2.01-.54.85-.81,1.95-.81,3.31,0,1.56.36,2.89,1.08,3.97.72,1.09,1.7,1.91,2.92,2.47s2.6.84,4.11.84c1.36,0,2.51-.2,3.46-.59s1.71-.88,2.3-1.47,1.02-1.16,1.29-1.72h.21v3.27h3.76v-15.79c0-1.7-.29-3.1-.86-4.18-.57-1.08-1.31-1.92-2.22-2.5ZM194.34,461.68c0,.97-.25,1.91-.75,2.79-.5.89-1.24,1.61-2.21,2.16-.97.55-2.18.83-3.63.83-.96,0-1.8-.14-2.54-.42s-1.31-.69-1.73-1.25c-.42-.55-.63-1.23-.63-2.03,0-.9.24-1.62.73-2.15.49-.53,1.13-.93,1.93-1.21.8-.28,1.66-.48,2.58-.59.44-.06.98-.12,1.62-.2.64-.08,1.28-.17,1.93-.29.65-.11,1.22-.24,1.72-.39.49-.14.82-.3.98-.47v3.22Z"/>
      <path class="cls-2" d="M213.04,467.14c-.38.04-.7.06-.96.06-1,0-1.72-.23-2.14-.7-.42-.46-.63-1.21-.63-2.22v-14.39h4.88v-3.27h-4.88v-5.82h-3.82v5.82h-3.7v3.27h3.7v14.7c0,1.91.56,3.38,1.68,4.43,1.12,1.05,2.7,1.57,4.75,1.57.47,0,.96-.03,1.45-.09.49-.06.94-.14,1.34-.26l-.62-3.22c-.32.04-.66.09-1.04.13Z"/>
      <path class="cls-2" d="M233.82,447.81c-1.63-1.02-3.53-1.54-5.69-1.54s-4.06.51-5.68,1.54c-1.63,1.02-2.89,2.46-3.8,4.32-.91,1.86-1.36,4.01-1.36,6.48s.45,4.55,1.36,6.4c.91,1.85,2.18,3.28,3.8,4.31,1.62,1.02,3.52,1.54,5.68,1.54s4.06-.51,5.69-1.54,2.9-2.46,3.81-4.31c.91-1.85,1.36-3.98,1.36-6.4s-.46-4.62-1.36-6.48c-.91-1.85-2.18-3.29-3.81-4.32ZM234.37,463.02c-.51,1.34-1.28,2.41-2.32,3.21-1.04.8-2.35,1.2-3.92,1.2s-2.88-.4-3.9-1.2c-1.02-.8-1.79-1.87-2.31-3.21-.52-1.34-.77-2.81-.77-4.42s.26-3.12.77-4.47c.52-1.35,1.29-2.42,2.32-3.23,1.03-.81,2.33-1.21,3.89-1.21s2.88.41,3.92,1.21c1.04.81,1.81,1.89,2.32,3.24.51,1.35.76,2.84.76,4.46s-.25,3.08-.76,4.42Z"/>
      <path class="cls-2" d="M255.29,446.3c-.37-.01-.71-.02-1.01-.02-1.42,0-2.67.37-3.76,1.1-1.09.73-1.86,1.7-2.3,2.9h-.21v-3.65h-3.67v23.72h3.82v-14.8c0-1.13.25-2.11.74-2.94.49-.83,1.17-1.47,2.04-1.93.87-.46,1.84-.69,2.91-.69.52,0,1,.03,1.45.09.45.06.73.1.85.13v-3.85c-.2-.01-.49-.03-.86-.04Z"/>
    </g>
  </g>
  <g>
    <path class="cls-2" d="M274.76,400.52c-.88,0-1.77-.04-2.67-.11l-236.06-19.36c-8.63-.71-16.46-4.73-22.06-11.33-5.6-6.6-8.29-14.99-7.59-23.61,1.46-17.81,17.13-31.11,34.95-29.65l236.06,19.36c8.63.71,16.46,4.73,22.06,11.33,5.6,6.6,8.29,14.99,7.59,23.61-1.39,16.91-15.6,29.76-32.27,29.76ZM272.26,398.42c16.69,1.37,31.42-11.11,32.79-27.82.66-8.09-1.86-15.96-7.12-22.15-5.25-6.19-12.6-9.97-20.7-10.63l-236.06-19.36c-16.7-1.38-31.42,11.11-32.79,27.82-.66,8.09,1.86,15.96,7.12,22.15,5.25,6.19,12.6,9.97,20.7,10.63l236.06,19.36Z"/>
    <g>
      <path class="cls-2" d="M69.32,335.34c-1.54-1.01-3.52-1.61-5.95-1.81l-11.03-.9-2.62,31.9,4.03.33.96-11.76,6.98.57c2.43.2,4.48-.08,6.17-.83s3-1.86,3.93-3.32c.93-1.46,1.48-3.15,1.63-5.06.16-1.91-.1-3.66-.78-5.24-.68-1.58-1.78-2.87-3.33-3.88ZM69.42,344.13c-.1,1.27-.44,2.38-1.01,3.33s-1.39,1.66-2.47,2.14c-1.08.47-2.44.64-4.08.51l-6.85-.56,1.07-13.06,6.81.56c1.66.14,2.98.52,3.98,1.17,1,.64,1.7,1.47,2.1,2.49.4,1.02.56,2.16.45,3.43Z"/>
      <path class="cls-2" d="M94,345.01c-1.17-.76-2.56-1.21-4.16-1.34-1.81-.15-3.43.19-4.85,1.01-.98.57-1.83,1.45-2.57,2.63l1-12.15-3.81-.31-2.62,31.9,3.81.31,1.16-14.09c.12-1.41.48-2.58,1.08-3.49.61-.91,1.38-1.57,2.33-1.99.95-.41,1.99-.57,3.13-.48,1.67.14,2.94.76,3.81,1.88.87,1.11,1.23,2.6,1.08,4.46l-1.2,14.65,3.83.31,1.23-14.95c.17-2.03-.04-3.74-.63-5.13-.58-1.39-1.46-2.47-2.63-3.23Z"/>
      <path class="cls-2" d="M119.68,347.66c-1.54-1.15-3.39-1.82-5.55-2s-4.08.18-5.79,1.07c-1.71.89-3.08,2.22-4.14,3.99s-1.69,3.89-1.89,6.34c-.2,2.41.08,4.58.84,6.49.76,1.92,1.9,3.45,3.44,4.6,1.54,1.15,3.38,1.82,5.54,2s4.09-.18,5.8-1.07c1.71-.89,3.09-2.21,4.15-3.98s1.69-3.86,1.88-6.27c.2-2.45-.08-4.64-.83-6.57-.75-1.92-1.9-3.46-3.45-4.62ZM120.1,358.52c-.13,1.6-.5,3.05-1.12,4.34-.62,1.29-1.48,2.3-2.58,3.01-1.1.72-2.44,1.01-4.01.88s-2.83-.63-3.79-1.52c-.96-.88-1.64-2.01-2.04-3.39-.41-1.38-.54-2.86-.41-4.46.13-1.63.51-3.09,1.14-4.39s1.48-2.31,2.58-3.03c1.09-.72,2.42-1.02,3.97-.89,1.57.13,2.84.64,3.81,1.53.97.89,1.65,2.03,2.05,3.42s.53,2.89.4,4.5Z"/>
      <path class="cls-2" d="M135.39,341.91l-3.81-.31-.48,5.8-3.68-.3-.27,3.25,3.68.3-1.2,14.65c-.16,1.9.28,3.42,1.31,4.55,1.03,1.13,2.56,1.78,4.6,1.95.47.04.96.05,1.45.03.5-.02.95-.07,1.36-.15l-.36-3.26c-.32.02-.67.03-1.05.04s-.7,0-.96-.01c-1-.08-1.69-.37-2.07-.87-.38-.5-.53-1.25-.45-2.27l1.18-14.35,4.86.4.27-3.25-4.86-.4.48-5.8Z"/>
      <path class="cls-2" d="M159.25,350.9c-1.54-1.15-3.39-1.82-5.55-2s-4.08.18-5.79,1.07c-1.71.89-3.08,2.22-4.14,3.99s-1.69,3.89-1.89,6.34c-.2,2.41.08,4.58.84,6.49.76,1.92,1.9,3.45,3.44,4.61,1.54,1.15,3.38,1.82,5.54,1.99s4.09-.18,5.8-1.06c1.71-.89,3.09-2.21,4.15-3.98,1.06-1.77,1.69-3.86,1.88-6.27.2-2.45-.08-4.64-.83-6.57s-1.9-3.46-3.45-4.62ZM159.67,361.77c-.13,1.6-.5,3.04-1.12,4.34-.62,1.29-1.48,2.3-2.58,3.01-1.1.72-2.44,1.01-4.01.88s-2.83-.63-3.79-1.52c-.96-.88-1.64-2.01-2.04-3.39-.41-1.38-.54-2.86-.41-4.46.13-1.63.51-3.09,1.14-4.39.62-1.3,1.48-2.31,2.58-3.03,1.09-.72,2.42-1.02,3.97-.89,1.57.13,2.84.64,3.81,1.53.97.89,1.65,2.03,2.05,3.42.4,1.39.53,2.89.4,4.5Z"/>
      <path class="cls-2" d="M174.33,354.85c.97-.58,2.18-.81,3.6-.7,1.51.12,2.64.58,3.37,1.36.73.79,1.19,1.65,1.37,2.6l3.55-.42c-.19-1.22-.6-2.32-1.25-3.29-.65-.97-1.53-1.76-2.66-2.38-1.13-.61-2.51-.98-4.13-1.11-1.68-.14-3.21.03-4.57.51-1.36.48-2.46,1.2-3.29,2.18-.83.97-1.31,2.14-1.42,3.5-.14,1.67.28,3.09,1.25,4.25.97,1.17,2.51,2.08,4.62,2.76l3.84,1.26c1.12.35,1.96.82,2.5,1.41.55.59.79,1.3.72,2.13-.08.99-.64,1.79-1.67,2.42-1.04.63-2.38.87-4.02.74-1.47-.12-2.65-.54-3.53-1.25-.88-.71-1.42-1.74-1.61-3.1l-3.7.39c.12,1.45.56,2.69,1.31,3.73.75,1.04,1.75,1.86,2.99,2.45,1.25.6,2.68.96,4.31,1.1,1.83.15,3.46-.02,4.9-.51,1.44-.49,2.6-1.24,3.47-2.25.87-1.01,1.37-2.21,1.48-3.61.13-1.64-.27-3.04-1.22-4.18-.95-1.15-2.49-2.07-4.61-2.76l-3.55-1.15c-1.3-.42-2.25-.92-2.85-1.51-.6-.58-.86-1.31-.79-2.2.08-1,.61-1.79,1.58-2.37Z"/>
      <path class="cls-2" d="M207.51,354.32c-1.17-.76-2.56-1.21-4.16-1.34-1.81-.15-3.43.19-4.85,1.01-.98.57-1.83,1.45-2.57,2.63l1-12.15-3.81-.31-2.62,31.9,3.81.31,1.16-14.09c.12-1.41.48-2.58,1.08-3.49.61-.91,1.38-1.57,2.33-1.99.95-.41,1.99-.57,3.13-.48,1.67.14,2.94.76,3.81,1.88.87,1.11,1.23,2.6,1.08,4.45l-1.2,14.65,3.83.31,1.23-14.95c.17-2.03-.04-3.74-.63-5.13-.58-1.39-1.46-2.47-2.63-3.23Z"/>
      <path class="cls-2" d="M233.19,356.97c-1.54-1.15-3.39-1.82-5.55-2s-4.08.18-5.79,1.07c-1.71.89-3.09,2.22-4.14,3.99-1.06,1.77-1.69,3.89-1.89,6.34-.2,2.41.08,4.58.84,6.49.75,1.92,1.9,3.45,3.44,4.61,1.54,1.15,3.38,1.82,5.54,1.99s4.09-.18,5.8-1.06c1.71-.89,3.09-2.21,4.15-3.98,1.06-1.77,1.69-3.86,1.88-6.27.2-2.45-.08-4.64-.83-6.57-.75-1.92-1.9-3.46-3.45-4.62ZM233.61,367.84c-.13,1.6-.5,3.04-1.12,4.34-.62,1.29-1.48,2.3-2.58,3.01-1.1.72-2.44,1.01-4.01.88-1.57-.13-2.83-.63-3.79-1.52-.96-.88-1.63-2.01-2.04-3.39-.4-1.38-.54-2.86-.41-4.46.13-1.63.51-3.09,1.14-4.39.62-1.3,1.48-2.31,2.58-3.03,1.09-.72,2.42-1.02,3.98-.89,1.57.13,2.84.64,3.81,1.53.97.89,1.65,2.03,2.05,3.42.4,1.39.53,2.89.4,4.5Z"/>
      <path class="cls-2" d="M263.12,363.66c-.71-1.9-1.77-3.41-3.19-4.53-1.43-1.12-3.14-1.77-5.13-1.93-1.43-.12-2.62.02-3.57.41-.95.39-1.73.88-2.32,1.46-.59.58-1.07,1.13-1.43,1.63l-.34-.03.31-3.73-3.68-.3-2.67,32.59,3.81.31,1.03-12.59.24.02c.28.57.67,1.2,1.17,1.89.5.69,1.19,1.3,2.07,1.84.88.54,2.02.87,3.4.98,2,.16,3.79-.2,5.38-1.08,1.59-.88,2.88-2.21,3.88-3.97,1-1.76,1.6-3.9,1.81-6.39.2-2.48-.05-4.67-.75-6.57ZM260,369.89c-.14,1.7-.52,3.2-1.16,4.5-.63,1.3-1.48,2.29-2.55,2.98-1.07.69-2.33.97-3.79.85-1.43-.12-2.62-.59-3.57-1.42-.95-.83-1.63-1.94-2.04-3.31-.41-1.38-.54-2.94-.4-4.7.14-1.76.53-3.27,1.16-4.54.63-1.27,1.47-2.23,2.53-2.89,1.06-.65,2.32-.92,3.77-.8,1.47.12,2.68.6,3.62,1.44.94.84,1.62,1.94,2.03,3.3.41,1.36.54,2.89.4,4.59Z"/>
    </g>
  </g>
  <g>
    <path class="cls-2" d="M381.11,377.34c-10.91,0-21.57-5.5-27.68-15.46l-73.35-119.65c-4.52-7.38-5.9-16.08-3.88-24.5,2.02-8.42,7.2-15.54,14.57-20.07,15.23-9.34,35.22-4.54,44.56,10.69l73.35,119.65c9.34,15.23,4.54,35.22-10.69,44.56-5.27,3.23-11.11,4.77-16.88,4.77ZM355.14,360.83c8.76,14.29,27.52,18.79,41.81,10.03,14.29-8.76,18.79-27.52,10.03-41.81l-73.35-119.65c-4.24-6.92-10.93-11.78-18.83-13.67s-16.06-.6-22.98,3.64c-14.29,8.76-18.79,27.52-10.03,41.81l73.35,119.65Z"/>
    <g>
      <polygon class="cls-2" points="322.48 250.89 325.52 249.03 318.17 237.03 327.42 231.36 335.51 244.57 338.55 242.7 328.35 226.05 301.06 242.78 303.17 246.23 315.13 238.89 322.48 250.89"/>
      <rect class="cls-2" x="313.46" y="257.75" width="23.72" height="3.82" transform="translate(-87.76 208.41) rotate(-31.52)"/>
      <path class="cls-2" d="M338.87,251.36c.38.62.92,1.03,1.62,1.21.7.18,1.35.09,1.95-.27.6-.37.97-.9,1.12-1.61s.03-1.37-.35-1.99c-.38-.61-.91-1.01-1.6-1.2-.7-.19-1.34-.1-1.94.27-.6.37-.97.9-1.13,1.61-.15.71-.04,1.37.33,1.98Z"/>
      <path class="cls-2" d="M348.34,274.53l-3.22,1.98-.15-.24c.29-.57.57-1.25.82-2.07.26-.81.34-1.73.25-2.75-.09-1.02-.5-2.14-1.24-3.34-1.04-1.7-2.39-2.93-4.04-3.71s-3.47-1.06-5.47-.84c-1.99.21-4.04.96-6.12,2.24-2.1,1.29-3.67,2.76-4.71,4.42-1.04,1.66-1.56,3.38-1.55,5.16s.51,3.49,1.53,5.14c.74,1.21,1.53,2.09,2.38,2.65.84.56,1.67.9,2.49,1.04s1.54.21,2.19.22l.15.24-3.85,2.36c-1.67,1.03-3.23,1.27-4.67.72s-2.67-1.64-3.68-3.29c-.68-1.11-1.09-2.13-1.22-3.04-.13-.92-.1-1.74.1-2.47.2-.73.45-1.37.75-1.92l-3.04-1.96c-.64.9-1.08,1.93-1.33,3.08-.24,1.16-.21,2.42.08,3.78.29,1.37.89,2.79,1.81,4.28,1,1.64,2.18,2.96,3.52,3.98,1.35,1.01,2.82,1.57,4.44,1.67,1.61.09,3.31-.4,5.09-1.5l20.64-12.65-1.94-3.17ZM341.79,277.64c-.84,1.12-1.98,2.12-3.43,3.01-1.48.91-2.89,1.46-4.24,1.68-1.35.21-2.57.07-3.67-.44-1.1-.51-2.03-1.38-2.79-2.61-.76-1.25-1.12-2.48-1.05-3.71.06-1.23.49-2.4,1.29-3.51.8-1.11,1.92-2.11,3.36-2.99,1.42-.87,2.81-1.42,4.19-1.65,1.38-.23,2.65-.11,3.83.36,1.17.47,2.14,1.34,2.92,2.6.76,1.25,1.1,2.49,1,3.73-.1,1.24-.56,2.42-1.4,3.54Z"/>
      <path class="cls-2" d="M366.97,311.05c.68-1.22.98-2.47.89-3.76-.09-1.29-.49-2.53-1.22-3.71-.67-1.09-1.48-1.96-2.43-2.63-.96-.67-1.99-1.09-3.11-1.28-.79-.13-1.58-.13-2.38,0,.85-.97,1.41-2.04,1.67-3.24.32-1.51.02-3.01-.89-4.5-.54-.88-1.23-1.62-2.09-2.21-.85-.59-1.82-.98-2.9-1.15-.78-.12-1.61-.11-2.49.05l3.58-2.21-1.94-3.17-20.22,12.4,2,3.26,12.66-7.76c1.09-.67,2.13-1.01,3.13-1.04,1-.03,1.9.2,2.71.67.8.47,1.45,1.11,1.95,1.92.71,1.16.95,2.33.72,3.53-.23,1.19-.92,2.14-2.06,2.84l-13.81,8.47,1.99,3.24,13.13-8.05c.87-.53,1.75-.82,2.65-.87.9-.05,1.75.14,2.54.57.79.43,1.47,1.11,2.04,2.04.67,1.1.95,2.26.82,3.48-.13,1.22-.93,2.29-2.42,3.2l-13.48,8.26,2,3.26,13.55-8.31c1.59-.97,2.72-2.07,3.4-3.29Z"/>
      <path class="cls-2" d="M379.78,325.84c-.34-1-.75-1.9-1.22-2.68-.71-1.16-1.58-2.18-2.59-3.06-1.02-.88-2.16-1.51-3.43-1.89-1.27-.38-2.65-.4-4.13-.06l1.12,3.67c.63-.15,1.31-.15,2.05,0,.73.15,1.46.47,2.19.98.72.51,1.38,1.24,1.97,2.21.58.94.9,1.82.98,2.65s-.08,1.58-.46,2.26c-.39.68-.99,1.28-1.81,1.78l-.13.08c-.5.31-.96.34-1.38.11-.42-.24-.91-.71-1.45-1.4-.55-.7-1.28-1.62-2.19-2.75-.71-.88-1.45-1.72-2.23-2.53-.78-.81-1.62-1.46-2.5-1.97-.89-.5-1.83-.77-2.84-.78s-2.08.33-3.24,1.04c-1.33.82-2.27,1.82-2.82,3-.55,1.18-.74,2.45-.58,3.78s.64,2.65,1.44,3.95c.71,1.16,1.48,2.04,2.31,2.64.83.6,1.65,1,2.46,1.19.81.19,1.52.26,2.14.2l.11.18-2.79,1.71,1.97,3.21,13.46-8.25c1.45-.89,2.49-1.86,3.11-2.92.62-1.05.95-2.12.97-3.21s-.13-2.12-.47-3.13ZM368.09,335.58c-.83.51-1.75.78-2.77.82-1.02.04-2.02-.22-3-.76-.98-.54-1.85-1.43-2.6-2.66-.5-.82-.82-1.61-.97-2.38-.14-.77-.09-1.48.16-2.12.25-.65.72-1.18,1.4-1.6.77-.47,1.51-.64,2.21-.5.71.14,1.39.48,2.05,1.01s1.27,1.17,1.85,1.89c.28.35.62.78,1.02,1.28.4.5.82,1,1.26,1.5.44.5.85.92,1.23,1.26.38.35.69.54.91.59l-2.75,1.68Z"/>
    </g>
  </g>
  <g>
    <path class="cls-2" d="M90.37,285.51c-4.23,0-8.46-.84-12.49-2.52-7.99-3.34-14.2-9.58-17.49-17.59-3.29-8.01-3.26-16.81.07-24.8,3.34-7.99,9.58-14.2,17.59-17.49l219.08-90.01c8.01-3.29,16.82-3.26,24.8.07,7.99,3.33,14.2,9.58,17.49,17.59,6.79,16.53-1.13,35.5-17.66,42.29l-219.08,90.01c-3.97,1.63-8.15,2.45-12.32,2.45ZM309.45,132.66c-3.91,0-7.83.77-11.56,2.3l-219.08,90.01c-7.51,3.09-13.37,8.91-16.5,16.41s-3.15,15.76-.07,23.27c6.37,15.51,24.17,22.94,39.68,16.57l219.08-90.01c15.51-6.37,22.94-24.17,16.57-39.68-3.09-7.51-8.91-13.37-16.41-16.5-3.77-1.58-7.74-2.36-11.71-2.36Z"/>
    <g>
      <path class="cls-2" d="M126.2,219.78l2.8,20.17c.15,1.05.32,2.12.49,3.22.17,1.09.35,2.18.56,3.28.12.64.26,1.31.39,1.97-.37-.56-.75-1.13-1.12-1.67-.64-.91-1.28-1.82-1.92-2.72s-1.29-1.77-1.95-2.62l-12.26-16.28-4.25,1.75,2.69,20.22c.14,1.06.29,2.13.46,3.22.17,1.09.35,2.19.56,3.28.13.7.28,1.43.42,2.15-.4-.61-.8-1.24-1.2-1.83-.62-.92-1.26-1.83-1.89-2.73-.63-.9-1.27-1.78-1.92-2.63l-12.21-16.31-3.79,1.56,20.23,26.29,4.37-1.8-2.65-20.93c-.2-1.53-.44-3.04-.72-4.55-.15-.8-.32-1.66-.51-2.55.53.82,1.05,1.6,1.54,2.32.89,1.29,1.75,2.49,2.59,3.58l12.85,16.74,4.35-1.79-4.06-32.94-3.86,1.58Z"/>
      <path class="cls-2" d="M154.89,222.92c-1.55-1.37-3.27-2.22-5.17-2.55-1.9-.33-3.85-.08-5.85.74-2,.82-3.56,2.02-4.67,3.58-1.11,1.57-1.74,3.38-1.88,5.44-.14,2.06.26,4.23,1.2,6.51.92,2.24,2.15,4.04,3.7,5.4,1.54,1.36,3.26,2.21,5.15,2.54,1.89.33,3.84.08,5.84-.74,2-.82,3.56-2.02,4.68-3.58s1.75-3.38,1.89-5.43-.25-4.2-1.17-6.44c-.94-2.28-2.18-4.1-3.72-5.47ZM155.08,238.08c-.66,1.14-1.71,2-3.17,2.6-1.46.6-2.81.72-4.06.37-1.25-.35-2.37-1.05-3.36-2.09-.99-1.04-1.79-2.31-2.39-3.79-.62-1.51-.95-2.99-.98-4.43-.04-1.44.27-2.73.92-3.87.65-1.14,1.69-2.01,3.13-2.6,1.46-.6,2.82-.72,4.09-.37,1.27.35,2.39,1.06,3.38,2.12.98,1.06,1.78,2.34,2.4,3.83.61,1.48.93,2.94.97,4.37.04,1.43-.27,2.72-.93,3.85Z"/>
      <path class="cls-2" d="M165.48,219.06c.14-.96.53-1.81,1.15-2.56.63-.75,1.44-1.33,2.43-1.74.48-.2.94-.35,1.37-.47.44-.12.72-.18.83-.2l-1.46-3.56c-.19.06-.46.16-.81.29-.35.13-.66.25-.94.36-1.31.54-2.33,1.35-3.06,2.44-.73,1.09-1.07,2.28-1.02,3.56l-.2.08-1.39-3.38-3.4,1.4,9.01,21.94,3.54-1.45-5.62-13.69c-.43-1.05-.57-2.05-.43-3Z"/>
      <path class="cls-2" d="M185.01,195.62l4.57,11.13-.22.09c-.49-.37-1.11-.74-1.85-1.12-.74-.38-1.63-.6-2.65-.69-1.03-.08-2.2.15-3.53.69-1.83.75-3.26,1.88-4.29,3.39-1.03,1.51-1.59,3.27-1.68,5.29-.09,2.02.34,4.18,1.28,6.49.95,2.32,2.17,4.17,3.66,5.55,1.49,1.38,3.12,2.25,4.91,2.6,1.79.36,3.6.16,5.44-.6,1.3-.53,2.28-1.19,2.95-1.97.67-.78,1.14-1.57,1.41-2.38.27-.81.46-1.53.55-2.16l.32-.13,1.39,3.38,3.42-1.4-12.17-29.61-3.54,1.45ZM192.77,214.24c.67,1.63,1.01,3.17,1.03,4.6.02,1.44-.3,2.7-.95,3.78s-1.64,1.89-2.98,2.44-2.62.66-3.86.33-2.35-1.02-3.34-2.06c-1-1.05-1.82-2.36-2.46-3.93-.65-1.58-.98-3.08-1-4.5s.29-2.68.94-3.77c.64-1.08,1.64-1.91,2.99-2.46,1.35-.55,2.63-.68,3.85-.38,1.21.3,2.31.96,3.3,1.98.98,1.02,1.81,2.34,2.48,3.97Z"/>
      <path class="cls-2" d="M218.14,196.83c-1.49-1.37-3.13-2.23-4.91-2.58-1.78-.35-3.6-.15-5.45.61-1.33.54-2.32,1.21-2.99,1.99-.67.78-1.14,1.56-1.4,2.35-.27.79-.44,1.49-.53,2.1l-.32.13-1.42-3.46-3.42,1.4,12.43,30.25,3.54-1.45-4.8-11.68.22-.09c.51.38,1.14.76,1.9,1.15.75.39,1.65.62,2.68.7,1.03.08,2.19-.14,3.47-.67,1.85-.76,3.29-1.9,4.3-3.41,1.01-1.51,1.56-3.28,1.65-5.3.09-2.03-.34-4.2-1.29-6.52-.95-2.3-2.17-4.14-3.66-5.51ZM218.29,212.14c-.64,1.1-1.64,1.93-2.99,2.48-1.32.54-2.6.66-3.83.35-1.23-.31-2.34-.98-3.33-2.02s-1.82-2.38-2.49-4c-.67-1.63-1.01-3.15-1.03-4.57-.02-1.42.3-2.66.95-3.72.65-1.06,1.65-1.87,3-2.43,1.36-.56,2.66-.68,3.88-.36,1.22.32,2.32.99,3.3,2.02.98,1.03,1.79,2.33,2.44,3.91.65,1.58.98,3.09,1.01,4.53.03,1.44-.28,2.71-.92,3.81Z"/>
      <path class="cls-2" d="M228.69,193.09c.14-.96.53-1.81,1.15-2.56.63-.75,1.44-1.33,2.43-1.74.48-.2.93-.35,1.37-.47.44-.12.72-.19.83-.2l-1.46-3.56c-.19.06-.46.16-.81.29-.35.13-.66.25-.94.36-1.31.54-2.33,1.35-3.06,2.44-.73,1.09-1.07,2.28-1.02,3.56l-.2.08-1.39-3.38-3.4,1.4,9.01,21.94,3.54-1.45-5.62-13.69c-.43-1.05-.57-2.05-.43-3Z"/>
      <path class="cls-2" d="M257.56,193.22c.04.87-.08,1.66-.39,2.39-.3.73-.76,1.38-1.38,1.94-.61.56-1.37,1.03-2.27,1.4-1.35.56-2.66.74-3.92.56-1.26-.18-2.4-.73-3.41-1.64-.91-.82-1.67-1.93-2.3-3.31l15.95-6.56-.56-1.37c-.8-1.95-1.75-3.51-2.86-4.7-1.11-1.19-2.3-2.04-3.58-2.56s-2.58-.75-3.91-.69c-1.32.06-2.61.34-3.85.85-1.97.81-3.51,2.01-4.6,3.59s-1.69,3.4-1.8,5.45c-.11,2.06.3,4.21,1.22,6.44.92,2.24,2.14,4.04,3.66,5.4,1.52,1.36,3.24,2.2,5.17,2.52,1.93.32,3.95.05,6.07-.82,1.52-.63,2.79-1.44,3.82-2.44,1.02-1,1.76-2.11,2.22-3.34.46-1.22.61-2.48.47-3.77l-3.75.66ZM243.38,185.02c.69-1.02,1.68-1.81,3-2.35,1.32-.54,2.57-.69,3.74-.43,1.17.26,2.21.84,3.14,1.76.69.68,1.29,1.52,1.79,2.49l-12.36,5.08c-.35-1.04-.5-2.09-.44-3.13.07-1.26.45-2.4,1.13-3.43Z"/>
      <path class="cls-2" d="M279.32,179.9c-1.37-.59-3.15-.71-5.36-.36l-3.69.58c-1.35.22-2.43.2-3.22-.05-.8-.24-1.37-.78-1.7-1.6-.38-.93-.27-1.87.33-2.83.6-.96,1.57-1.71,2.89-2.26,1.4-.58,2.61-.68,3.62-.32,1.01.37,1.81.93,2.4,1.7l2.97-1.99c-.72-1-1.59-1.79-2.61-2.37-1.02-.57-2.17-.87-3.45-.91-1.28-.03-2.68.26-4.19.88-1.56.64-2.84,1.49-3.84,2.53-1,1.04-1.64,2.19-1.95,3.43-.3,1.25-.19,2.5.32,3.76.64,1.55,1.65,2.62,3.04,3.22,1.39.6,3.18.72,5.37.36l4-.62c1.16-.2,2.12-.16,2.87.12.76.28,1.29.8,1.61,1.57.38.91.24,1.89-.39,2.91s-1.72,1.86-3.24,2.48c-1.37.56-2.6.72-3.71.49-1.11-.23-2.06-.91-2.84-2.03l-3.12,2.02c.77,1.23,1.72,2.14,2.86,2.73,1.14.59,2.4.86,3.78.83,1.38-.03,2.83-.36,4.34-.98,1.7-.7,3.07-1.59,4.13-2.69,1.06-1.09,1.75-2.29,2.07-3.58.32-1.29.21-2.59-.32-3.89-.62-1.52-1.62-2.58-2.99-3.17Z"/>
      <path class="cls-2" d="M303.31,174.44c-.63-1.52-1.62-2.58-2.99-3.17-1.37-.59-3.15-.71-5.36-.36l-3.69.58c-1.35.22-2.43.2-3.22-.05-.8-.24-1.37-.78-1.7-1.6-.38-.93-.27-1.87.34-2.83.6-.96,1.57-1.71,2.89-2.26,1.4-.58,2.61-.68,3.62-.32,1.01.37,1.81.93,2.4,1.7l2.97-1.99c-.72-1-1.59-1.79-2.61-2.37-1.02-.57-2.17-.87-3.45-.91-1.28-.03-2.68.26-4.19.88-1.56.64-2.84,1.49-3.84,2.53-1,1.04-1.64,2.19-1.95,3.43-.3,1.25-.19,2.5.32,3.76.64,1.55,1.65,2.62,3.04,3.22,1.39.6,3.18.72,5.38.36l4-.62c1.16-.2,2.11-.16,2.87.12.76.28,1.29.8,1.61,1.57.38.91.24,1.89-.39,2.91-.64,1.03-1.72,1.86-3.24,2.48-1.37.56-2.6.72-3.71.49-1.11-.23-2.06-.91-2.84-2.03l-3.12,2.02c.77,1.23,1.72,2.14,2.86,2.73,1.14.59,2.4.86,3.78.83,1.38-.03,2.83-.36,4.34-.98,1.7-.7,3.07-1.59,4.13-2.69,1.06-1.09,1.75-2.29,2.07-3.58.32-1.29.21-2.59-.32-3.89Z"/>
    </g>
  </g>
  <g>
    <path class="cls-2" d="M291.81,445.69c-7.28,0-14.29-2.43-20.08-7.03-6.78-5.38-11.06-13.08-12.05-21.68-2.04-17.75,10.74-33.85,28.49-35.89l203.85-23.44c17.74-2.04,33.85,10.74,35.89,28.49.99,8.6-1.43,17.07-6.81,23.85-5.38,6.78-13.08,11.06-21.68,12.04l-203.85,23.44c-1.26.15-2.52.22-3.77.22ZM495.74,359.43c-1.15,0-2.32.07-3.49.2l-203.85,23.44c-16.66,1.92-28.65,17.02-26.73,33.68.93,8.07,4.94,15.29,11.3,20.34,6.36,5.05,14.31,7.32,22.38,6.39l203.85-23.44c8.07-.93,15.29-4.94,20.34-11.3,5.05-6.36,7.32-14.31,6.39-22.38-1.78-15.48-14.96-26.93-30.18-26.93Z"/>
    <g>
      <path class="cls-2" d="M328.18,411.14c-.78-1.06-1.69-1.84-2.75-2.34-1.05-.51-2.11-.74-3.17-.71l-.03-.26c.94-.4,1.76-.91,2.48-1.54.72-.63,1.27-1.42,1.63-2.36.37-.94.47-2.08.32-3.42-.18-1.59-.71-2.98-1.59-4.16-.88-1.18-2.09-2.06-3.63-2.64-1.55-.58-3.42-.74-5.62-.49l-11.31,1.3,3.66,31.8,11.63-1.34c2.52-.29,4.53-.9,6.04-1.83,1.51-.93,2.56-2.08,3.17-3.46.61-1.38.81-2.89.62-4.54-.19-1.62-.67-2.96-1.45-4.02ZM308.92,397.6l7.28-.84c2.03-.23,3.6.07,4.71.91,1.1.84,1.74,1.98,1.91,3.41.13,1.1-.03,2.08-.47,2.95-.44.87-1.1,1.58-1.97,2.13-.88.55-1.9.89-3.08,1.03l-7.17.82-1.2-10.42ZM324.48,419.41c-.99,1.07-2.72,1.75-5.18,2.04l-7.53.87-1.25-10.89,7.75-.89c1.41-.16,2.65-.04,3.72.36,1.07.4,1.93,1.02,2.58,1.84.65.83,1.04,1.78,1.16,2.86.17,1.47-.24,2.73-1.24,3.81Z"/>
      <path class="cls-2" d="M344.28,397.97c-.37.03-.71.06-1,.09-1.41.16-2.61.67-3.61,1.52-1,.85-1.65,1.9-1.95,3.14l-.21.02-.42-3.63-3.65.42,2.71,23.56,3.8-.44-1.69-14.71c-.13-1.12,0-2.13.4-3.01.39-.88,1-1.6,1.81-2.15.81-.55,1.75-.89,2.81-1.02.51-.06,1-.08,1.45-.08s.74.02.86.03l-.44-3.82c-.2,0-.49.03-.86.06Z"/>
      <path class="cls-2" d="M366.45,399.51c-.69-1.01-1.52-1.75-2.49-2.23-.97-.48-1.98-.78-3.03-.89-1.05-.12-2.03-.12-2.94-.02-1.35.16-2.64.51-3.87,1.06-1.23.55-2.28,1.32-3.16,2.31-.88.99-1.48,2.23-1.8,3.72l3.8.54c.13-.63.41-1.25.86-1.86.44-.61,1.04-1.13,1.81-1.57.76-.44,1.71-.73,2.83-.86,1.09-.13,2.03-.05,2.82.23.78.28,1.4.74,1.86,1.38.46.64.74,1.44.85,2.39l.02.15c.07.58-.1,1.02-.49,1.3-.39.28-1.02.53-1.88.73-.86.2-2,.48-3.42.83-1.09.27-2.17.59-3.23.96-1.06.37-2.01.85-2.84,1.44-.83.59-1.47,1.34-1.91,2.24-.44.9-.58,2.03-.42,3.38.18,1.55.69,2.83,1.53,3.82.84,1,1.9,1.71,3.18,2.12,1.28.42,2.67.54,4.18.36,1.35-.16,2.48-.48,3.37-.98.89-.5,1.6-1.07,2.12-1.72.52-.65.88-1.27,1.08-1.85l.21-.02.37,3.24,3.74-.43-1.8-15.69c-.19-1.69-.64-3.04-1.33-4.05ZM364.39,413.95c-.4.94-1.05,1.74-1.95,2.4-.91.66-2.08,1.07-3.51,1.24-.95.11-1.81.07-2.57-.13-.76-.19-1.38-.54-1.86-1.04-.48-.5-.77-1.15-.86-1.94-.1-.9.06-1.63.48-2.22.42-.58,1.02-1.06,1.78-1.43s1.6-.66,2.49-.88c.43-.11.96-.24,1.59-.39.62-.15,1.25-.32,1.89-.51.63-.19,1.19-.38,1.66-.58.47-.2.78-.39.92-.58l.37,3.2c.11.97-.03,1.92-.43,2.86Z"/>
      <path class="cls-2" d="M391.66,396.53c-.84-1.25-1.91-2.14-3.2-2.66-1.29-.52-2.74-.69-4.33-.51-1.81.21-3.33.86-4.56,1.94-.91.8-1.61,1.93-2.11,3.36l-.49-4.13-3.65.42,2.71,23.56,3.8-.44-1.61-14.04c-.16-1.41-.03-2.62.38-3.63.42-1.01,1.05-1.81,1.9-2.4.85-.59,1.84-.95,2.98-1.08,1.67-.19,3.03.17,4.1,1.09,1.07.92,1.72,2.31,1.93,4.16l1.68,14.6,3.8-.44-1.71-14.9c-.23-2.02-.77-3.66-1.61-4.91Z"/>
      <path class="cls-2" d="M413.85,381.94l1.37,11.95-.23.03c-.37-.49-.87-1.02-1.48-1.58-.61-.56-1.4-1.02-2.37-1.38-.96-.36-2.16-.45-3.58-.29-1.96.23-3.65.92-5.05,2.09-1.4,1.17-2.42,2.71-3.06,4.63-.64,1.92-.81,4.12-.53,6.59.29,2.49.96,4.6,2.01,6.33,1.06,1.73,2.4,3.01,4.02,3.84,1.62.83,3.42,1.13,5.4.9,1.39-.16,2.52-.52,3.38-1.09.86-.57,1.53-1.2,2.01-1.91.48-.7.85-1.34,1.12-1.92l.34-.04.42,3.63,3.67-.42-3.66-31.8-3.8.44ZM416,406.69c-.38,1.39-1.02,2.52-1.94,3.38-.92.86-2.09,1.38-3.53,1.54s-2.71-.08-3.8-.73c-1.1-.65-1.99-1.62-2.66-2.9-.67-1.28-1.11-2.76-1.3-4.46-.2-1.69-.11-3.23.26-4.6.37-1.38,1.01-2.5,1.93-3.37.92-.87,2.1-1.39,3.55-1.55s2.72.06,3.81.68c1.09.62,1.96,1.55,2.64,2.8.67,1.25,1.11,2.75,1.31,4.5s.11,3.32-.26,4.71Z"/>
      <rect class="cls-2" x="426.38" y="388.71" width="3.82" height="23.72" transform="translate(-42.95 51.54) rotate(-6.56)"/>
      <path class="cls-2" d="M426.48,384.77c.73-.08,1.32-.4,1.78-.96.46-.56.65-1.19.57-1.88-.08-.7-.41-1.26-.98-1.69-.58-.43-1.23-.61-1.95-.52-.71.08-1.3.4-1.76.95-.46.55-.66,1.18-.57,1.87.08.7.41,1.26.99,1.7.58.44,1.22.62,1.93.54Z"/>
      <path class="cls-2" d="M453.62,389.41c-.84-1.25-1.91-2.14-3.2-2.66-1.29-.52-2.74-.69-4.33-.51-1.81.21-3.33.86-4.56,1.94-.91.8-1.61,1.93-2.11,3.36l-.49-4.13-3.65.42,2.71,23.56,3.8-.44-1.61-14.04c-.16-1.41-.03-2.62.38-3.63.42-1.01,1.05-1.81,1.9-2.4.85-.59,1.84-.95,2.98-1.08,1.67-.19,3.03.17,4.1,1.09,1.07.92,1.72,2.31,1.93,4.16l1.68,14.6,3.8-.44-1.71-14.9c-.23-2.02-.77-3.66-1.61-4.91Z"/>
      <path class="cls-2" d="M483.34,406.67l-2.77-24.05-3.69.42.43,3.76-.28.03c-.39-.5-.9-1.04-1.53-1.62-.63-.58-1.42-1.04-2.39-1.39s-2.15-.45-3.56-.28c-1.98.23-3.67.93-5.07,2.1-1.4,1.17-2.42,2.71-3.07,4.6-.65,1.9-.83,4.06-.55,6.5.28,2.45.96,4.49,2.03,6.14,1.07,1.64,2.41,2.84,4.02,3.58,1.61.75,3.38,1.01,5.3.79,1.41-.16,2.54-.51,3.41-1.04.86-.53,1.53-1.14,2-1.82.47-.68.84-1.31,1.12-1.89l.28-.03.52,4.48c.22,1.95-.21,3.46-1.32,4.54-1.1,1.08-2.61,1.73-4.53,1.95-1.29.15-2.39.09-3.27-.18-.89-.26-1.62-.64-2.2-1.13-.58-.49-1.05-.99-1.42-1.49l-3.07,1.93c.54.96,1.29,1.79,2.23,2.5.95.71,2.1,1.21,3.46,1.53s2.91.37,4.65.17c1.91-.22,3.6-.73,5.09-1.52,1.49-.79,2.61-1.9,3.38-3.32.77-1.42,1.03-3.17.79-5.25ZM477.96,399.23c-.38,1.31-1.03,2.36-1.95,3.14s-2.11,1.26-3.54,1.42c-1.45.17-2.72-.04-3.81-.61s-1.97-1.46-2.64-2.65c-.67-1.19-1.1-2.63-1.29-4.31-.19-1.65-.1-3.15.27-4.5.37-1.35,1.02-2.45,1.94-3.32.92-.86,2.12-1.38,3.58-1.55,1.45-.17,2.72.05,3.81.67,1.09.61,1.96,1.53,2.62,2.76.66,1.23,1.09,2.69,1.28,4.38.2,1.72.11,3.24-.27,4.55Z"/>
    </g>
  </g>
  <g>
    <path class="cls-2" d="M134.27,334.4c-15.51,0-29.25-11.2-31.93-26.99-1.45-8.53.51-17.12,5.53-24.18,5.01-7.06,12.47-11.74,21-13.19l143.4-24.33c8.53-1.45,17.12.51,24.18,5.52,7.06,5.01,11.74,12.47,13.19,21,1.45,8.53-.51,17.12-5.53,24.18-5.01,7.06-12.47,11.74-21,13.19l-143.4,24.33c-1.83.31-3.64.46-5.44.46ZM277.75,247.26c-1.71,0-3.43.14-5.15.44l-143.4,24.33c-8.01,1.36-15,5.75-19.71,12.38-4.7,6.62-6.54,14.68-5.18,22.69,1.36,8.01,5.75,15,12.38,19.71,6.62,4.7,14.68,6.54,22.69,5.18l143.4-24.33c8.01-1.36,15-5.75,19.71-12.38s6.54-14.68,5.18-22.69c-1.36-8.01-5.75-15.01-12.38-19.71-5.2-3.69-11.28-5.62-17.53-5.62Z"/>
    <g>
      <path class="cls-2" d="M171.57,278.23l-3.98.68,3.48,20.5c.26,1.53.16,2.93-.31,4.22-.46,1.29-1.26,2.39-2.38,3.28-1.13.9-2.55,1.49-4.27,1.78-1.74.29-3.29.21-4.65-.26-1.36-.46-2.48-1.23-3.35-2.31s-1.44-2.37-1.7-3.9l-3.48-20.5-3.98.68,3.53,20.82c.37,2.16,1.2,4,2.51,5.52,1.3,1.52,2.97,2.61,4.99,3.27,2.02.66,4.27.78,6.74.36,2.48-.42,4.57-1.28,6.24-2.56,1.68-1.29,2.88-2.86,3.61-4.73s.91-3.88.54-6.04l-3.53-20.82Z"/>
      <path class="cls-2" d="M202.79,272.93l-4.51.77-3.52,7.5c-.47,1.02-.87,1.92-1.2,2.68-.34.76-.64,1.5-.91,2.22-.2.53-.41,1.14-.63,1.78-.42-.55-.83-1.06-1.19-1.49-.49-.59-1.01-1.19-1.56-1.8-.55-.6-1.21-1.31-2-2.12l-5.71-5.94-4.6.78,13.22,13.6-8.56,18.08,4.51-.77,4.23-8.98c.43-.94.81-1.77,1.13-2.48.32-.71.61-1.41.88-2.11.18-.45.36-.95.54-1.47.36.46.7.89,1.01,1.26.47.57.97,1.13,1.5,1.69.52.56,1.13,1.21,1.82,1.95l6.91,7.09,4.58-.78-13.96-14.4,8.03-17.06Z"/>
      <polygon class="cls-2" points="211.41 308.82 214.88 308.23 218.64 268.72 215.16 269.31 211.41 308.82"/>
      <path class="cls-2" d="M247.97,265.27l-3.98.68,3.48,20.5c.26,1.53.16,2.93-.31,4.23-.46,1.29-1.26,2.39-2.38,3.28-1.13.9-2.55,1.49-4.27,1.78-1.74.29-3.29.21-4.65-.26-1.36-.47-2.48-1.23-3.35-2.31-.87-1.07-1.44-2.37-1.7-3.9l-3.48-20.5-3.98.68,3.53,20.82c.37,2.16,1.2,4,2.51,5.52s2.97,2.61,4.99,3.27c2.02.66,4.27.78,6.74.36,2.48-.42,4.57-1.28,6.24-2.56,1.68-1.29,2.88-2.87,3.61-4.73s.91-3.88.54-6.04l-3.53-20.82Z"/>
      <rect class="cls-2" x="257.91" y="263.47" width="4.04" height="32.01" transform="translate(-43.09 47.42) rotate(-9.63)"/>
    </g>
  </g>
  <g>
    <path class="cls-2" d="M291.35,147.12c-1.38,0-2.78-.09-4.18-.27l-144.25-18.66c-8.58-1.11-16.22-5.5-21.51-12.35-5.28-6.85-7.58-15.36-6.47-23.94,1.11-8.58,5.5-16.22,12.35-21.51,6.85-5.29,15.36-7.58,23.94-6.47l144.25,18.66c8.58,1.11,16.22,5.5,21.51,12.35,5.29,6.85,7.58,15.36,6.47,23.94-2.11,16.31-16.08,28.25-32.11,28.25ZM147.02,65.64c-6.67,0-13.13,2.19-18.5,6.33-6.43,4.96-10.55,12.12-11.59,20.18-1.04,8.05,1.12,16.03,6.07,22.46s12.12,10.55,20.18,11.59l144.25,18.66c16.63,2.15,31.9-9.63,34.05-26.25,1.04-8.05-1.12-16.03-6.07-22.46-4.96-6.43-12.13-10.55-20.18-11.59l-144.25-18.66c-1.33-.17-2.65-.26-3.96-.26Z"/>
    <g>
      <polygon class="cls-2" points="182.74 97.75 166.03 95.59 167.81 81.85 163.81 81.33 159.7 113.08 163.71 113.6 165.58 99.13 182.28 101.29 180.41 115.76 184.42 116.28 188.52 84.53 184.52 84.01 182.74 97.75"/>
      <polygon class="cls-2" points="193.6 88.78 203.68 90.09 200.03 118.3 204.04 118.82 207.69 90.6 217.72 91.9 218.18 88.37 194.06 85.25 193.6 88.78"/>
      <path class="cls-2" d="M239.31,111.57c-.25.44-.54,1.01-.88,1.69-.34.69-.7,1.41-1.06,2.18-.37.77-.72,1.52-1.06,2.26-.09.19-.17.36-.25.54-.03-.21-.07-.42-.11-.65-.14-.81-.29-1.63-.46-2.46-.17-.83-.32-1.61-.47-2.34-.14-.73-.28-1.34-.4-1.83l-5.28-21.16-5.62-.73-4.11,31.75,3.83.5,2.35-18.2c.09-.7.18-1.47.28-2.33.09-.85.2-1.74.3-2.66.1-.92.2-1.83.3-2.73.04-.39.08-.76.12-1.13.12.57.24,1.13.35,1.7.22,1.05.43,2.06.63,3.01.2.95.39,1.81.55,2.58.17.77.32,1.42.45,1.94l4.91,19.14,3.43.44,9.51-17.27c.27-.49.58-1.09.96-1.8.38-.72.78-1.52,1.21-2.4.43-.88.88-1.8,1.35-2.75.27-.54.52-1.09.77-1.63-.07.48-.14.94-.21,1.43-.14.93-.28,1.84-.42,2.73-.14.89-.26,1.75-.38,2.58-.12.83-.21,1.57-.3,2.23l-2.35,18.2,3.94.51,4.11-31.75-5.65-.73-10.36,19.13Z"/>
      <polygon class="cls-2" points="263.05 122.85 266.7 94.64 262.69 94.12 258.58 125.87 277.42 128.31 277.88 124.77 263.05 122.85"/>
    </g>
  </g>
  <circle class="cls-1" cx="288.98" cy="323.34" r="15.66"/>
  <circle class="cls-1" cx="211.91" cy="152.03" r="15.66"/>
  <circle class="cls-1" cx="84.67" cy="302.43" r="18.27"/>
  <circle class="cls-1" cx="163.71" cy="407.4" r="16.72"/>
  <g>
    <g>
      <path class="cls-2" d="M389.72,174.1l-2.48-3.16-18,14.1c-1.54,1.21-3.03,1.74-4.47,1.58-1.43-.16-2.66-.89-3.68-2.18-1.02-1.3-1.43-2.66-1.24-4.09s1.06-2.75,2.6-3.96l1.35-1.06-2.49-3.18-1.35,1.06c-2.41,1.89-3.73,4.05-3.94,6.47-.21,2.42.55,4.74,2.28,6.95,1.74,2.22,3.81,3.51,6.2,3.88,2.39.36,4.8-.4,7.21-2.29l18-14.1Z"/>
      <path class="cls-2" d="M394.96,200.31c.5-1.12.7-2.22.6-3.29-.1-1.08-.37-2.1-.82-3.05s-.96-1.8-1.52-2.52c-.84-1.07-1.81-1.99-2.93-2.74-1.11-.76-2.32-1.25-3.62-1.49-1.3-.23-2.67-.1-4.11.41l1.53,3.52c.61-.22,1.29-.3,2.03-.24.75.06,1.51.3,2.28.72.77.42,1.51,1.08,2.21,1.97.68.87,1.11,1.71,1.28,2.52.17.81.1,1.58-.2,2.3-.31.72-.84,1.38-1.59,1.97l-.12.09c-.46.36-.92.45-1.36.26-.45-.19-.98-.6-1.6-1.23-.62-.63-1.45-1.46-2.49-2.48-.8-.79-1.64-1.54-2.5-2.26s-1.77-1.27-2.71-1.67c-.94-.4-1.91-.55-2.91-.45s-2.03.57-3.1,1.41c-1.23.96-2.05,2.06-2.46,3.31-.41,1.24-.46,2.52-.14,3.82.32,1.31.94,2.56,1.88,3.76.84,1.07,1.71,1.86,2.6,2.36s1.75.8,2.58.9c.82.1,1.54.08,2.15-.05l.13.17-2.57,2.01,2.32,2.96,12.43-9.74c1.34-1.05,2.26-2.14,2.76-3.25ZM384.24,204.97c-.77.6-1.65.98-2.66,1.13-1.01.15-2.03.02-3.06-.41-1.04-.43-2-1.21-2.89-2.35-.59-.76-1-1.51-1.23-2.25-.23-.75-.26-1.46-.09-2.13.17-.67.58-1.26,1.21-1.75.71-.56,1.42-.81,2.14-.75.72.06,1.43.31,2.15.77.71.46,1.4,1.01,2.05,1.67.32.31.71.7,1.16,1.15.45.45.93.9,1.42,1.34.49.44.95.81,1.36,1.11s.74.46.97.48l-2.54,1.99Z"/>
      <path class="cls-2" d="M411.73,215.64l-14.12,4.65c-1.4.46-2.77.97-4.09,1.52-.6.25-1.18.47-1.77.71.37-.51.74-1.02,1.13-1.53.86-1.15,1.68-2.35,2.45-3.61l7.88-12.62-2.57-3.28-13.08,21.76,2.46,3.15,24.26-7.49-2.56-3.26Z"/>
      <path class="cls-2" d="M424.24,237.69c.5-1.12.7-2.22.6-3.29-.1-1.08-.37-2.1-.82-3.05-.45-.96-.96-1.8-1.52-2.52-.84-1.07-1.81-1.99-2.93-2.74-1.11-.76-2.32-1.25-3.62-1.49-1.3-.23-2.67-.1-4.11.41l1.53,3.52c.61-.22,1.29-.3,2.03-.24.75.06,1.51.3,2.28.72.77.42,1.51,1.08,2.21,1.97.68.87,1.11,1.71,1.28,2.52.17.81.1,1.58-.2,2.3-.31.72-.84,1.38-1.59,1.97l-.12.09c-.46.36-.92.45-1.36.26-.45-.19-.98-.6-1.6-1.23-.62-.63-1.45-1.46-2.49-2.48-.8-.79-1.64-1.54-2.5-2.26-.87-.71-1.77-1.27-2.71-1.67-.94-.4-1.91-.55-2.91-.45-1,.1-2.03.57-3.1,1.41-1.23.96-2.05,2.06-2.46,3.31-.41,1.24-.46,2.52-.14,3.82.32,1.31.94,2.56,1.88,3.76.84,1.07,1.71,1.86,2.6,2.36s1.75.8,2.58.9c.82.1,1.54.08,2.15-.05l.13.17-2.57,2.01,2.32,2.96,12.43-9.74c1.34-1.05,2.26-2.14,2.76-3.25ZM413.52,242.35c-.77.6-1.65.98-2.66,1.13-1.01.15-2.03.02-3.06-.41-1.04-.43-2-1.21-2.89-2.35-.59-.76-1-1.51-1.23-2.25-.23-.75-.26-1.46-.09-2.13.17-.67.58-1.26,1.21-1.75.71-.56,1.42-.81,2.14-.75.72.06,1.43.31,2.15.77.71.46,1.4,1.01,2.05,1.67.32.31.71.7,1.16,1.15.46.45.93.9,1.42,1.34.49.44.95.81,1.36,1.11.42.3.74.46.97.48l-2.54,1.99Z"/>
      <path class="cls-2" d="M430.15,256.4l-1.56-3.39c-.57-1.24-.85-2.28-.83-3.12s.38-1.53,1.08-2.07c.79-.62,1.73-.77,2.82-.45s2.07,1.05,2.96,2.17c.94,1.19,1.36,2.33,1.29,3.4-.08,1.07-.41,2-.98,2.77l2.72,2.32c.77-.97,1.29-2.02,1.57-3.15.28-1.14.25-2.32-.06-3.57-.32-1.24-.98-2.51-1.99-3.79-1.04-1.33-2.2-2.33-3.48-3.01-1.28-.68-2.55-.99-3.83-.94s-2.46.49-3.53,1.33c-1.32,1.03-2.08,2.3-2.28,3.8-.2,1.5.17,3.26,1.11,5.27l1.68,3.68c.5,1.06.72,1.99.66,2.8-.06.8-.42,1.46-1.07,1.97-.78.61-1.75.75-2.91.41-1.16-.34-2.25-1.15-3.27-2.45-.91-1.16-1.4-2.31-1.48-3.44-.08-1.13.32-2.23,1.18-3.28l-2.79-2.45c-.98,1.07-1.59,2.24-1.85,3.49-.25,1.25-.18,2.54.23,3.86.41,1.32,1.11,2.62,2.12,3.91,1.13,1.44,2.37,2.53,3.71,3.25,1.34.72,2.68,1.06,4.01,1.02,1.33-.04,2.55-.5,3.65-1.36,1.3-1.02,2.04-2.26,2.24-3.74.2-1.48-.17-3.23-1.11-5.26Z"/>
      <path class="cls-2" d="M442.55,281.5c-.61.26-1.24.43-1.89.5-.65.07-1.29.02-1.92-.13-.63-.16-1.24-.43-1.82-.83s-1.12-.9-1.61-1.53c-.97-1.24-1.46-2.51-1.46-3.81,0-1.3.37-2.57,1.1-3.8.74-1.23,1.74-2.34,3-3.33,1.29-1.01,2.62-1.72,3.99-2.15s2.7-.48,3.98-.17c1.27.31,2.39,1.08,3.35,2.31.49.63.86,1.27,1.1,1.92.24.65.36,1.29.36,1.93,0,.63-.09,1.25-.29,1.85-.2.6-.49,1.15-.89,1.67l2.93,2.42c.67-.89,1.15-1.83,1.45-2.83.3-1,.43-2.02.38-3.05-.05-1.04-.27-2.06-.67-3.08-.4-1.02-.96-1.99-1.69-2.93-1.33-1.7-2.9-2.88-4.71-3.53-1.81-.65-3.72-.76-5.74-.33-2.02.43-4,1.4-5.94,2.92-1.91,1.49-3.31,3.17-4.2,5.02-.89,1.86-1.24,3.74-1.05,5.65.2,1.91.96,3.72,2.29,5.42.73.94,1.56,1.72,2.47,2.35.91.63,1.88,1.09,2.89,1.38,1.02.29,2.05.4,3.1.35,1.05-.06,2.09-.31,3.12-.75l-1.65-3.43Z"/>
      <path class="cls-2" d="M459.05,285.73c.96-.12,1.89.01,2.78.41.89.4,1.67,1.02,2.34,1.87.32.41.59.8.83,1.19.23.39.37.64.42.75l3.03-2.37c-.11-.17-.28-.4-.5-.7-.22-.3-.42-.57-.61-.81-.87-1.12-1.94-1.88-3.18-2.28-1.25-.41-2.48-.41-3.7-.02l-.13-.17,2.88-2.25-2.27-2.89-18.67,14.63,2.36,3.01,11.65-9.13c.89-.7,1.82-1.11,2.77-1.23Z"/>
      <path class="cls-2" d="M477.14,291.38c.72.1,1.35-.06,1.9-.5s.86-1.01.93-1.72c.07-.72-.13-1.36-.58-1.94-.44-.56-1.02-.9-1.73-1.01-.71-.11-1.34.06-1.9.49s-.87,1.01-.94,1.73c-.07.72.11,1.36.55,1.93.45.58,1.03.91,1.75,1.02Z"/>
      <rect class="cls-2" x="451.01" y="298.25" width="23.72" height="3.82" transform="translate(-86.61 349.29) rotate(-38.07)"/>
      <path class="cls-2" d="M485.38,318.45c.91-1.81,1.3-3.61,1.16-5.42-.14-1.81-.83-3.5-2.07-5.08-.88-1.13-1.79-1.91-2.72-2.34-.93-.43-1.81-.67-2.65-.71-.83-.04-1.55-.02-2.17.06l-.21-.27,2.94-2.31-2.28-2.91-25.74,20.16,2.36,3.01,9.95-7.79.15.19c-.23.59-.42,1.31-.59,2.14-.17.83-.15,1.75.05,2.77.2,1.01.73,2.07,1.59,3.16,1.24,1.58,2.72,2.65,4.44,3.22,1.73.57,3.58.62,5.55.15,1.97-.46,3.95-1.47,5.92-3.01,1.96-1.54,3.4-3.21,4.31-5.02ZM478.69,320.39c-1.34,1.05-2.7,1.79-4.09,2.2-1.38.42-2.69.47-3.92.15s-2.3-1.05-3.2-2.2c-.88-1.13-1.34-2.32-1.38-3.59-.04-1.26.31-2.52,1.05-3.75.73-1.24,1.79-2.4,3.18-3.49,1.39-1.09,2.76-1.83,4.12-2.23,1.36-.4,2.64-.43,3.84-.1,1.2.33,2.25,1.08,3.15,2.23.91,1.16,1.38,2.37,1.4,3.64.03,1.26-.32,2.51-1.05,3.73-.73,1.22-1.76,2.36-3.1,3.41Z"/>
      <path class="cls-2" d="M501.2,320.41l-2.36-3.01-4.58,3.59-2.28-2.91-2.57,2.01,2.28,2.91-11.57,9.06c-1.5,1.17-2.32,2.52-2.45,4.05-.13,1.52.43,3.09,1.69,4.7.29.37.61.73.96,1.09.35.35.69.65,1.03.9l2.15-2.48c-.23-.22-.48-.47-.74-.74-.27-.27-.48-.51-.64-.71-.62-.79-.88-1.49-.77-2.11.11-.62.56-1.24,1.36-1.87l11.33-8.88,3.01,3.84,2.57-2.01-3.01-3.84,4.58-3.59Z"/>
    </g>
    <path class="cls-2" d="M495.3,369.04c-1.25,0-2.5-.07-3.75-.21-8.61-.99-16.33-5.27-21.72-12.05l-132.48-166.71c-11.13-14.01-8.79-34.47,5.22-45.61,14.01-11.13,34.47-8.79,45.61,5.22l132.48,166.71c11.13,14.01,8.79,34.47-5.22,45.61-5.8,4.61-12.83,7.05-20.13,7.05ZM362.72,139.53c-6.62,0-13.28,2.15-18.85,6.58-13.1,10.41-15.29,29.54-4.88,42.64l132.48,166.71c5.04,6.35,12.26,10.35,20.31,11.27,8.05.92,15.98-1.35,22.33-6.39,6.35-5.04,10.35-12.26,11.27-20.31.92-8.05-1.35-15.98-6.39-22.33l-132.48-166.71c-5.98-7.53-14.85-11.45-23.79-11.45Z"/>
  </g>
  <g>
    <path class="cls-2" d="M114.04,73.78c-8.03,0-15.67-2.94-21.66-8.37-6.39-5.8-10.15-13.73-10.57-22.35-.87-17.79,12.9-32.98,30.69-33.85l106.45-5.21c17.8-.88,32.98,12.89,33.85,30.69.87,17.79-12.9,32.97-30.69,33.85l-106.45,5.21c-.54.03-1.08.04-1.62.04ZM220.56,5.76c-.51,0-1.02.01-1.53.04l-106.45,5.21c-16.8.82-29.8,15.16-28.97,31.96.4,8.14,3.94,15.63,9.98,21.11,6.04,5.47,13.83,8.27,21.98,7.87l106.45-5.21c16.8-.82,29.8-15.16,28.97-31.96-.4-8.14-3.94-15.63-9.98-21.11-5.66-5.13-12.87-7.91-20.45-7.91Z"/>
    <g>
      <path class="cls-2" d="M148.26,48.07c-.52.87-1.16,1.62-1.92,2.23s-1.62,1.1-2.58,1.45c-.95.35-1.96.55-3.04.6-1.97.1-3.77-.31-5.38-1.23-1.62-.92-2.92-2.3-3.91-4.15s-1.56-4.11-1.69-6.79c-.13-2.69.2-5,1-6.94.8-1.94,1.96-3.45,3.48-4.53,1.52-1.08,3.27-1.67,5.26-1.76,1.07-.05,2.1.04,3.08.29s1.88.64,2.71,1.19c.83.55,1.54,1.23,2.13,2.05.59.82,1.03,1.78,1.31,2.88l4.06-.2c-.37-1.65-.97-3.1-1.79-4.36-.83-1.26-1.84-2.33-3.04-3.19-1.2-.86-2.53-1.49-4-1.9-1.47-.41-3.02-.57-4.65-.49-2.78.14-5.21.93-7.3,2.39-2.09,1.46-3.69,3.44-4.8,5.96-1.1,2.51-1.57,5.45-1.41,8.81.16,3.33.92,6.2,2.26,8.6s3.13,4.22,5.35,5.46c2.23,1.24,4.73,1.79,7.5,1.65,1.64-.08,3.18-.4,4.6-.96,1.42-.56,2.68-1.33,3.78-2.3,1.1-.98,2-2.13,2.71-3.47.71-1.33,1.16-2.82,1.35-4.46l-4.03.2c-.19,1.11-.54,2.11-1.06,2.98Z"/>
      <path class="cls-2" d="M177.99,38.93c-.93-.63-1.94-1.13-3.02-1.52-1.08-.38-2.13-.68-3.16-.89l-3.33-.72c-.96-.21-1.92-.49-2.89-.85-.97-.35-1.79-.85-2.46-1.48-.67-.63-1.03-1.47-1.08-2.52-.05-1.02.2-1.93.74-2.75.54-.81,1.32-1.48,2.34-1.99,1.02-.51,2.22-.8,3.59-.86,1.97-.1,3.63.28,4.98,1.13,1.35.85,2.15,2.1,2.4,3.75l3.95-.19c-.14-1.7-.71-3.19-1.71-4.48-.99-1.28-2.32-2.27-3.98-2.95-1.66-.68-3.56-.97-5.69-.86-2.09.1-3.94.57-5.57,1.4-1.62.83-2.88,1.95-3.77,3.35-.89,1.4-1.29,3.01-1.21,4.82.1,2.13.91,3.84,2.4,5.12,1.5,1.28,3.63,2.23,6.4,2.84l3.85.87c1.25.27,2.35.59,3.33.98.97.38,1.74.89,2.32,1.51.58.62.89,1.44.94,2.44.06,1.13-.23,2.14-.85,3.02-.62.88-1.5,1.59-2.63,2.12s-2.43.83-3.9.9c-1.34.07-2.59-.08-3.73-.45-1.14-.37-2.08-.96-2.81-1.78-.73-.82-1.17-1.86-1.32-3.13l-4.12.2c.19,1.88.8,3.5,1.83,4.85,1.03,1.35,2.42,2.37,4.18,3.06,1.76.69,3.81.99,6.14.87,2.43-.12,4.49-.63,6.19-1.52,1.69-.89,2.96-2.06,3.82-3.51.85-1.45,1.24-3.06,1.15-4.83-.07-1.4-.41-2.59-1.01-3.56-.61-.97-1.38-1.78-2.31-2.4Z"/>
      <path class="cls-2" d="M208.25,39.97c-.61-.97-1.38-1.78-2.31-2.4-.93-.63-1.94-1.13-3.02-1.52-1.08-.38-2.13-.68-3.16-.89l-3.33-.72c-.96-.21-1.92-.49-2.89-.85-.97-.35-1.79-.85-2.46-1.48s-1.03-1.47-1.08-2.52c-.05-1.02.2-1.93.74-2.75.54-.81,1.32-1.48,2.34-1.99,1.02-.51,2.22-.8,3.59-.86,1.97-.1,3.63.28,4.98,1.13,1.35.85,2.15,2.1,2.4,3.75l3.95-.19c-.14-1.7-.71-3.19-1.7-4.48-1-1.28-2.32-2.27-3.98-2.94-1.66-.68-3.56-.97-5.69-.86-2.09.1-3.94.57-5.57,1.4-1.62.83-2.88,1.95-3.77,3.35-.89,1.4-1.29,3.01-1.21,4.82.1,2.13.91,3.84,2.4,5.12,1.5,1.28,3.63,2.23,6.4,2.84l3.85.87c1.25.27,2.35.59,3.33.98.97.38,1.75.89,2.32,1.51s.89,1.44.94,2.44c.06,1.13-.23,2.14-.85,3.02-.62.88-1.5,1.59-2.63,2.12-1.13.53-2.43.83-3.9.9-1.34.07-2.59-.08-3.73-.45-1.14-.37-2.08-.96-2.81-1.78-.73-.82-1.17-1.86-1.32-3.13l-4.12.2c.19,1.88.8,3.5,1.83,4.85,1.03,1.35,2.42,2.37,4.18,3.06,1.76.69,3.81.99,6.14.87,2.43-.12,4.49-.63,6.19-1.52,1.69-.89,2.96-2.06,3.82-3.51.85-1.45,1.24-3.06,1.15-4.83-.07-1.4-.41-2.59-1.01-3.56Z"/>
    </g>
  </g>
</svg>